<?xml version="1.0" encoding="utf-8"?>
<!-- Generator: Adobe Illustrator 18.0.0, SVG Export Plug-In . SVG Version: 6.00 Build 0)  -->
<!DOCTYPE svg PUBLIC "-//W3C//DTD SVG 1.1//EN" "http://www.w3.org/Graphics/SVG/1.1/DTD/svg11.dtd">
<svg version="1.1" id="Layer_1" xmlns="http://www.w3.org/2000/svg" xmlns:xlink="http://www.w3.org/1999/xlink" x="0px" y="0px"
	 viewBox="0 0 213.7 213.6" enable-background="new 0 0 213.7 213.6" xml:space="preserve">
<g>
	
		<rect x="121.8" y="137.5" transform="matrix(0.2502 0.9682 -0.9682 0.2502 224.6579 -14.9195)" fill="#FFFFFF" width="0.3" height="0.2"/>
	<polygon fill="#FFFFFF" points="121.9,139.5 122.2,139.4 122.1,139.2 121.8,139.1 121.8,139.3 	"/>
	<polygon fill="#FFFFFF" points="122.6,135.2 122.6,135.4 122.7,135.5 123.3,135.1 123.3,134.7 123.1,134.6 	"/>
	<polygon fill="#FFFFFF" points="122.5,132.4 122.7,132.2 122.5,131.6 122.4,131.4 121.9,131.6 121.8,131.9 122.1,132.9 122.1,133 
		122.3,133 122.5,132.8 	"/>
	<polygon fill="#FFFFFF" points="121.8,141.5 121.7,141.6 121.8,141.8 122,141.8 122.3,141.8 122.1,141.3 	"/>
	<polygon fill="#FFFFFF" points="120.7,144.2 120.4,144.3 120.6,144.7 120.7,144.8 120.8,144.8 120.8,144.4 	"/>
	<polygon fill="#FFFFFF" points="120.4,140.1 120.4,140.4 120.7,140.3 121.1,140.1 121.1,140.1 120.7,140 	"/>
	<polygon fill="#FFFFFF" points="123.6,133.7 123.4,133.7 123.2,133.8 123.1,134 123.2,134.1 123.4,134.1 	"/>
	<polygon fill="#FFFFFF" points="123.7,128.2 123.2,128.7 123,128.6 122.6,128.7 122.6,129 122.7,129.2 123.1,129.2 123.3,129.4 
		124,129.3 124.1,129.2 124.5,129.1 124.9,128.3 124.9,128.1 124.7,127.8 124.2,127.5 124.1,127.8 124.2,127.8 124.2,127.9 
		124.1,128.1 	"/>
	<polygon fill="#FFFFFF" points="122.7,137.9 123,138.1 123.1,138.1 123.1,137.7 122.8,137.4 122.5,137.4 	"/>
	<polygon fill="#FFFFFF" points="123.9,141.7 123.9,142.1 124.1,142.2 124.3,142.1 124.1,141.8 	"/>
	<polygon fill="#FFFFFF" points="124.8,132.2 124.7,132.3 124.6,132.4 124.5,132.2 124,132.2 124,132.5 123.9,132.7 123.1,132.8 
		123.1,133.2 123.7,133.7 124,134.1 123.7,134.6 124.1,134.9 124.3,134.9 124.3,135.1 124.2,135.1 124.3,135.3 123.9,135.5 
		123.9,136.4 123.7,136.7 123.8,136.8 123.9,136.8 124.1,136.7 125,136.9 125.2,136.5 125,135.7 125.1,135.5 124.7,134.9 125,134.8 
		125.1,134.6 124.8,134.4 124.5,133.6 124.1,133.2 124.3,132.7 124.6,132.6 125.1,132.9 125.4,132.9 125.6,132 124.7,131.7 	"/>
	<polygon fill="#FFFFFF" points="125.6,139.2 125.3,139.3 125.2,139.7 124.9,140 125,140.4 125.1,140.4 125.4,140.2 125.4,139.8 
		125.4,139.6 125.6,139.5 125.7,139.3 125.6,139.3 	"/>
	<polygon fill="#FFFFFF" points="124.6,129.7 124.5,129.6 123.7,129.7 123.6,129.7 123.3,129.7 123.3,129.9 123,130.1 122.8,130 
		122.5,130.1 123.6,131.5 123.7,131.7 123.9,131.6 124.1,131.5 124,131 124.1,130.7 124.5,130 124.7,130.1 124.9,130.9 125.1,130.9 
		125.4,130.8 125.5,130.5 125.1,129.7 124.7,130 	"/>
	<polygon fill="#FFFFFF" points="124.2,141 124,141 123.9,141.2 124.2,141.3 	"/>
	<polygon fill="#FFFFFF" points="123.2,142.3 123.1,142.5 123.5,142.7 123.6,142.6 123.5,142.5 	"/>
	<polygon fill="#FFFFFF" points="120.4,139.1 120.6,139.2 120.8,138.9 120.8,138.8 120.3,138.9 	"/>
	<polygon fill="#FFFFFF" points="123.4,141.4 123.3,140.5 123.1,140.4 123.1,141 123.1,141.1 123,141.3 122.4,141.6 122.5,141.9 
		122.8,142.1 123.2,142 	"/>
	<polygon fill="#FFFFFF" points="124.7,139.1 124.5,139.1 124.3,138.6 124.5,138.1 124.5,137.7 124.1,137.8 124.1,138.6 
		123.9,138.7 123.6,138.5 123.3,138.5 123.2,139.3 123.3,139.6 123.6,139.7 125,139.5 	"/>
	<polygon fill="#FFFFFF" points="121.3,139.9 121.2,140.1 121.1,140.1 121.4,140.3 121.5,140.2 121.5,139.9 	"/>
	<polygon fill="#FFFFFF" points="133.8,137.4 133.7,137.5 133.8,137.5 	"/>
	<polygon fill="#FFFFFF" points="135.4,136 135.4,136.2 135.6,136.5 135.9,136.4 135.7,135.9 135.5,135.8 	"/>
	<polygon fill="#FFFFFF" points="134.2,140.8 134.9,139.8 134.7,139.7 134.6,139.9 134,140.3 133.9,140.6 133.9,140.7 	"/>
	
		<rect x="144" y="135.7" transform="matrix(0.2493 0.9684 -0.9684 0.2493 239.7301 -37.6428)" fill="#FFFFFF" width="0.3" height="0.3"/>
	<polygon fill="#FFFFFF" points="148.4,134.3 148.1,134.8 147.9,134.8 148.4,136 148.6,136 148.9,135.7 148.8,134.6 148.5,134.3 	
		"/>
	<polygon fill="#FFFFFF" points="144.9,134.6 145.2,134.1 145.4,134.1 145.6,134.2 145.7,134.7 145.9,134.7 146.3,134.2 
		146.5,134.6 147,134.6 148.2,134.2 148.1,133.9 148.3,133.7 149.1,133.4 149.1,133 148.9,132.9 148.7,132.9 148.8,133.3 
		148.7,133.5 148.1,133.3 147.5,133.5 147.2,133.4 147.1,133 147.5,132.8 147.9,131.8 147.1,131.7 147.1,131.6 147.2,131.5 
		147.2,131.1 146.9,131.2 146.6,131 146.4,130.4 145.9,130.6 145.9,130.7 145.9,130.8 146.1,130.8 146.2,130.9 146.1,131.5 
		146.4,131.6 146.7,132 146.7,132.5 146.4,132.7 146.9,133.3 146.2,134 145.8,133.4 145.6,133.5 145.1,133.4 145,133.6 145.2,134 
		144.7,134.1 144.5,134.5 144.7,134.6 	"/>
	<polygon fill="#FFFFFF" points="134.9,137.6 134.8,137.3 134.2,137.2 134.4,137.6 134.8,137.6 	"/>
	
		<rect x="144.8" y="135" transform="matrix(-0.9675 0.2527 -0.2527 -0.9675 319.3657 229.1829)" fill="#FFFFFF" width="0.3" height="0.3"/>
	<path fill="#FFFFFF" d="M144.4,137.1l0.6,0.2l0.2,0.7l0.2,0.2l0.1-0.2l-0.1-0.4l0.5-0.6l0.1-0.2l-0.1-0.1l0.1-0.1l0.8,0.7l-0.3,0.7
		l-0.3-0.1l-0.2,0.1l-0.2,0.4l-0.2,0.1l0.1,0.5l0.2,0.1l0.2-0.3l0.3-0.1l0.2,0.1l0.7-0.1l0.1,0.2L147,139l-0.7-0.1l0.7,0.5l0.2,0.4
		l0,0.2l0.2-0.1l-0.1-0.6l0.8-0.4l0.4-0.1l0.2,0.1l0.3,0l0-1.1l0.3-0.3l0.1-0.2l-0.4-0.6l0-0.3l-0.3-0.2l-1,0l-0.4,0.5l-0.4,0.2
		l-0.4-0.2l0.6-1.1l0.7-0.3l-0.3-0.3l-0.4-0.2l-0.4,0l-0.2,0.1l-0.1,0.1l0.1,0.5l-0.3,0.4l-0.4-0.2l-0.2-0.3l-1.1,0.3l-0.1,0.2
		l0.3,0.6l0,0.2l-0.6,0L144.4,137.1z M148.9,136.7l0.1,0.2l-0.3,0.1l-0.1-0.2L148.9,136.7z M148.2,137.6l0.3,0.3l0.1,0.4l-0.2,0.2
		l-0.3-0.8l0-0.1L148.2,137.6z M147.6,138l0.1,0.2l-0.2,0.1l-0.1-0.2L147.6,138z"/>
	<polygon fill="#FFFFFF" points="135.7,133.4 135.8,133.7 136.1,133.8 136.2,133.7 135.9,133.3 135.7,133.3 	"/>
	<polygon fill="#FFFFFF" points="136.3,127.3 136.6,127.3 136.8,127.2 136.5,126.9 136.1,126.9 136.2,127.1 	"/>
	<polygon fill="#FFFFFF" points="135.7,141 135.4,140.7 135.1,140.7 135,140.9 135.2,141.8 135,141.9 134.6,142.6 134.4,142.7 
		134.2,142.4 133.4,142.2 133.5,142.4 134,142.4 134,142.5 134.7,143.2 134.9,143.1 135.1,142.7 135.6,142.4 135.5,141.8 
		135.8,141.6 	"/>
	
		<rect x="120.8" y="137.6" transform="matrix(-0.9682 0.2502 -0.2502 -0.9682 272.4318 241.0955)" fill="#FFFFFF" width="0.3" height="0.5"/>
	<polygon fill="#FFFFFF" points="120.4,137.1 120.8,137 120.9,136.6 120.5,137 	"/>
	<polygon fill="#FFFFFF" points="119.8,141.2 119.7,141.3 120,141.3 120.1,141.1 119.8,141 	"/>
	
		<rect x="136" y="134" transform="matrix(-0.2493 -0.9684 0.9684 -0.2493 40.2075 299.3611)" fill="#FFFFFF" width="0.3" height="0.3"/>
	<polygon fill="#FFFFFF" points="135.9,139.6 135.6,139.8 135.5,139.8 135.7,140.1 136.2,140.1 136,139.7 	"/>
	<polygon fill="#FFFFFF" points="136.5,143.4 136.7,143.4 137.1,143.2 137.2,143 137.2,142.9 137.1,142.7 137,142.9 136.6,143.2 	
		"/>
	<polygon fill="#FFFFFF" points="137.4,121.3 138,121.4 138.1,121.3 137.8,121 137.7,121 137.1,121.3 137.3,121.4 	"/>
	<polygon fill="#FFFFFF" points="153.1,69.9 153,69.9 152.8,69.6 151.9,70.2 151.9,70.5 152.1,70.4 152.8,70.6 153.8,70.5 154,70.2 
		153.7,69.3 153.4,68.9 153.1,68.9 153.3,69.5 153.2,69.8 	"/>
	<polygon fill="#FFFFFF" points="153.1,77.9 152.9,77.9 152.9,78.2 153.1,78.7 153.2,78.7 153.4,78.6 153.7,78.4 153.4,78 	"/>
	<polygon fill="#FFFFFF" points="153.1,82 152.8,82.3 152.8,82.7 152.8,82.8 153.2,82.9 153.5,82.8 153.6,82.4 153.5,81.9 	"/>
	<path fill="#FFFFFF" d="M151.7,65.6l0.2,0.7l0,0.5l0.2,0.6l-0.3,0.2L152,68l0,0.4l-0.2,0.3l-0.3,0.1l-0.1-0.1l-0.2-0.6l-0.5,0.2
		l0,0.2l0.4,0.1l0.4,0.7l0.4,0l0.2-0.1l0.1-0.5l0.3-0.1l0.2-0.6l-0.1-0.3l-0.2-0.3l0.2-0.4l1-0.4l-0.2-0.5l-1.5-0.7l-0.1-0.1
		l0.4-0.4l-0.1-0.3l-0.1-0.1l-0.2,0.1l-0.2,0.3l-0.4,0.2l-0.2,0.3l-0.3-0.3l-0.2-0.1l-0.1,1.1l0.2,0L151.7,65.6z M152.9,66.4
		l0.1,0.3l-0.3,0.1l-0.1-0.3L152.9,66.4z"/>
	<polygon fill="#FFFFFF" points="153.7,68.1 153.9,68.2 154.3,68 154.3,68 154.1,67.9 153.7,68 	"/>
	<polygon fill="#FFFFFF" points="154,71.6 154.1,70.7 153.2,71.1 153.1,71.2 153.1,71.4 153.8,71.9 153.9,72.2 153.4,72.4 
		153.3,72.5 152.7,72.4 152.5,72.5 152.4,73.3 152.5,73.8 153,74.2 153.2,74.9 153.4,75.2 154,75.1 153.8,74.9 153.4,74.7 
		153.5,74.6 153.6,74.3 153.4,73.7 153.6,73.3 153.6,73.1 153.3,73.3 153.2,73.2 153.3,72.9 153.7,72.9 154.1,72.7 154.2,72.6 
		154.1,72.1 	"/>
	<polygon fill="#FFFFFF" points="152,73.6 152,73.2 151.6,73.3 151.7,73.7 	"/>
	<polygon fill="#FFFFFF" points="152.9,77.2 153.3,77 153.6,75.8 153.2,75.7 152.9,75.8 152.8,75.9 152.9,76.1 153.2,76.3 
		153.4,76.6 152.7,76.7 	"/>
	
		<rect x="151.9" y="74.4" transform="matrix(-0.9684 0.2493 -0.2493 -0.9684 317.9073 108.7221)" fill="#FFFFFF" width="0.3" height="0.2"/>
	<polygon fill="#FFFFFF" points="151.9,77.2 151.7,77.6 151.8,77.7 152.1,77.9 152.6,77.5 152.3,77.2 	"/>
	<polygon fill="#FFFFFF" points="152.2,80.5 152.1,80.7 152.5,80.4 152.5,79.9 152.2,80.2 	"/>
	<polygon fill="#FFFFFF" points="132.5,75.2 132.3,75.5 132.4,75.7 133.1,75.6 132.8,75.2 	"/>
	<polygon fill="#FFFFFF" points="150.9,75.2 151.3,75.8 151.6,75.7 151.7,75.3 151.3,74.4 150.8,74.6 150.6,74.9 150.6,75.3 
		150.5,75.4 150.7,75.4 	"/>
	<polygon fill="#FFFFFF" points="133.1,72.7 133,73.2 133.1,73.4 133.2,73.4 133.5,73.1 133.3,72.8 	"/>
	<polygon fill="#FFFFFF" points="134.1,69.1 133.1,69.5 133,69.6 133.5,70.3 134.2,70.1 134.2,69.5 134.5,69.2 	"/>
	<polygon fill="#FFFFFF" points="121.9,88.1 121.9,88.3 122.1,88.5 122.3,88.5 122.2,88 	"/>
	<polygon fill="#FFFFFF" points="151,77.8 150.6,77.2 150.2,77.2 150.5,78.2 	"/>
	
		<rect x="150.6" y="76.3" transform="matrix(0.2489 0.9685 -0.9685 0.2489 187.2359 -88.5078)" fill="#FFFFFF" width="0.2" height="0.3"/>
	<polygon fill="#FFFFFF" points="122.4,80.4 122.3,79.9 122.3,79.4 121.9,79.3 121.7,78.9 121.6,79 121.6,79.1 121.6,79.6 
		121.6,79.6 122.2,80.1 	"/>
	<polygon fill="#FFFFFF" points="122.4,82.2 122.3,82.4 122.3,82.4 	"/>
	<polygon fill="#FFFFFF" points="122,126.1 122.1,126.4 122.5,126.2 122.7,125.8 122.7,125.5 122.2,125.4 122.1,125.5 122,125.6 
		122,125.7 122.4,125.7 122.4,125.9 122.2,125.9 	"/>
	<polygon fill="#FFFFFF" points="110.6,135.1 110.6,135.3 110.9,135.4 110.9,135.2 	"/>
	<polygon fill="#FFFFFF" points="112,129.4 112.2,129.4 112.1,129.2 111.8,129.1 111.7,129.3 111.8,129.4 	"/>
	<polygon fill="#FFFFFF" points="112.1,139.5 112.2,141.3 112.2,143 112.5,144.6 112.9,146 113.2,146.2 113.8,146.8 114.6,147.2 
		115.4,147.2 116.6,146.6 117.9,145.4 118.6,143.9 118.8,143.2 118.7,142.4 117.7,140.8 117.4,140 117.5,139.1 117.6,138.5 
		117.6,138.2 117.9,137.9 117.8,137.6 118,137.5 118.5,136.8 119.9,135.8 120.4,135.1 120.7,133.6 120.7,131.9 120.7,130.2 
		120.5,128.4 120.4,128 120.2,127.7 119.9,126.8 119.4,126.1 118.7,125.7 117.8,125.5 117,125.6 116.9,125.8 116.5,125.9 
		115.5,127.3 114.7,128.3 114.4,129.1 114.2,129.4 114.2,129.6 113.9,130.2 113.9,130.6 113.6,130.8 113.7,131 113.4,131.9 
		113.3,132.5 113.2,132.8 112.9,134.4 112.7,134.8 112.7,135.6 112.3,137 112.3,137.8 	"/>
	<polygon fill="#FFFFFF" points="111.1,147 111,147.1 111.1,147.3 111.6,147.3 111.7,147.2 111.6,146.9 111.4,146.9 	"/>
	<polygon fill="#FFFFFF" points="121.9,124.5 122.3,124.1 122.3,123.9 121.7,123.8 121.6,124.2 121.7,124.4 	"/>
	<polygon fill="#FFFFFF" points="111.1,132.7 111,132.7 111.1,133 111.2,133 111.5,132.8 111.5,132.6 111.1,132.6 	"/>
	<polygon fill="#FFFFFF" points="121.2,126.9 121.3,127.2 121.9,127.2 122,127.4 121.9,127.8 122,128 122.7,127.4 122.8,127.4 
		123.1,126.8 123.8,126.5 123.7,126.3 122.9,126.5 122.3,127.1 121.5,126.7 121.3,126.8 	"/>
	<polygon fill="#FFFFFF" points="113.1,127 113.3,127.1 113.3,126.3 113.1,126.1 113.1,125.6 112.7,125.8 112.6,125.9 113.1,126.6 	
		"/>
	<polygon fill="#FFFFFF" points="121.1,125.1 121.3,125 121.4,124.3 121.1,124.1 120.7,124.1 120.6,124.3 120.6,124.4 121,124.7 	
		"/>
	<polygon fill="#FFFFFF" points="110.9,131.2 111.1,131.1 111,130.8 110.9,130.7 110.4,130.8 110.3,130.9 110.5,131.2 	"/>
	<polygon fill="#FFFFFF" points="108.1,138.1 108.5,138.2 108.6,138.2 108.4,137.8 107.9,137.3 107.9,137.5 108,137.9 	"/>
	<polygon fill="#FFFFFF" points="150.6,79.7 150.3,79.9 150.4,80.1 150.8,79.9 150.9,79.8 150.8,79.7 	"/>
	<polygon fill="#FFFFFF" points="109.3,137.9 109.4,137.7 109,137.6 109.1,138 	"/>
	<polygon fill="#FFFFFF" points="151.3,72.4 151.5,72.7 152.3,72.5 152.3,71.9 152.6,71.6 152.2,71.5 151.7,71.5 151.6,71.7 
		151.5,71.7 151.9,72.3 151.7,72.4 	"/>
	<polygon fill="#FFFFFF" points="145.4,132.6 145.5,132.7 145.7,133 145.9,132.9 146.3,132.2 145,132.3 145.1,132.5 	"/>
	<polygon fill="#FFFFFF" points="110,132.9 110.1,132.2 109.8,132.3 109.6,132.5 109.6,132.6 109.3,132.6 109.2,132.8 109.7,132.9 	
		"/>
	
		<rect x="110.3" y="129.8" transform="matrix(0.9777 0.2101 -0.2101 0.9777 29.7501 -20.3034)" fill="#FFFFFF" width="0.2" height="0.2"/>
	<polygon fill="#FFFFFF" points="110.5,136.2 110.2,136.2 110.2,136.4 110.2,136.5 110.4,136.5 	"/>
	<polygon fill="#FFFFFF" points="100.9,127.6 100.9,127.7 101.4,128 101.5,128 101.3,127.5 	"/>
	<polygon fill="#FFFFFF" points="83.6,145 83.3,145 83.2,145.1 83.3,145.3 83.5,145.2 83.6,145.4 83.6,145.5 83.6,145.7 83.9,146 
		84.2,146.1 84.1,145.5 	"/>
	<polygon fill="#FFFFFF" points="85.1,135.9 84.8,136.7 84.8,136.8 85.3,137.1 85.4,137.1 85.3,136.1 	"/>
	<polygon fill="#FFFFFF" points="83.8,141.3 83.7,141.3 83.8,141.6 83.9,141.7 84.4,141.6 84.3,141.2 84.4,141.1 84.7,140.9 
		84.4,140.6 	"/>
	<polygon fill="#FFFFFF" points="83.4,142.9 83.4,142.6 83.1,142.8 82.6,143.5 82.5,143.5 82.4,143.1 82.2,143 82,143 81.9,143.3 
		82,143.4 82.4,143.4 82.7,143.8 83,143.8 83.2,143.5 83.1,143.3 	"/>
	<polygon fill="#FFFFFF" points="83.7,146.6 83.3,147 83.3,147.1 83.9,147.4 84,146.8 83.7,146.5 	"/>
	<polygon fill="#FFFFFF" points="82.6,148.8 82.6,149.2 82.8,149.2 83,149.2 83,149 82.8,148.7 	"/>
	<polygon fill="#FFFFFF" points="82,147.5 82.4,147.6 82.3,147.4 82.1,147.3 	"/>
	<polygon fill="#FFFFFF" points="82.1,144.2 82,144.3 82.1,144.5 82.5,144.5 82.6,144.4 82.6,144.3 	"/>
	<polygon fill="#FFFFFF" points="82.2,152.2 82.5,152.2 82.6,152 82.3,151.9 	"/>
	<polygon fill="#FFFFFF" points="99.1,130.9 99.1,131.3 99.5,132.5 99.5,132.6 100,132.5 100.6,132.6 100.7,132.4 100.7,132.1 
		100.3,131.9 100.1,131.6 99.7,131.4 99.2,130.9 	"/>
	<polygon fill="#FFFFFF" points="99.7,129.7 100,129.6 100.3,129.2 100.3,128.9 99.9,128.8 99.9,129.1 99.9,129.1 100,129.2 
		99.4,129.4 	"/>
	<polygon fill="#FFFFFF" points="82.6,146.2 82.5,146.2 82.1,146.7 82.1,146.8 82.3,146.9 82.8,146.6 	"/>
	<polygon fill="#FFFFFF" points="99.4,127.7 100,128.5 100.1,128.5 100.3,128.5 100.6,128.5 100.7,128.4 100.6,128.2 100.2,128.2 
		99.9,128 99.9,127.7 100.2,127.5 99.9,127.2 99.6,127.1 99.4,127.2 	"/>
	<polygon fill="#FFFFFF" points="99.3,137.4 99.9,137.2 99.8,136 99.6,136 99.4,136.3 99.4,136.4 99.1,136.3 98.9,136.7 	"/>
	<path fill="#FFFFFF" d="M86,129.8l-0.5,0l0.1,0.4l-0.2,0l-0.1-0.5l-0.4,0l-0.4-0.3l0.1-0.8l-0.1-0.1l-0.3,0.3l-0.5,0.2l-0.2,0.4
		l0.4,0.1l0.2,0.3l0.1,0.8l-0.7,0.5l-0.4,0.1l0,0.3l0.4,0.5l-0.2,0.2l-0.1,0.1l-0.3-0.3l-0.3,0l0.1,0.3l0.1,0.1l0.9-0.1L84,132
		l-0.1-0.3l0.1,0l0-0.3l0.2-0.1l0.2,0.1l0.4,0.5l0.6,0l-0.1-0.9l0.1-0.2l0.3-0.3l0.6-0.1l-0.1-0.5L86,129.8z M84.8,130.6l0-0.4
		L85,130l0.1,0l0.1,0.7L84.8,130.6z"/>
	<polygon fill="#FFFFFF" points="85.7,133.4 85.3,133.7 85.1,134 85,134.1 84.6,134.3 84.5,134.5 84.9,134.7 85.7,134.6 85.8,134.8 
		85.9,134.8 85.9,134.3 86,133.5 85.9,133.3 	"/>
	<polygon fill="#FFFFFF" points="100.5,126.6 100.3,126.9 100.4,127 100.8,127 101.3,127.2 101.3,126.6 101.1,126.2 100.9,126.2 	
		"/>
	<path fill="#FFFFFF" d="M88,123.9l-0.4,0.1l0.1-0.2l-0.3-0.3l-0.5,0.1l-0.1,0.4l-0.8,0.4l-0.2-0.2l-0.1-0.8l-0.2-0.1l-0.2-1.1
		l-0.4-0.1l0.2,1.2l0,0.1l-0.3,0.8l0.2,0.1l0.6,0.6l-0.3,0.7l0.3,0.5l0.3-0.1l0.1,0.1l-0.3,0.3l-0.4,0l-0.3-0.1l-0.4,0l-0.2,0.1
		l-0.1,0.2l0.6,0.3l0.2,0.4l0.8-0.2l0.4,0.4l-0.1,0.1l-0.9,0.4l-0.6-0.5l-0.2-0.5l-1.2,0.2l0.4,0.4l0.1,0.3l-0.3,0.1l0,0.2l0.4,0.1
		l0.3-0.5l0.3,0l0.3,0.4l0.4,0.1l0.5,0.5l0.3,0.4l0.9-0.4l-0.1-0.2l-0.2-0.1l0-0.4l-0.5,0.1l-0.2-0.2l0.5-0.4l0.5,0.1l0.8-0.4
		l0.3-0.5l-0.1-0.1l-0.6,0l-0.4-0.8l0.1-0.3l0.1,0.4l0.3,0.2l0.7-0.2l0-0.3l0.1-0.2l-0.6-0.7L88,125l0.2-0.3l0.4-0.3l0-0.3l-0.1,0.1
		L88,123.9z M87.1,124.4l0.1,0.2l-0.2,0.1l-0.1-0.2L87.1,124.4z M87.3,125.8l-0.4,0.1l0.2-0.3l0.2-0.1l0.1,0.1L87.3,125.8z"/>
	<polygon fill="#FFFFFF" points="100.8,121.7 100.6,122.3 100.4,122.4 100,121.9 99.6,121.8 99.5,122 99.7,122.1 99.8,122.3 
		99.9,122.4 100.4,122.6 100.6,123 100.7,123.2 100.8,123.1 100.8,122.9 101.1,122.6 101,122.4 101.1,121.9 101.1,121.7 	"/>
	<polygon fill="#FFFFFF" points="82,142.1 82,141.7 81.9,141.6 81.7,141.6 81.6,141.8 81.9,142.1 	"/>
	<polygon fill="#FFFFFF" points="84.2,122.8 84.4,122.5 84.2,122.4 84,122.7 84,122.9 	"/>
	<polygon fill="#FFFFFF" points="84.3,123.6 84.3,123.4 84.1,123.3 84,123.5 84.1,123.7 	"/>
	<polygon fill="#FFFFFF" points="83.4,122.5 83.5,122.2 83.1,122 83.1,122.4 83.2,122.6 	"/>
	<polygon fill="#FFFFFF" points="84.1,125.7 84.1,125.4 83.9,125 84.2,124.3 84,124.4 83.8,124.8 83.6,124.8 83.9,125.6 	"/>
	<polygon fill="#FFFFFF" points="82,150.4 81.9,150.4 81.8,150.5 82.1,150.8 82.3,150.8 	"/>
	<polygon fill="#FFFFFF" points="81.8,120.5 81.7,120.7 81.7,120.8 81.9,120.8 82.1,120.4 82.2,120.5 82.2,120.3 	"/>
	<polygon fill="#FFFFFF" points="80.1,122.1 80.1,122.2 80.5,122.4 80.7,122.3 80.4,122 	"/>
	<polygon fill="#FFFFFF" points="87.8,123.5 88,123.5 87.9,123.1 87.5,123.1 87.6,123.5 	"/>
	<polygon fill="#FFFFFF" points="86,122.8 86.4,122.6 87,122.6 87.1,121.9 86.6,122.1 86.3,122.1 86.2,122.1 86.2,122.2 85.9,122.7 
			"/>
	<polygon fill="#FFFFFF" points="85,120.7 85.1,120.4 84.9,120.1 84.5,120.1 84.4,120.1 84.4,120.5 84.6,120.7 	"/>
	<polygon fill="#FFFFFF" points="83,135.5 83.2,135.4 83.3,134.8 82.5,134.9 82.5,135 82.6,135.4 	"/>
	<polygon fill="#FFFFFF" points="82.3,138.6 82.5,138.9 82.9,139.1 83.3,139.1 83.2,138.8 83.4,138.7 83.8,138.7 83.8,138.2 
		83.9,138 83.5,138 83,138.4 82.5,138.3 82,138 81.7,138 81.7,138.2 82.2,138.5 	"/>
	
		<rect x="82.2" y="136" transform="matrix(0.2502 0.9682 -0.9682 0.2502 193.5454 22.3111)" fill="#FFFFFF" width="0.3" height="0.2"/>
	<polygon fill="#FFFFFF" points="99.5,139.9 99.6,139.9 99.4,139.5 99.3,139.5 	"/>
	<polygon fill="#FFFFFF" points="84.7,133.2 85.3,132.3 84.5,132.1 84.4,132.2 84.5,133 84.5,133.2 	"/>
	<polygon fill="#FFFFFF" points="84.8,135.7 84.8,135.3 84.1,135.4 84,135.4 83.9,135.7 83,136.3 83,136.5 83.4,136.8 83.7,136.8 
		83.8,136.7 84.1,135.9 84.5,135.9 	"/>
	<polygon fill="#FFFFFF" points="83.3,133.7 83.3,133.3 83.1,133.3 82.7,133.4 82.7,133.5 83,133.9 	"/>
	<polygon fill="#FFFFFF" points="83.4,139.3 83.3,139.4 83.4,139.7 83.7,139.9 84.2,139.8 83.9,139.3 83.9,139.1 	"/>
	<polygon fill="#FFFFFF" points="157.5,133 157.3,133.1 157.2,133.2 157.3,133.6 157.9,133.5 158,133.3 158,133.1 	"/>
	<polygon fill="#FFFFFF" points="157.7,129.6 157.7,129.5 157.6,129.3 157.1,129 157.1,129.4 157.4,129.7 	"/>
	<polygon fill="#FFFFFF" points="157.6,130.9 158.4,131.3 158.5,131.5 158.3,131.8 158.6,132 159.1,131.8 159.2,132.1 159.5,132.3 
		159.8,132.2 159.8,131.4 159.6,131.4 159.1,131.5 158.7,131.4 158.9,131.3 159.3,131.2 159.6,131.2 159.8,130.7 160.2,130.9 
		160.6,130.8 160.5,130.3 160.2,130.1 160.2,130 159.9,129.7 160.1,129.3 160,129.1 159.8,128.9 160.3,128.5 160.2,128 160.4,127.8 
		160.8,127.9 160.9,127.7 160.8,127.5 160.2,127.5 158.6,127.9 158.4,128.2 158.2,128.3 158.2,128.4 157.9,128.5 157.8,128.6 
		157.8,128.7 158.1,128.7 158.8,129.2 159.2,129.2 159.3,129.4 159.2,129.5 158.8,129.6 158.7,130 157.9,130.4 157.3,130.5 
		157.2,130.9 156.8,131.3 156.7,131.5 156.8,131.6 	"/>
	<polygon fill="#FFFFFF" points="160.2,129.5 160.4,129.9 160.5,129.8 160.6,129.4 160.4,129.1 160.2,129.1 	"/>
	<polygon fill="#FFFFFF" points="147.8,140 147.8,140.1 148,140.2 148.3,140.1 148.4,139.5 148,139.7 	"/>
	<polygon fill="#FFFFFF" points="98.8,141.5 98.6,141.5 98.7,141.8 99.2,141.6 	"/>
	<polygon fill="#FFFFFF" points="149.3,131.4 149.8,130.7 149.6,130.6 148.9,130.9 148.8,131 148.6,131.7 148.6,132.2 148.9,132.4 
		149.2,132.4 148.9,131.8 149.3,131.6 	"/>
	<polygon fill="#FFFFFF" points="158,132.3 157.8,132.5 158.1,132.6 158.3,132.5 158.2,132.3 	"/>
	<polygon fill="#FFFFFF" points="158.6,133.6 158.8,133.5 158.9,133.2 158.5,133.3 	"/>
	<polygon fill="#FFFFFF" points="158.8,127.3 158.8,127.2 158.7,127.1 158.6,127.1 158.4,127.3 158.4,127.4 158.5,127.5 	"/>
	<polygon fill="#FFFFFF" points="149.8,138.5 149.7,138.9 149.8,139.1 149.9,139.1 150,138.7 149.9,138.5 	"/>
	<polygon fill="#FFFFFF" points="148.2,124.7 149,124.4 150.7,124.3 150.7,124.1 150.3,124.1 150,123.3 149.3,123.5 149.3,123.6 
		149.2,123.7 148,123.8 147.9,124 148.1,124.5 	"/>
	<polygon fill="#FFFFFF" points="149.1,125.6 149,125.4 148.8,125.3 148.6,125.3 148.7,125.5 149,125.6 	"/>
	<polygon fill="#FFFFFF" points="147,127.5 147,127.7 147.3,127.8 147.6,127.7 147.6,127.3 147.3,127.1 147.1,127.1 	"/>
	<polygon fill="#FFFFFF" points="146.4,126.3 146.8,126.3 147.1,126.1 147,125.9 146.6,125.7 146.6,125.8 146.4,126.1 	"/>
	<polygon fill="#FFFFFF" points="149.1,129 149.5,128.7 149.5,128.5 149.4,128.4 148.8,128.7 148.6,128.6 148.7,128.9 	"/>
	<path fill="#FFFFFF" d="M148.1,129.1l-0.5,0.1l-0.7,0.7l0.4,0.6l0.4,0.3l0.1-0.2l0.4,0l0.3,0.4l0.3-0.2l-0.3-0.5l-0.1-0.4l0.2-0.2
		l0.4,0l-0.3-0.3L148.1,129.1L148.1,129.1z M147.7,130.4l-0.2,0l-0.2-0.2l0-0.3l0-0.1l0.2,0l0.1,0.2L147.7,130.4z"/>
	<polygon fill="#FFFFFF" points="149.1,126.1 148.5,126.3 148.4,126.4 148.9,127 149.3,127 149.6,127 149.4,126.6 149.5,126.5 
		149.9,126.3 150,126.2 149.9,126.1 	"/>
	<polygon fill="#FFFFFF" points="150.4,140.8 150.5,140.6 150.3,140.4 150.3,140.5 150.1,140.8 150.1,140.9 	"/>
	<polygon fill="#FFFFFF" points="98.2,145.9 98.1,145.8 97.8,145.7 97.4,145.7 97.3,145.9 97.3,146 97.7,146.1 	"/>
	<polygon fill="#FFFFFF" points="146.1,129.3 146.2,129.2 146,128.9 145.8,129 145.9,129.2 	"/>
	<polygon fill="#FFFFFF" points="133.3,71.3 133.4,71.5 133.8,71.5 133.9,71.5 133.7,71.2 	"/>
	<polygon fill="#FFFFFF" points="101.5,124.7 101.3,124.7 101.5,125.1 101.7,125.3 101.9,125.3 102,125.2 101.9,124.9 	"/>
	<polygon fill="#FFFFFF" points="98.9,138.6 99,138.5 98.8,138.2 98.5,138.3 98.5,138.5 	"/>
	<polygon fill="#FFFFFF" points="100.5,129.6 100.5,129.8 100.8,130.1 100.9,130.1 100.9,129.9 100.8,129.5 	"/>
	<polygon fill="#FFFFFF" points="102.5,121.7 102.3,121.8 102.1,122 102,122 101.7,122.6 101.8,122.7 101.9,122.5 102.5,122 	"/>
	<polygon fill="#FFFFFF" points="99.9,140.2 99.8,140.3 100.1,140.4 100.2,140.1 99.9,140 	"/>
	<polygon fill="#FFFFFF" points="100.3,133.7 100.1,133.3 99.9,134.2 99.8,134.3 99.2,134.2 99.2,134.5 99.6,134.4 100,134.8 
		99.8,135 99.3,135 99.6,135.3 100.1,135.4 100.5,135.1 100.7,134.8 100.7,134.5 100.2,134.5 100.1,134.3 100.9,134.1 100.8,133.9 	
		"/>
	<polygon fill="#FFFFFF" points="100.1,137.9 100.1,138 100.4,138.3 100.6,138.2 100.6,138.1 100.6,137.7 	"/>
	
		<rect x="100.5" y="135.4" transform="matrix(-0.2485 -0.9686 0.9686 -0.2485 -5.6857 266.7419)" fill="#FFFFFF" width="0.3" height="0.3"/>
	<polygon fill="#FFFFFF" points="101.7,124.1 101.6,124 101.6,123.9 101.2,124.2 101.3,124.3 	"/>
	<polygon fill="#FFFFFF" points="99.4,119.2 99.5,119.2 99.6,118.2 99.3,118.3 98.7,118.2 99.1,118.9 	"/>
	<polygon fill="#FFFFFF" points="100,118 100.2,118 100.2,117.6 100.6,117.4 100.7,117 99.8,117.4 99.6,117.6 99.5,117.7 99.8,118 	
		"/>
	<polygon fill="#FFFFFF" points="98.8,132 99,131.8 99,131.7 98.8,131.7 	"/>
	<polygon fill="#FFFFFF" points="98.9,133.9 99,133.5 98.6,133.6 98.7,133.9 	"/>
	<polygon fill="#FFFFFF" points="101.6,119.3 102.2,118.6 102,117.9 101.6,117.8 101.4,117.9 101.3,118.2 101.3,118.8 101.6,119.2 	
		"/>
	<polygon fill="#FFFFFF" points="101.9,119.9 101.9,120 102.3,120.1 102.7,120 102.9,119.9 102.8,119.7 102.4,119.5 102,119.7 	"/>
	<polygon fill="#FFFFFF" points="100.5,119.8 100.7,120.3 100.6,120.5 100.1,120.5 99.9,120.8 99.8,121.2 100,121.2 100.3,120.9 
		100.8,120.8 101.3,121.1 101.4,120.9 101.6,120.8 101.5,120.4 101,119.9 100.9,119.6 100.6,119.8 	"/>
	<polygon fill="#FFFFFF" points="102.1,123.7 102.2,124 102.5,124.1 102.6,124.1 102.5,123.6 	"/>
	<polygon fill="#FFFFFF" points="41.2,111.8 41.2,112 41.4,111.9 41.5,111.5 41.3,111.4 	"/>
	
		<rect x="64.3" y="74.1" transform="matrix(0.2489 0.9685 -0.9685 0.2489 120.2197 -6.6494)" fill="#FFFFFF" width="0.2" height="0.2"/>
	<polygon fill="#FFFFFF" points="63.2,86 63.4,85.9 63.7,85.6 63.8,85.3 63.3,85.2 62.9,85.5 62.8,85.7 62.8,85.8 	"/>
	<polygon fill="#FFFFFF" points="62.6,92.3 62.8,92.2 63.2,91.1 62.8,91 62.6,91 62.4,91.7 62.5,92.2 	"/>
	<polygon fill="#FFFFFF" points="63,89.4 63.8,88.2 63.2,88.2 63.1,88.3 63.1,88.5 62.7,89.3 62.7,89.4 	"/>
	<polygon fill="#FFFFFF" points="64.1,92.1 64.2,92 64,91.7 63.9,91.8 63.8,92.1 63.9,92.3 	"/>
	<path fill="#FFFFFF" d="M63.9,93.3l-1.4-0.1l0,0.3l0.6,0.9l0,0.1l-0.5,0.1l0,0.3l0.2,0.1l0.9-0.3l0.4,0l0.1-0.4l0.4-0.4l0-0.3
		l-0.2-0.2L63.9,93.3z M63.2,94.2l-0.1-0.4l0-0.1l0.2,0l0.3,0.5L63.2,94.2z"/>
	<polygon fill="#FFFFFF" points="59.9,99.2 60.1,99.3 60.1,99.2 60,98.8 59.8,98.7 	"/>
	<polygon fill="#FFFFFF" points="60.7,97.1 60.7,96.9 60.2,96.8 60,96.9 59.8,97.6 59.7,97.7 59.9,97.7 60.7,98.1 61.1,98.3 
		61.3,97.9 61.2,97.5 60.8,97.8 60.6,97.9 60.3,97.5 60.4,97.3 	"/>
	<polygon fill="#FFFFFF" points="63.6,95.3 63.3,95.1 62.8,95.5 62.8,95.9 63,96.1 63.2,96.1 	"/>
	
		<rect x="59.4" y="72.6" transform="matrix(0.2511 0.968 -0.968 0.2511 115.0167 -3.1849)" fill="#FFFFFF" width="0.4" height="0.2"/>
	<polygon fill="#FFFFFF" points="59.4,99.2 59.4,99 59.3,98.7 59.2,98.8 59.1,98.9 59.3,99.2 	"/>
	<polygon fill="#FFFFFF" points="61.1,96 61.4,95.9 61.6,96.1 61.4,96.2 61.4,96.4 61.6,96.7 62.1,96.7 62.4,96.5 62.1,96.2 
		62.2,95.1 62,95 62,95.2 61.1,95.9 	"/>
	<polygon fill="#FFFFFF" points="60,95.4 59.8,95.8 59.8,96 59.6,96.2 60.4,96 60.5,95.7 60.7,95.6 61.1,95.6 60.7,95.2 60.3,95.2 	
		"/>
	<polygon fill="#FFFFFF" points="59,71.9 59.1,72.2 59.5,72.1 59.4,71.9 	"/>
	<polygon fill="#FFFFFF" points="58.2,71.3 58.4,71.4 58.7,71.7 58.8,71.6 58.8,71.4 58.9,70.9 59.1,70.7 59.8,70.8 60.4,70.4 
		60.3,70 59.8,70.4 59.4,70.4 59,70.1 58.9,69.9 58.4,70 58.5,70.2 58.4,70.6 58.2,70.7 58.2,70.6 58.2,70.7 58.4,71 	"/>
	<polygon fill="#FFFFFF" points="61.4,74.7 61.5,74.7 61.6,74.5 61.4,74.2 61.1,74 60.8,74 60.8,74.4 61,74.7 	"/>
	<polygon fill="#FFFFFF" points="61.4,93.5 61.1,93.6 61,94 61.2,94.1 61.4,94.1 	"/>
	<polygon fill="#FFFFFF" points="61.3,72.9 61.6,72.6 61.5,72.4 61.2,72.3 61,72.5 61,72.6 61,72.8 	"/>
	
		<rect x="55.7" y="108.4" transform="matrix(-0.2527 -0.9675 0.9675 -0.2527 -35.0439 190.0391)" fill="#FFFFFF" width="0.3" height="0.3"/>
	<polygon fill="#FFFFFF" points="58.6,99.4 58.3,99.4 58.3,99.6 58.7,99.5 	"/>
	<polygon fill="#FFFFFF" points="56.8,110.2 57,110.5 57.2,110.5 57.2,110.2 	"/>
	<polygon fill="#FFFFFF" points="57.3,68.8 57.4,68.8 57.4,68.4 57.1,68.1 56.8,68.1 56.7,68.3 57,68.6 	"/>
	<polygon fill="#FFFFFF" points="81,93.2 81.3,93.8 81.6,93.7 81.7,93.4 81.3,92.5 80.9,92.7 80.7,92.9 80.6,93.3 80.6,93.5 
		80.7,93.5 	"/>
	<polygon fill="#FFFFFF" points="81.1,95.8 80.6,95.3 80.3,95.3 80.5,96.3 	"/>
	<path fill="#FFFFFF" d="M81.7,83.7l0.2,0.7l0,0.5l0.2,0.6l-0.3,0.2l0.2,0.4l0,0.4l-0.2,0.3l-0.3,0.1l-0.1-0.1l-0.2-0.6l-0.5,0.2
		l0,0.2l0.4,0.1l0.4,0.7l0.4,0l0.2-0.1l0.1-0.5l0.3-0.1l0.2-0.6l-0.1-0.3l-0.2-0.3l0.2-0.4l1-0.4l-0.2-0.5l-1.5-0.7L82,83.5l0.4-0.4
		l-0.1-0.3l-0.1-0.1L82,82.7l-0.2,0.3l-0.4,0.2l-0.2,0.3l-0.3-0.3l-0.2-0.1l-0.1,1.1l0.2,0L81.7,83.7z M82.9,84.5l0.1,0.3l-0.3,0.1
		l-0.1-0.3L82.9,84.5z"/>
	<polygon fill="#FFFFFF" points="84,89.7 84.1,88.7 83.2,89.1 83.2,89.2 83.2,89.5 83.8,90 83.9,90.3 83.5,90.4 83.3,90.6 
		82.7,90.4 82.6,90.6 82.4,91.4 82.5,91.8 83.1,92.3 83.2,93 83.5,93.3 84,93.2 83.8,92.9 83.4,92.7 83.5,92.6 83.7,92.3 83.4,91.7 
		83.7,91.4 83.7,91.2 83.3,91.4 83.2,91.3 83.3,91 83.8,91 84.1,90.8 84.2,90.7 84.2,90.1 	"/>
	<polygon fill="#FFFFFF" points="83.1,95.9 83,96 82.9,96.3 83.1,96.7 83.2,96.8 83.5,96.7 83.7,96.4 83.5,96.1 	"/>
	<polygon fill="#FFFFFF" points="83.7,86.2 83.9,86.3 84.3,86.1 84.3,86 84.2,86 83.7,86.1 	"/>
	
		<rect x="80.6" y="94.4" transform="matrix(0.2489 0.9685 -0.9685 0.2489 152.1804 -7.1676)" fill="#FFFFFF" width="0.2" height="0.3"/>
	<polygon fill="#FFFFFF" points="59.2,105.3 59.5,105.2 59.4,105 59.1,104.9 59,104.8 58.7,105.1 58.5,105.3 58.3,105.3 58.2,104.8 
		57.9,104.8 57.8,105 58,105.4 58.3,105.6 58.4,105.6 58.1,106.3 58.3,106.4 58.9,107 59.4,107.1 59.5,106.9 59.3,106.5 58.7,105.9 
		59.1,105.7 	"/>
	<polygon fill="#FFFFFF" points="58.7,107.2 58.6,107.5 58.9,107.9 59.1,107.9 59.2,107.8 59,107.4 	"/>
	<polygon fill="#FFFFFF" points="59.3,103.7 59,103.3 58.6,103.2 58.3,103 58.1,103 58.4,103.8 58.2,103.7 57.9,103.8 57.8,104.2 
		57.9,104.4 58.3,104.1 58.5,103.7 58.8,103.9 58.8,104 59,104.1 58.9,104.2 59.5,104.5 59.9,104.4 60.4,105.1 60.7,104.8 
		60.9,104.1 59.9,104.3 	"/>
	<path fill="#FFFFFF" d="M63.1,98.9l-0.2-0.1l-0.4,0.1l-0.1-0.2l0.6-0.2l-0.1-0.2l0.1-0.4l0.5-0.4l-0.2-0.8L63,96.6l-0.2,0.5l0,0.1
		l-0.3,0.2l-0.1,0.4L62,97.9l0.1,0.5l-0.3,0l-0.1,0.1L61.6,99l-0.4-0.2L61,98.9L61,99l0.1,0.3l0.5,0.4L61,100l0,0.5l-0.2,0.3
		l-0.3-0.2l-0.5-1l-0.4,0.2l-0.4,0l0.2,0.5l-0.2,0.8l-0.2,0.1l-0.3-0.2l-0.4-0.7l0-0.2l-0.6,0.1l0.5,1l0,0.4l0.5,0.3l0.2,1l-0.1,0.2
		l0.2,0.1l0.2,0.2l0.6-0.4l0.3-0.1l0.4,1l0.6-0.1l0.1,0.1l0.2,0l0.1-0.1l-0.1-0.2l-0.4,0l-0.4-0.3l0.3-0.7l0.2,0.1l0.4-0.1l0.1,0.1
		l-0.2,0.3l0.4,0l0.5-0.2l0.3-0.5l-0.4-0.1l-0.1-0.1l0.2-0.2l0.1-0.4l0.2-0.1l-0.1-0.3l-0.7-0.2l-0.1,0.6l-0.2,0.1l-0.1-0.1l0-0.4
		l0.4-0.7l0.4,0l0.4-0.2l0.1-0.8l0.1-0.1l0.4,0.8l0.2,0.3l0.4-0.2l-0.5-0.6L63.1,98.9z M59.7,100.1l0.3,0l0.1,0.1l-0.2,0.2l-0.2-0.1
		l0-0.1L59.7,100.1z M60.6,101.8l-0.5,0.1l-0.2,0.2l0.1,0.3l-0.7-0.1l0-0.2l0.4-0.6l-0.1-0.3l0.2-0.1l0.4,0.3l0.4,0l0.1,0.2
		L60.6,101.8z"/>
	<polygon fill="#FFFFFF" points="57.5,108.1 56.9,108.1 57,108.4 57.4,108.4 57.5,108.2 	"/>
	<polygon fill="#FFFFFF" points="58.5,109.4 58.5,109.5 58.4,109.7 58.3,109.8 58.5,109.8 58.7,109.7 58.6,109.4 	"/>
	<polygon fill="#FFFFFF" points="57.8,106.3 57.8,106 57.4,106.1 57.3,106.7 57.5,106.8 	"/>
	<polygon fill="#FFFFFF" points="57.6,108.2 57.7,108.4 57.5,108.8 57.5,108.9 57.9,108.9 58.1,108.6 58,108.2 	"/>
	<polygon fill="#FFFFFF" points="47.6,113 47.8,112.9 47.9,113 49.6,112.8 50.8,112.5 51.7,111.7 52,111.6 52.2,111.2 52.8,110.9 
		53.1,110.3 53.5,109.8 54.4,108.4 55.3,107 55.9,105.6 56.1,105.5 56.1,105.1 56.5,104.6 56.6,103.8 56.9,103.5 57.2,102.3 
		56.7,101.5 55.3,100.5 54.4,100 54.3,99.7 54.1,99.7 53.5,99.2 52.1,98.1 50.9,96.9 50.7,96.4 50,95.8 49.8,95.5 49.5,95.2 
		48.7,93.7 47.9,92.2 47.2,90.6 46.6,89 46,87.2 45.6,85.7 45.7,85.1 45.4,84.8 45.2,84.2 44.6,84 44.2,84.4 44.2,84.5 44.1,84.6 
		43.8,86.3 43.2,87.8 43.2,88.7 43.1,88.9 42.9,90.5 42.8,90.7 42.6,92 42.5,92.1 42.4,93.7 42.3,95.3 42.3,96.6 42.1,100.1 
		42.1,101.8 42.3,103.5 42.2,103.5 42.3,104 42.2,104.1 42.3,104.6 42.3,104.7 42.6,106.3 43.1,108.1 43.6,109.6 43.7,109.9 
		44.8,111.4 45.4,112.1 46.9,112.8 	"/>
	<polygon fill="#FFFFFF" points="46.1,83.5 46.3,83.5 46.3,83.1 46,83.1 	"/>
	
		<rect x="39.7" y="87.2" transform="matrix(0.248 0.9688 -0.9688 0.248 114.5471 27.008)" fill="#FFFFFF" width="0.4" height="0.2"/>
	
		<rect x="38.6" y="103.8" transform="matrix(-0.2502 -0.9682 0.9682 -0.2502 -52.125 167.4152)" fill="#FFFFFF" width="0.3" height="0.2"/>
	<polygon fill="#FFFFFF" points="40.4,94.4 40.2,94.4 40.3,95 40.6,95.1 40.7,95.1 	"/>
	<polygon fill="#FFFFFF" points="40.5,88.9 40.5,88.3 40.4,88.2 40.3,88.2 40.3,88.8 40.3,89 	"/>
	<polygon fill="#FFFFFF" points="41,101 41,100.9 40.8,100.8 40.6,101 40.6,101.2 40.8,101.2 	"/>
	<polygon fill="#FFFFFF" points="39.3,96.8 39,97 39,97.1 39.3,97.2 39.5,97 39.5,96.9 	"/>
	<polygon fill="#FFFFFF" points="43,82.2 42.9,82 42.2,82 42.2,81.9 42.3,81.9 42.3,81.7 42.3,81.5 42.1,81.3 42,81.4 41.8,82 
		42.9,82.2 	"/>
	<polygon fill="#FFFFFF" points="40.8,89.7 41,89.3 40.5,89.3 40.2,89.5 40.1,89.5 40.5,89.9 	"/>
	<polygon fill="#FFFFFF" points="40.6,97.2 40.8,97.5 41,97.5 40.9,97.1 	"/>
	<polygon fill="#FFFFFF" points="83.1,100 82.9,100.4 82.8,100.7 82.9,100.8 83.2,101 83.5,100.8 83.6,100.5 83.5,100 	"/>
	
		<rect x="43.3" y="113.5" transform="matrix(-0.2493 -0.9684 0.9684 -0.2493 -55.8112 184.0534)" fill="#FFFFFF" width="0.3" height="0.3"/>
	<polygon fill="#FFFFFF" points="42.4,84.3 42.5,83.7 42.1,83.7 41.4,83.3 41.2,82.9 41,82.9 40.9,83.4 41,83.5 41.6,83.8 41.7,84 
		41.6,84.3 41.6,84.5 41.9,84.7 42.1,84.6 	"/>
	<path fill="#FFFFFF" d="M210.3,79.9C195.6,22.9,137.5-11.3,80.6,3.4C23.7,18.1-10.5,76.2,4.2,133.1c14.7,56.9,72.8,91.1,129.7,76.4
		C190.8,194.8,225,136.8,210.3,79.9z M103.4,161.2l0.1,0.6l0,1.8l-0.1,1.6l-0.4,0.7l-0.8,0.6l-0.4,0l-0.8-0.2l-0.4-0.2l-0.4-0.1
		l-1.5-0.7l-1.3-1.1l-0.6-0.6l-0.2-0.1l-0.4-0.6l-24.7,6.4l-0.7-2.6l24-6.2l-0.3-0.8l-0.2-1.7l-0.1-1.8l-0.1-0.4l0.2-1.5l0.1-0.9
		l-0.1-0.3l0.2,0l-0.1-0.2l0.1,0l-0.1-0.7l0.3-1.6l0.2-1.8l0.1-0.4l-0.1-0.3l0.2,0l-0.1-0.2l0.1,0l-0.1-0.3l0.1,0l-0.1-0.3l0.1,0
		l-0.1-0.2l0.2-0.3l0-0.6l0.1-0.1l0.1-1.7l0.1,0l-0.1-0.2l0.1,0l0-0.9l0.1-0.1l-0.1-0.7l0.2-1.4l0-0.2l0.2,0l-0.1-0.3l0.1,0
		l-0.1-0.2l0.1,0l-0.1-0.3l0.2,0l-0.1-0.2l0.1,0l0-0.8l0.1-0.1l-0.1-0.2l0.1,0l-0.1-0.3l0.1,0l-0.1-0.3l0.1,0l-0.1-0.2l0.2,0
		l-0.1-0.3l0.1,0l-0.1-0.2l0.1,0l0-1.6l0-0.2l0.1,0l-0.1-0.2l0.2,0l0.1-1.7l0.1-0.9l0.1-0.1l0-0.9l0.2-1.3l0.2-1.7l0.2-1.6l0-1.4
		l0.1,0l-0.1-0.2l0.1,0l0.2-1.7l0.2-1.7l-0.1-1l-0.3-0.8l-0.6-0.5l-0.8,0l-0.2,0.2l-0.8,0.3l-1.2,0.9l-0.3,0.4l-0.4,0.1l-0.1,0.3
		l-0.3,0.1l-0.3,0.5l-0.3,0.3l-0.2,0.4l-0.4,0.1l-1,1.4l-1,1.4l-0.9,1.2l0,0.3l-0.9,1.5l-0.2,0.4l0,0.3l-0.2,0.2l0.1,0.3l-0.1,0
		l-0.1,1.3l-0.3,1.7l-0.2,1.7L87,136l-0.3,1.6l-0.2,1.7l-0.2,1.8l-0.3,1.5l0.1,0.9l-0.1,1.4l-0.1,0.1l-0.2,1.5l0,0.6l-0.1,0.2
		l-0.2,1.7l-0.2,1.8l-0.2,1.7l-0.2,1.4l-0.2,1.8l-0.3,1.7l-0.3,1.5l0,0.4l-0.3,0.3l-0.1,0.4l-0.5,0.4l-0.8,0.3l-2,0.5l-1.6,0.2
		l-0.8-0.4l-0.4-0.6l0.2-1.5l0-0.6l0.1,0l0-0.9l0.2-0.4l0.1-0.8l0.2-0.5l0-0.3l0.1,0l0-1.6l0.3-1.7l0.1-1.8l0.3-1.7l0.2-1.8l0.4-1.5
		l0.2-1.4L80,142l0.2-1.7l0.2-1.6l0.1-1.4l0-0.5l0.1-0.3l0.2-1.8l0.2-1.7l0.3-1.7l0.1-1.8l0.2-1.2l0.1-0.8l0.2-0.2l0.2-1.7l0-0.5
		l-0.3-0.9l-0.6-0.1l-1.4,0.8l-0.1,0.2l-0.5,0.3l-1.5,1l-0.7,0.4l-0.6,0.6l-1.4,0.9l-1.4,1l-1.2,1l-0.2,0.4l-0.3,0.1l-0.2,0.4
		l-0.2,0.1l-0.3,0.3l-0.2,0.1l-0.2,0.4l-0.2,0.1l-0.9,1.4l-0.6,0.8l0.1,0.3l-0.2,0.2l0,0.5l-0.3,0.7l-0.1,1.4l0.2,0.9l0.3,0.8
		l0.6,0.9l0.1,0l0.1,0.3l0.3,0.2l0.1,0l0.6,0.6l0.8,0.3l0.6,0.1l0.2-0.1l0.8,0.3l0.5,0.4l0.4,1.6l0,0.4l0.1,0.1l0.2,0.8l0,1
		l-0.2,0.3l-0.7,0.5l-0.4,0.1l-0.6-0.2l-1.8,0.1l-1.5-0.3l-1.3-0.6l-1.3-0.8l-0.1-0.2l-0.8-0.4l-0.2-0.3l-0.2-0.1l-0.2-0.3l-0.2-0.1
		l-0.3-0.5l-0.3-0.1l-0.6-1.5l-0.2-0.5l-0.1-0.1l-0.1-0.4l-0.1-0.1l-0.1-0.9l-0.5-1.8l0-0.4l0.1-0.1l-0.1-0.4l0.1-0.3l0.2-1.8
		l0.2-0.7l0.1-0.1l0-0.5l0.2-0.2l-0.1-0.2l0.9-1.4l0.9-1.5l0.9-1.4l0.9-0.9l1.4-0.9l0.5-0.7l0.5-0.4l0.1-0.3l0.7-0.4l0.9-0.7
		l0.1-0.2l0.4-0.1l0.9-0.8l1.4-0.8l1.4-0.9l1.3-1.1l1.3-0.8l1.4-1l1.4-0.9l1.4-1l0.7-0.4l0.4,0l0.4,0.1l1.3,1.2l1.2,1.3l1.2,1.2
		l0,0.2l0.8,0.5l0.4,0l0.9-0.6l0.9-1.4l0.1-0.2l0.5-0.5l0.2-0.4l0.2-0.1l1-1.2l0.2-0.1l1.2-1.2l0.2-0.1l0.6-0.6l0.3-0.2l0.2-0.3
		l1.3-0.7l1.6-0.6l0.9-0.3l0.9-0.1l0.6,0.1l1.5,0.9l0.6,0.5l0.8,0.5l0.3,0.3l0.6,1.1l0,1l-0.1,0.2l0.4,1.7l-0.2,1l0,1.8l-0.1,1.2
		l-0.2,1.7l0,0.8l-0.1,0.4l0,0.8l-0.3,1.7l-0.1,0.9l-0.1,0.2l-0.2,1.3l0,1.3l-0.3,1.2l0,0.1l-0.4,0.8l0,0.8l0.2,0.8l-0.2,0.8
		l0.1,0.2l-0.1,0.2l-0.2,1.7l-0.1,1.5l-0.1,0.6l-0.2,0.4l-0.1,1.6l0,0.5l-0.1,0.3l-0.2,1.7l0,0.2l-0.2,0.2l-0.1,1.6l0,1.2l-0.1,0
		l0,0.9l-0.2,1.6l0,0.3l-0.3,1.4l-0.1,1.8l-0.1,0.1l-0.1,0.8l0.1,1.6l0.2,1.1l0.3,1l72.6-18.7l0.7,2.6L103.4,161.2z M106.1,136.3
		l0.3-1.7l0.2-0.8l0.1-0.1l0-0.3l0.2-0.4l0.1-0.6l0.4-0.9l0.2-0.3l-0.1-0.3l0.2-0.4l0.2-1.1l0.4-0.6l0.2-0.8l1-1.5l0.4-0.8l0.6-0.6
		l0.3-0.6l0.2-0.1l0-0.2l0.3-0.1l0-0.1l0.2-0.1l0.2-0.3l0.7-0.4l1.4-1.1l1.4-0.5l1.8-0.5l0.8,0l0.2,0.1l0.9-0.2l1.7,0l1.5,0.6
		l1.6,0.9l0,0.1l0.4,0.2l0.9,1.3l0.4,0.8l0.1,0.1l0.6,1.5l0.5,1.8l0.2,0.9l0.2,1.5l-0.1,0.1l0.2,1.5l-0.1,0.5l0.1,0.8l-0.1,1.7
		l0,0.2l-0.4,1.7l-0.2,0.9l0,0.9l0.2,0.3l0.5,0.2l0.3,0l0.9-0.5l1.1-0.9l0.6-0.6l0.9-1.1l0.4-0.7l0-0.1l0-1l0.2-0.8l-0.1-0.3l0.2,0
		l-0.1-0.2l0.1,0l-0.1-0.3l0.1,0l-0.1-0.2l0.1,0l-0.1-0.3l0.2,0l-0.1-0.2l0.1,0l0-1.6l0.2-1.6l0.1-1.7l0.2-0.4l0.1-1.6l0.1-0.4
		l0.1-0.1l0.2-1.6l0.2-1.7l0.3-1.6l0.2-1.4l0.5-0.7l3.3-1l1.2-0.2l0.8,0.4l0.1,0.3l0.1,0l0.1,0.9l-0.2,1.6l-0.1,1.2l-0.2,0.3
		l0.1,0.4l-0.4,1.7l-0.1,0.3l0.1,1.3l-0.1,0.1l-0.3,1.6l0,0.5l-0.2,0.4l0,0.6l-0.1,0.2l-0.1,1.6l-0.2,1.7l-0.2,1.7l-0.2,1.7
		l-0.2,1.7l-0.1,1.7l-0.2,0.7l0.2,1l0.3,0.8l0.6,0.5l0.4-0.1l0.9-0.1l1.1-1.2l0.5-0.8l0.5-0.5l0.7-1.4l0-0.3l0.3-0.7l0.7-1.1
		l0.1-0.4l0.3-0.8l0.1-1.2l0.6-1.4l0.2-0.7l0.2-0.2l-0.1-0.3l0.1,0l0.1-1.7l0.1-1.7l0.1-0.3l0.1-1.4l0.2-1.7l0.2-1.7l0.3-1.7
		l0.2-1.7l0-0.2l0.1-0.1l0-0.3l0.1-0.2l-0.1-1.6l0.4-0.9l0.6-0.4l1.8-0.6l1.8-0.3l0.9-0.1l0.6,0.1l0.4,0.5l0,1.7l-0.2,1.7l-0.1,0.2
		l0.1,0.2l-0.2,0l0,0.7l-0.2,0.4l0,0.8l-0.1,0.2l0.1,0.7l-0.2,0.4l0,0.4l-0.1,0.2l-0.2,1.6l-0.1,1.6l-0.1,0.8l-0.2,0.8l0,0.6
		l-0.2,0.4l0,0.6l-0.2,0.8l-0.2,0.4l-0.1,1.4l-0.2,1.8l-0.1,0.6l-0.1,0.2l0.1,0.7l-0.1,0.1l0.1,0.3l-0.1,0l0,0.3l0.3,1.8l0,0.4
		l0.1,0.4l0.5,0.5l0.5,0.2l1.2-0.3l1.2-1.3l1-1.4l0.4-0.8l0.3-0.7l0-0.5l-0.7-1.5l-0.1-0.4l0.1-0.4l-0.1-0.8l0.1-0.4l0.2-0.4
		l-0.1-0.2l0.4-0.8l0.3-0.2l0.1-0.2l1.5-0.9l0.6-0.6l0.4-0.7l0.3-1.7l0.2-1.8l0.1-0.2l0.1-1.6l0.2-1.7l0.1-0.9l-0.1-0.7l0.1-1.6
		l0-1.9l0.3-1.7l0.2-0.3l0.3-0.1l0-0.3l1.5-0.6l0.6,0l0.3-0.2l1-0.2l0.6,0.2l0.1,0.1l0.3,0.8l-0.2,1.7l0.1,1.7l-0.1,1.7l0,0.9
		l-0.1,0.1l0.1,1.3l-0.2,0.7l-0.1,1.8l-0.1,0.6l-0.2,0.6l-0.3,1.6l-0.2,1.7l-0.4,1.4l-0.1,0.4l0,0.4l-0.1,0.9l-0.3,0.7l0.1,0.5
		l0.5,0.4l0.8,0.1l1-0.3l0.6-0.3l1.4-1.2l0.6-0.6l0.2-0.4l0.3-0.1l0-0.1l0.5-0.6l0.1-0.2l0.3-0.3l0.3-0.9l0.4-0.4l0-0.3l0.4-0.8
		l0.6-1.8l0.2-0.3l0.3-0.2l0.9,0.2l0.8,0.3l0.6,0.6l0.1,0.9l-0.1,0.2l0,0.3l-0.2,0.3l0,0.4l-0.3,0.6l0,0.3l-0.2,0.3l0,0.2l-0.4,0.5
		l0.1,0.2l-1,1.5l-1,1.4l-1,1.3l-0.5,0.7l-0.6,0.3l-0.5,0.5l-0.7,0.3l-0.6,0.4l-0.8,0.3l-0.8,0l-0.7,0.4L163,134l-1.7,0l-1,0.1
		l-0.5,0.5l-1,1.5l-0.9,1.5l-0.4,0.5l0,0.1l-1.2,1.3l-1.4,1.2l-0.6,0.5l-0.7,0.3l-0.7,0.5l-1.7,0.5l-1.7,0.3l-0.7,0l-0.9-0.2
		l-0.2,0.1l-1.4-0.7l-0.1-0.2l-0.3,0l-0.1-0.3l-0.1,0l-0.1-0.3l-0.1,0l-0.4-0.6l-0.6-0.3l-0.5,0.1l-0.9,1.4l-1.1,1.3l-0.4,0.3
		l-0.2,0.4l-0.4,0.3l-0.2,0.3l-1.4,0.7l-1.5,0.8l-0.8,0.2l-1.8-0.1l-0.8-0.1l-1-0.5l-0.8-0.7l-0.2-0.3l-0.3-0.2l-0.6-1.5l-0.6-1.7
		l0-0.1l-1.2,0.7l-0.7,0.6l-0.6,0.2l0,0.2l-1.6,0.5l-1.7,0.4l-0.4,0.2l-0.9,1.5l-0.5,0.7l-0.4,0.8l-0.3,0.1l-0.2,0.3l-0.5,0.4
		l-1.1,1.3l-1.2,1l-1.5,1l-1.6,0.7l-1.7,0.2l-1.7,0.2l-0.1,0l-0.1-0.1l-0.8,0l-1.5-0.6l-1.6-0.9l-0.2-0.3l-0.1,0l-0.3-0.4l-0.3-0.1
		l-0.7-1.4l-0.7-1.7l-0.4-0.6l-0.3-1.7l-0.2-1.8l-0.1-0.9l0.2-1.2l0.1-0.1l-0.4-1.4l0.2-0.8L106.1,136.3z M40.4,122.4l-0.7-2.6
		l5.7-1.5l-0.6-0.1l-0.4-0.2l-0.8-0.2l-0.4-0.3l-0.2,0.1l-0.8-0.4l-1.2-0.9l-0.1-0.2l-0.1,0l-0.2-0.3l-0.4-0.2l-0.2-0.4l-0.4-0.2
		l-0.1-0.4l-1-1.3l-0.2-0.4l-0.2,0l-0.5-1.6l-0.5-1.6l-0.6-1.6l-0.2-0.4l-0.2-1.7l-0.3-1.7l-0.1-0.9L36,102l-0.1-0.6l0.1-0.7
		l-0.2-1.8l0-0.9l0.2-0.8l0.1-1L36,95.4l0.1-0.1l-0.1-0.9l0.1-0.1l0.1-0.4l0-0.8l0.4-1.7l0-0.8l0.2-0.6l0-0.5l0.6-1.4l-0.1-0.3
		l0.1,0l0.1-1.5l0.2-0.8l0.4-0.7l0-0.2l0.1-0.1l0-0.3l0.1,0l-0.1-0.3l0.1,0l-0.1-0.2l0.2,0l-0.1-0.3l0.1,0l-0.1-0.2l0.1,0l0.2-0.7
		l0.2-0.3l0-0.4l0.2-0.2l0.7-1.5l0.3-0.8l0.5-0.6l0.8-1.5l0.9-1.4l0.5-0.4l0.4-0.7l0.2-0.1l0-0.1l0.3-0.1l0-0.1L44,74l0-0.2l0.3-0.1
		l0-0.1l0.2-0.1l0-0.1l0.3-0.1l0-0.1l0.2-0.1l0.5-0.6l0.3-0.3l0.2-0.4l0.3-0.1l0.8-1.5l1-1.4l1.3-1.2l0.7-0.5l0.2-0.3l1.6-0.8
		l0.8-0.3l0.2,0l0.1-0.2l0.5-0.2l1.8-0.2l1.6,0.1l1.2,0.2l1,0.4l1.5,0.8l1.2,1.1l1.1,1.3l0.8,1.6l0.8,1.5l0.4,0.8l0.5,1.7l0.6,3.4
		l0.2,1.1L66,79.7l0.4,1.7l-0.1,0.1l0.1,0.3l-0.1,1.4l0.2,1.7v1.7l0,0.8l-0.2,0.9L66.2,90L66,91.6l-0.2,1.7l-0.1,1.1l-0.1,0.1
		l-0.2,1l-0.3,1.6L65,97.9l0.1,0.4l0.6,0.4l0.7,0l0.8-0.4l1.5-0.9l0.6-0.4l0-0.1l0.2-0.1l0-0.1l0.3-0.1l1.1-1.3l0.1-0.4l0.3-0.3
		l0.2-0.4l0.5-0.6l-0.5-0.4l-0.1-0.8l0.3-1.5l0.1-0.2l0.2-0.2l0-0.4l0.1-0.1l0.3-1.4l0.1-0.2l0-0.3l0.2,0l0-0.7l0.2-0.4l0-0.3
		l0.4-1.8l0.3-1.5l-0.2-0.8l-0.5-0.9l-0.3-0.2l-0.5-0.7l-0.3-0.2l-0.3-0.7L70.9,78l0-0.8l0.6-1.7l0.8-1.5l0.3-0.3l0.2-0.6l1-0.5
		l0.8-0.2l0.8,0.2l1.2,0.5l0.4,0.2l0.5,0.7l-0.1,1.7l-0.1,0.8l-0.3,0.7l0,0.9l0.7,0.6l0.7,0.3l0.9,0.3l1.6,0.9l0.3,0.2l0.4,0
		l0.3,0.3l0.3,0l1.4,1l1.3,1.1l0.5,0.8l0.3,0.9l-0.1,0.2l0.3,0.8l0.1,1.5l-0.5,2.9l-0.2,1.5l0.1,0.3l-0.1,0l0.1,0.2l-0.2,0.3
		L85.1,94l0.1,0.4l-0.1,0L85,96.1L84.9,97l0.1,0.8l0.3,1l0.3,0.5l0.7,0.4l0.8-0.1l1-1l0.3-0.2l0.8-1.6l0.5-1.4l0.1-0.2l0-0.1
		l0.7-1.6l0.2-0.4l0-0.2l0.5-1.1l0-0.4l0.2-0.2l-0.1-0.2l0.1-0.2l0-0.2v-1.7l0-1.6l0.1-0.3l-0.1-0.6l0.2,0l0-0.9l0.2-1.6l0.1-1
		l0.5-1.7l0.4-1.8l0.1-1l0.7-1.5l0.9-1.5l0.2-0.4l0-0.5l1-1.3l0.2-0.1l0.5-0.7l1-0.8l1.5-0.9l0.7-0.3l1.7-0.2l0.9-0.1l1.6,0.5
		l1.4,0.8l0.6,0.6l0.5,0l0.4-0.2l0.2-0.3l0.3-1.7l0.2-1.7l0.2-1.7l0.2-1.6l0.1-1.7l0.2-1.6l0.1-0.2l0-0.9l0.2-1.3l0.3-0.7l0.5-0.7
		l0.7-0.3l1.9-0.4l1.3-0.2l0.1-0.2l0.8,0l0.4,0.3l0.4,0.8l-0.1,1.5l-0.4,1.7l0,1.2l-0.3,1.1l0.1,0.9l-0.4,1.4l0,0.5l-0.1,0.2
		l-0.4,3.2l-0.3,1.8l0,0.3l-0.2,0.6l0,1.8l-0.1,0.7l-0.3,0.9l-0.2,1.7l-0.3,1.7l-0.1,1.7l-0.3,1.7l-0.2,0.9l-0.1,1.6l-0.2,1.4
		l-0.2,1.5l-0.1,0.9l-0.2,0.4l0,1.6l0.3,1.9l0.4,0.6l0.5,0.3l0.1,0.1l1-0.3l0.8-0.5l0.6-0.6l0.9-1.3l0.4-0.7l0-0.5l0.3-0.3l0.3-0.7
		l0.6-0.9l0-0.3l0.3-0.4l0.6-1.4l0.4-1.6l0.2-0.6l-0.1-0.3l0.1-0.6l0-0.8l0.1-0.4l-0.1-1.2l0.1-0.1l-0.1-0.6l0.2-1.4l0.3-1.6
		l0.2-0.7l0-0.2l0.2-1l0.3-0.3l0-0.4l0.5-1.5l0.3-0.7l0-0.4l0.9-1.4l0.5-0.6l0.8-1.5l0.3-0.6l0.5-0.3l0.8-0.9l0.4-0.3l0.2-0.4l1.4-1
		l0.7-0.5l1.6-0.5l0.4-0.1l0.5-0.3l1.4-0.3l0.9,0.2l0.8,0l0.7,0.4l0.7,0l0.6,0.5l0.8,0.5l0.4,0.1l0.2,0.3l0.3,0l0.1,0.3l0.2,0.1
		l0.6,1.5l0.6,1.6l0.1,0.9l-0.1,0.9l0.1,0.8l-0.2,1.6l-0.2,0.3l-0.1,1l-0.2,0.1l0,0.6l-0.1,0.1l-0.2,0.6l0,0.2l-0.9,1.6l-0.7,1.1
		l-0.3,0.2l-1,1l-0.4,0.4l-0.2,0.1l0,0.1l-0.8,0.4l-0.6,0.5l-1.2,0.5l-0.8,0.4l-1.7,0.4l-1.6,0.6l-1.2,0.3l-0.3,0.3l-0.5,0.8
		l0.2,1.7l0.2,1l0.3,0.8l0.2,0.1l0.5,0.6l0.4,0.3l1.7,0.7l0.7,0.1l1-0.1l1.8-0.5l1.4-0.7l1.4-1l0.8-0.5l1.1-1.2l0.1-0.2l0.2-0.1
		l0.1-0.3l0.2-0.1l0.5-0.9l0.2-0.1l0.4-0.8l0.4-0.4l0.3-0.8l0.5-0.7l0.3-0.8l0.8-1.5l0.7-1.6l0.3-0.8l0-0.2l0.1-0.1l-0.5-0.4
		l-0.1-0.8l0.3-1.5l0-0.2l0.2-0.2l0-0.4l0.1-0.1l0.3-1.4l0.1-0.2l0-0.3l0.2,0l0-0.7l0.2-0.4l0-0.3l0.4-1.8l0.3-1.5l-0.1-0.8
		l-0.5-0.9l-0.3-0.2l-0.4-0.7l-0.3-0.2l-0.3-0.7l-0.4-1.9l0-0.8l0.6-1.7l0.8-1.5l0.3-0.3l0.2-0.6l1-0.5l0.8-0.2l0.8,0.2l1.2,0.5
		l0.4,0.2l0.5,0.7l-0.1,1.7l-0.1,0.8l-0.3,0.7l0,0.9l0.7,0.6l0.7,0.3l0.9,0.3l1.6,0.9l0.3,0.2l0.4,0l0.3,0.3l0.3,0l1.4,1l1.3,1.1
		l0.5,0.8l0.3,0.9l0,0.2l0.3,0.8l0.1,1.5l-0.5,2.9l-0.2,1.5l0.1,0.3l-0.1,0l0.1,0.2l-0.2,0.3l-0.2,1.8l0.1,0.4l-0.1,0L155,78
		l-0.1,0.9l0.1,0.8l0.3,1l0.3,0.5l0.7,0.4l0.8-0.1l1-1l0.3-0.2l0.8-1.6l0.5-1.4l0.1-0.2l0-0.1l0.7-1.6l0.2-0.4l0-0.2l0.5-1.1l0-0.4
		l0.2-0.2l-0.1-0.2l0.3-0.7l0.4-1.7l0.4-1.4l0.5-0.7l0.7-0.2l1,0.3l0.3,0.2l0.3,0.4l0.2,0.7l0,0.5l-0.3,0.7l0,0.2l-0.4,0.8l0,0.3
		l-0.2,0l0.1,0.3l-0.1,0l0.1,0.2l-0.2,0l0,0.6l-0.8,1.6l0,0.3l-0.5,1.6l-0.4,0.8l-0.2,0.8l-0.5,0.7l0,0.4l-0.4,0.5l-0.4,1.2
		l-0.6,0.6l-1,1.4l-1.3,1.3l-0.6,0.6l-0.7,0.3l-0.8,0.2l-1.6,0.7l-1.5,0l-0.9-0.2l-0.4-0.2l-0.2-0.2l-0.9-0.3l-0.1-0.2l-0.4-0.4
		l-0.1-0.2l-0.2-0.2l-0.9-1.5l-0.4-1.6l0-1.7l-0.1-1.8l0.1-1.7l0-0.8l0.2-0.9l0.2-1l0.2-1.7l0.3-1.7l0.1-1.6l-0.2-0.9l-0.5-0.7
		l-1.5-0.9l-0.8-0.2l-0.4,0.2l-0.3,0.2l-0.4,0.8l0,0.8l-0.1,0.2l0.1,0.3l-0.1,0.1l-0.1,1.4l-0.2,0.3l0,0.3l-0.2,0.8l-0.3,1.8
		l-0.1,0.2l0,0.3l-0.1,0l-0.1,0.4l0.4,0.3l0.3,0.5l0,0.6l-0.5,1.6l-0.4,0.8l-0.2,0.7l-0.3,0.3l0,0.8l-0.4,0.7l0.1,0.3l-0.8,1.5
		l-0.9,1.5L141,85l-0.9,1.4l-0.5,0.6l-0.3,0.1l-1.1,1.3l-0.4,0.4l-0.2,0.4l-0.2,0.1l0,0.2l-0.6,0.3l-0.3,0.3l-0.9,0.4l0,0.1
		l-1.4,0.9l-1.4,0.7l-0.3,0.1l0,0.2l-1.5,0.6l-1.7,0.3l-1.2,0.2l-0.2-0.1l-1.8,0.1l-1.8-0.3l-1.3-0.5l-0.3-0.2l-0.1-0.2l-0.4-0.1
		l-0.1-0.2l-0.4-0.1l-0.3-0.5l-0.3-0.1l-0.7-1.4l-0.3-0.8l-0.2,0.3l0,0.4l-0.3,0.3l0,0.4l-0.3,0.4l0,0.4l-0.5,0.7l-0.2,0.6l-0.3,0.1
		l-0.2,0.5l-1.1,1.3l-0.4,0.3l-0.1,0.2l-0.3,0.2l-0.2,0.3l-0.5,0.3L115,96l-0.3,0.2l-0.1,0.3l-0.9,0.5l-0.8,0.2l-0.2,0.2l-0.4,0.1
		l-0.3,0.3l-0.4,0.2l-1.8,0.2l-1.2,0l0-0.1l-0.4-0.2l-0.3,0.1l-0.3-0.3l-0.8-0.4l-0.4-0.3l-0.2-0.3l-0.2-0.1l-0.1-0.3l-0.6-0.2
		L105,96l-1,1.3l-0.1,0.2l-0.3,0.2l-1,1.3l-1.2,1.2l-1.6,0.7l-1.6,0.5l-1,0.1l-0.1-0.1l-0.2,0.1l0-0.1l-0.3,0.1l0-0.1l-0.5,0
		l-0.1-0.2l-0.3,0l-1.4-0.8l-1-1.3l-0.1,0l-0.3-0.5l-0.5-0.6l-0.1-0.3l0,0.4l-0.4,0.5l-0.4,1.2l-0.6,0.6l-1,1.4l-1.3,1.3l-0.6,0.6
		l-0.7,0.3l-0.8,0.2l-1.6,0.7l-1.5,0l-0.9-0.2l-0.4-0.2l-0.2-0.2l-0.9-0.3l-0.1-0.2l-0.4-0.4l-0.1-0.2l-0.2-0.2l-0.9-1.5L79,99.7
		l0-1.7l-0.1-1.8l0.1-1.7l0-0.8l0.2-0.9l0.2-1l0.2-1.7l0.3-1.7l0.1-1.6l-0.2-0.9l-0.4-0.7l-1.5-0.9L77,84l-0.4,0.2l-0.3,0.2
		l-0.4,0.8l0,0.8l-0.1,0.2l0.1,0.3l-0.1,0.1l-0.1,1.4l-0.2,0.3l0,0.3l-0.2,0.8l-0.3,1.8l-0.1,0.2l0,0.3l-0.1,0L74.6,92l0,0l0.1,0.2
		l0.2,0.1l0.2,0.3l0.1,0.9L75,94.1l-0.1,0.6L74,96.2l-0.6,1l-0.2,0l-0.6,0.6l0,0.1l-0.1,0.1l-0.2,0.4l-0.5,0.4l-0.2,0.4l-0.7,0.6
		l-1.2,0.8l-0.1,0.2l-1.5,0.9l-0.4,0.1l-0.1,0.1l-0.4,0.1l-0.1,0.1l-1.7,0.3l-1.7,0.6l-0.3,0.2l-0.4,0.8l-0.2,0.8l-0.3,0.6l0,0.2
		l-0.6,1.6l-0.7,1.1l0.1,0.2l-1.1,1.8l-0.2,0.1l0,0.1l-0.3,0.2l0,0.3l-0.3,0.2l-0.2,0.4l-0.4,0.2l-0.2,0.6l-0.3,0.2l-0.7,1.2
		l-0.7,0.5l-0.1,0.2L56,115l-0.3,0.4l-0.2,0.1l-0.5,0.4l122.5-31.6l0.7,2.6L40.4,122.4z"/>
	<polygon fill="#FFFFFF" points="41.5,84.7 41.1,84.6 41.2,85 41.4,84.9 	"/>
	<polygon fill="#FFFFFF" points="40.2,92.3 39.9,92.3 39.6,92.4 39.6,92.5 39.7,92.7 39.9,92.8 40.2,92.5 	"/>
	<polygon fill="#FFFFFF" points="40.5,105.6 40.2,106.4 40.2,106.5 41.2,105.9 41.1,105.7 	"/>
	<polygon fill="#FFFFFF" points="133.9,75.2 133.9,75.4 133.9,75.5 134.3,75.4 134.3,75.2 134.3,74.9 	"/>
	<polygon fill="#FFFFFF" points="50.9,71.4 51.2,71.3 51.2,71.1 51.4,71.1 51.2,71.4 51.4,71.5 51.7,71.1 52.2,71.2 52.8,71.1 
		52.9,71 52.9,70.7 52.4,70.9 51.9,70.6 51.8,69.9 50.6,70.2 50.6,71.1 	"/>
	<polygon fill="#FFFFFF" points="52.9,70.4 53.5,70.4 53.7,69.8 53.9,69.7 54.2,69.3 54.1,68.9 54,68.9 52.9,69.9 52.9,70.2 	"/>
	<polygon fill="#FFFFFF" points="53.5,68.3 53.4,68.4 53.6,68.3 53.7,67.9 53.6,67.7 53.3,67.5 53.3,67.7 53.5,68.1 	"/>
	
		<rect x="52.1" y="68.9" transform="matrix(0.2493 0.9684 -0.9684 0.2493 106.0167 1.252)" fill="#FFFFFF" width="0.3" height="0.2"/>
	<polygon fill="#FFFFFF" points="55.7,67.8 55.8,67.7 56.1,67.9 56.3,67.7 56.2,67.5 56.1,67.4 55.4,67.5 55.5,67.7 	"/>
	
		<rect x="54.3" y="70.2" transform="matrix(0.2502 0.9682 -0.9682 0.2502 108.905 2.837700e-02)" fill="#FFFFFF" width="0.3" height="0.2"/>
	<polygon fill="#FFFFFF" points="52.7,72.9 51.6,74.2 51,75.2 50.9,75.7 50.8,75.7 50.9,75.9 50.7,75.9 50.7,76.3 50.3,77.9 
		50.1,79.3 50.1,80.8 50.3,82.5 50.4,83 50.3,83.1 50.6,84.5 50.7,85.3 51.1,86.9 51.2,87.3 51.5,87.6 52,89.3 52.2,90 52.3,89.9 
		53,91.4 53.9,92.8 54.4,93.7 54.8,94.1 54.8,94.3 54.9,94.3 55,94.5 55.2,94.5 55.2,94.7 56,95.2 56.4,95.8 57.6,96.7 58.4,96.8 
		59,95.7 59,95.6 59.5,93.2 59.6,93 59.6,91.2 59.8,90.1 59.8,88.6 59.8,88 60,87 59.9,86.2 60.1,84.6 60,84 60.1,83.9 59.9,83 
		59.9,81.3 59.7,79.6 59.4,77.9 59,76.2 58.7,75.1 58.5,74.9 58.2,74.1 58.1,73.8 57.2,73 57,72.7 55.9,72.2 55.4,72.2 55.1,72.1 
		53.4,72.5 	"/>
	<polygon fill="#FFFFFF" points="50.3,70.4 50.4,70.3 50.4,70.1 50,69.9 50,70.2 50.1,70.4 	"/>
	<polygon fill="#FFFFFF" points="55.2,98.6 55.2,98.8 55.5,98.7 55.6,98.4 55.4,98.3 55.2,98.4 	"/>
	<polygon fill="#FFFFFF" points="49.5,71.2 49.1,71.2 49,71.4 49.5,71.4 	"/>
	<polygon fill="#FFFFFF" points="49.2,72.4 49.4,72.6 49.7,72.6 49.9,72.8 50.2,72.6 50.5,72.1 50.9,72.1 50.9,71.9 50.6,71.7 
		50,71.1 49.9,71.1 50,71.6 49.8,72 49.7,72.1 49.5,72 49.2,72.2 	"/>
	<polygon fill="#FFFFFF" points="48.9,81.6 48.7,81.5 48.7,81.9 48.9,82.1 49.2,82 	"/>
	<polygon fill="#FFFFFF" points="48.8,83.6 49,83.7 49.2,83.5 49.1,83.4 48.8,83.4 	"/>
	<polygon fill="#FFFFFF" points="47.8,84.4 47.3,84.4 47.1,84.7 47.1,84.8 47.3,84.7 47.9,84.8 48.1,84.7 	"/>
	<polygon fill="#FFFFFF" points="48.1,85.9 48.4,86 48.5,86 48.4,85.7 48.4,85.1 47.9,85.1 47.9,85.6 	"/>
	<polygon fill="#FFFFFF" points="46.7,82 46.3,82.1 46.3,82.4 46.2,82.6 46,83 46.5,82.9 46.8,83 46.8,82.6 46.9,82.1 	"/>
	<path fill="#FFFFFF" d="M43.4,81.8l0.1-0.1l0.6,0.1l0.6-0.1l0.5,0.1l0.2-0.4l0.8-0.3l0.1-0.1l0.7,0.3l0.1,0.2l0.4,0.2l0.3,0.3
		l0.2-0.2l-0.1-0.7l0.2-0.2l0-0.2l-0.2-0.1l0-0.2l0.1,0l0.2,0l0.4,0.5l0.2-0.1l0.1-0.3l-0.2-0.6l-0.2,0.1l-0.1,0.4l-0.1,0L48,80.3
		l0.3-0.2l-0.1-0.4l0.2-0.1l-0.1-0.3L48.2,79l0.3-0.3l-0.1-0.3l-0.3,0.1l-0.1-0.1l0.1-0.4l-0.1-0.1l-0.3,0l-0.2-0.3l0.9,0l0.2,0.1
		l0.1-0.1L48.4,77l0.5-0.4l-0.1-0.5l0.1-0.1l0.5-0.2l0.3-0.5l0.2-0.1l-0.2-0.4l-0.3-0.3l-0.9-0.3l-0.2,0.1L48.1,74l0.2-0.2l0.4-0.1
		l0.5,0.3l0.3,0l0.1-0.2l0.2-0.2l-0.3-0.2l0-0.1l0.4-0.2l0-0.2l-1.6,0l-0.7,0.4l-0.1,0.2l0.2,0.3l0.1,0.8L47.2,75L47,75l-0.1-0.1
		L46.7,75l-0.2,0.3l-0.1,0l-0.7-0.6l-0.5,0.5l-0.4,0.1l0.1,0.2l-0.1,0.4l0,0.4l0.4-0.3l0.2,0.2l-0.3,0.3l0,0.2l0.4,0.4l-0.7,0.6
		l0.1,0l0.1,0.2L45,78.3l-0.4-0.1L44.4,78l0.2-0.3l0-0.2l-0.4-0.1l-0.4,0.2l-0.1,0.1l-0.1,0.4l0.2,0.3l0.2-0.3l0.3-0.1l0.2,0.2
		L44,79l-0.1,0.1l0.1,0.2l0.5-0.3l0.2,0.2l-0.1,0.5l0.3,0.2l-0.2,0.3l0.6,0.1l0.2-0.1l0.1-0.2l-0.2-0.5l0.2-0.2l0.3,0.2l0.1,0.3
		l-0.2,0.4l-0.2,0.2l-0.7,0.2l-0.2-0.1l-0.1,0.2L44,81.4l-0.2-0.2l0.5-0.9l-0.5-0.5l-0.4-0.1l0,0.7l0.2,0.4L43.3,81l-0.5,0l0.1,0.3
		L43.4,81.8z M47.5,76.4l0.7-0.3L48,75.5l0-0.1l0.4,0.1l0.2,0.4l-0.1,0.4l-0.2,0.1L48.1,77l-0.2,0.1l-0.4-0.5L47.5,76.4z M47.5,78.3
		l0.2,0.2l0,0.1l-1.1,0.3l-0.1-0.3l0.1-0.4l0.4-0.1L47.5,78.3z M46.2,76.7l0.7-0.4l0.1,0l0.1,0.1l-0.6,0.6l-0.4,0.1L46.2,76.7z
		 M45.7,78.5l-0.2-0.2l0-0.1l0.4-0.1l0.1,0.4L45.7,78.5z"/>
	<polygon fill="#FFFFFF" points="46.9,74.5 46.6,74.2 46.5,74.4 46.8,74.5 	"/>
	<polygon fill="#FFFFFF" points="39.3,96.1 39.3,96.2 39.7,96.2 39.9,96.1 39.9,95.9 39.4,95.9 	"/>
	<polygon fill="#FFFFFF" points="108.5,93.8 108.5,94.2 108.5,94.3 108.8,94.2 108.8,94 108.6,93.8 	"/>
	<polygon fill="#FFFFFF" points="107.9,92.8 107.7,93.1 107.8,93.2 108.1,93.2 108.2,93.1 108.1,92.9 	"/>
	
		<rect x="107.9" y="91.7" transform="matrix(0.9673 -0.2536 0.2536 0.9673 -19.7429 30.3929)" fill="#FFFFFF" width="0.3" height="0.2"/>
	<polygon fill="#FFFFFF" points="109.2,89.7 109.3,90 109.7,89.9 109.5,89.7 	"/>
	<polygon fill="#FFFFFF" points="108.9,86 109.2,85.9 109.5,85.5 109.4,85.1 109,84.7 109,85.6 108.9,86 108.8,86 108.7,85.9 
		108,85.6 107.7,85.3 107.3,85.3 107.2,85.7 107.8,85.9 107.9,86.1 108.3,85.9 108.4,86.1 107.9,86.5 108,86.9 107.8,87.7 107.8,88 
		108.3,88 108,87.3 108.8,87.1 109.2,87.1 109.6,87.3 109.6,87.1 109.7,86.5 109.3,86.4 	"/>
	<polygon fill="#FFFFFF" points="106.7,93.4 106.7,93.6 107.2,93.7 107.3,93.6 107.3,93.5 106.9,93.3 	"/>
	<polygon fill="#FFFFFF" points="107.4,90 107.2,90 107.1,90.2 107.1,90.2 107.4,90.3 	"/>
	<polygon fill="#FFFFFF" points="109.6,80.9 109.3,80.6 108.9,80.6 108.6,80.9 108.6,81.3 108.6,81.4 108.8,81.4 109.1,81.1 
		109.7,81.1 	"/>
	<polygon fill="#FFFFFF" points="106.7,89.4 106.5,89.4 106.5,89.8 106.7,89.8 106.9,89.8 	"/>
	<polygon fill="#FFFFFF" points="107.3,91.6 107,91.9 106.9,91.9 107,92.2 107.4,92.3 107.8,91.7 	"/>
	<polygon fill="#FFFFFF" points="108.6,84 108.8,84.2 108.9,84.2 109.1,84.2 109.4,84.4 109.6,84.4 109.6,84.2 109.2,84.1 
		108.7,83.8 	"/>
	<polygon fill="#FFFFFF" points="112,62.6 112.1,62.6 112.5,62.6 112.6,62.5 112.5,62.3 112.1,62.3 111.6,62.3 111.7,62.5 	"/>
	<polygon fill="#FFFFFF" points="111.6,67.7 111.8,67.9 112,67.9 112.1,67.4 111.9,67.4 	"/>
	<polygon fill="#FFFFFF" points="111.1,64.6 111.4,65 111.7,65 111.6,64.4 111.2,64.6 	"/>
	<polygon fill="#FFFFFF" points="110.3,80.6 110,80.7 110.2,81.1 110.6,81.1 110.7,81 110.6,80.8 	"/>
	<polygon fill="#FFFFFF" points="106.8,82.3 107.4,82.3 107.5,82.5 107.7,82.6 108.2,81.9 108.3,81.5 108.2,81.4 107.9,81.6 
		107.8,81.6 107.2,81.5 106.7,81.9 	"/>
	<polygon fill="#FFFFFF" points="121.8,78.6 122.1,78.8 121.8,78.1 121.6,78 121.5,78.2 121.5,78.4 	"/>
	<polygon fill="#FFFFFF" points="108.1,79.4 107.6,79.5 107.4,79.8 107.2,79.9 107.2,80.4 107.2,80.5 107.5,80.4 107.7,80.2 
		107.9,80.1 108.4,80.6 108.6,80.7 108.6,80.5 108.8,80.4 108.8,80.3 108.2,79.8 	"/>
	<polygon fill="#FFFFFF" points="110.6,62.4 110.8,62.7 111.1,62.7 111.2,62.7 111,62.4 	"/>
	
		<rect x="110" y="83.3" transform="matrix(-0.2511 -0.968 0.968 -0.2511 57.0677 210.9529)" fill="#FFFFFF" width="0.3" height="0.3"/>
	<polygon fill="#FFFFFF" points="110,82.2 109.7,82 109.2,82 109.2,82.4 109.3,82.8 109.5,82.9 109.6,82.9 109.7,82.7 110.3,82.5 	
		"/>
	<polygon fill="#FFFFFF" points="135.1,68.4 135.2,68.2 135.7,67.9 135.3,66.3 134.9,66.3 134.9,66.5 135.1,67.1 135.1,67.5 
		135,67.5 134.4,67.2 134.4,67.6 134.6,68 	"/>
	<polygon fill="#FFFFFF" points="132.2,67.3 132.8,66.7 133.2,66.7 133.5,67.4 134.1,67.3 134.1,67.1 134.1,66.8 134.1,66.6 
		133.9,66.3 133.5,66 133.3,65.4 132.6,65.5 132.9,66 132.9,66.2 132.7,66.3 132.5,66.7 132.2,66.5 132.3,66.3 132.3,66.2 
		131.9,66.5 131.7,66.8 131.9,67.3 	"/>
	<polygon fill="#FFFFFF" points="135.6,69.1 135.7,69.1 135.8,69 136.4,69.1 136.4,68.8 136.2,68.5 135.6,68.9 	"/>
	<polygon fill="#FFFFFF" points="131.2,65.2 130.9,64.9 130.6,64.9 130.4,65 130.3,65.1 130.6,65.4 	"/>
	<polygon fill="#FFFFFF" points="135.2,71.3 135,70.7 135,70.4 134.9,70.1 134.5,70.1 134.2,70.4 134.1,71.1 134.1,71.2 134.7,71.6 
		135.2,71.6 	"/>
	<polygon fill="#FFFFFF" points="122.8,75.8 122.9,75.7 122.7,75.3 122.5,75 122.2,74.9 122.5,75.7 	"/>
	<polygon fill="#FFFFFF" points="136,69.4 136.1,69.7 135.8,70 135.7,70.2 135.8,70.4 136.3,69.8 136.4,69.2 136.1,69.4 	"/>
	
		<rect x="135" y="74.4" transform="matrix(-0.2489 -0.9685 0.9685 -0.2489 96.387 224.1425)" fill="#FFFFFF" width="0.2" height="0.5"/>
	<polygon fill="#FFFFFF" points="136.1,71.4 135.9,71.5 136,71.7 136.2,71.8 136.3,71.8 136.3,71.6 	"/>
	
		<rect x="130.7" y="66.5" transform="matrix(-0.9682 0.2502 -0.2502 -0.9682 274.2383 98.3424)" fill="#FFFFFF" width="0.3" height="0.2"/>
	<polygon fill="#FFFFFF" points="123.5,81.1 123.7,81.2 123.9,81 123.9,80.8 123.5,81 	"/>
	<polygon fill="#FFFFFF" points="123.8,72.9 123.6,72.9 123.5,73.1 123.5,73.2 123.8,73.2 	"/>
	<polygon fill="#FFFFFF" points="123,85.3 123,85.2 122.5,84.9 122.2,85 122.7,85.6 122.8,86.1 123.3,86.2 123.7,86.1 123.4,85.8 
		123.2,85.7 	"/>
	<polygon fill="#FFFFFF" points="123.3,77 123.1,76.9 123,77.1 123,77.2 123.3,77.2 	"/>
	<polygon fill="#FFFFFF" points="128.7,67.6 128.8,67.4 128.4,67.4 128.2,67.6 128.2,67.8 	"/>
	<polygon fill="#FFFFFF" points="126.1,68.6 126.4,68.3 126.7,68.6 126.6,69.1 126.8,69 126.9,68.6 127,68.6 126.5,67.8 126.1,68 
		125.7,68.2 125.7,68.4 125.7,68.5 	"/>
	<polygon fill="#FFFFFF" points="124.2,72.6 124.2,72.1 124,72.2 123.9,72.4 124,72.7 	"/>
	<polygon fill="#FFFFFF" points="126.7,78.5 128.3,78 128.5,77.9 128.8,77.6 129.2,77.3 130.2,76.2 130.4,76.2 131.3,74.5 
		131.5,73.3 131.9,71.6 132,69.9 131.7,68.7 130.9,68.2 130.8,68.2 130.6,68.2 129.3,68.5 128.4,69.1 127.3,70.5 127,70.9 
		126.7,71.8 126.5,72.1 126,73.7 125.5,75.3 125.5,75.7 125.4,75.7 125.5,76 125.4,76 125.4,76.2 125.2,77 125.1,78.2 125.8,78.6 	
		"/>
	<polygon fill="#FFFFFF" points="82.9,95.2 83.3,95 83.6,93.9 83.2,93.8 82.9,93.9 82.8,94 82.9,94.2 83.2,94.3 83.4,94.6 
		82.7,94.8 	"/>
	<polygon fill="#FFFFFF" points="124.3,71.4 124.4,71 124.5,70.9 125.1,70.7 125,70.5 124.7,70.5 124.6,70.5 124.1,71.3 124.1,71.5 
			"/>
	<polygon fill="#FFFFFF" points="96.9,76.4 96.7,76.3 96.7,76.4 96.6,76.6 97,76.6 	"/>
	<polygon fill="#FFFFFF" points="96.4,97.2 96.5,97.4 96.7,97.6 96.9,97.6 97,97.5 96.7,97.2 	"/>
	<polygon fill="#FFFFFF" points="97.7,92.8 97.9,93.6 98.4,94.9 99.2,95.2 100,95.2 100.8,94.9 101.3,94.6 101.4,94.5 102.5,93.2 
		103.5,92 104.3,90.5 104.4,90.3 104.3,90.1 104.6,89.8 104.5,89.5 104.7,89.3 104.8,89 104.9,87.6 105,87.3 105,86.4 105.2,85.5 
		105.2,84.6 105.3,83.6 105.5,83.2 105.4,82.9 105.5,82.4 105.5,82 105.7,81.7 105.7,80.9 106.1,79.2 106.1,78.2 105.7,77.4 
		105.3,76.7 104.7,76.1 103.4,75.3 102.6,75.3 101.7,75.7 101.5,76.1 101.3,76.1 101.3,76.4 100.8,76.6 100.5,77.2 100.2,77.4 
		99.8,78 99.9,78.2 99.4,79 98.7,80.6 98.6,81.2 98.4,81.6 98.4,82 98.2,82.8 97.9,84.6 97.6,85.9 97.4,87.7 97.4,89.3 97.4,91.1 	
		"/>
	<polygon fill="#FFFFFF" points="95.8,96.5 95.9,96.6 96.5,96.6 96.5,96.2 96.4,96 96.2,96 95.9,96.2 	"/>
	<polygon fill="#FFFFFF" points="101.9,74.3 101.7,74 101.5,73.9 101.5,74.3 101.7,74.4 	"/>
	<polygon fill="#FFFFFF" points="111,60.9 111.1,60.8 111,60.5 110.9,60.5 110.7,60.2 110.6,60.2 110.7,60.7 	"/>
	<polygon fill="#FFFFFF" points="96.1,80.1 96,80 96,79.4 95.8,79.4 95.7,79.6 95.7,79.7 95.3,80.1 95.8,80.2 	"/>
	<polygon fill="#FFFFFF" points="99.5,74.9 99.6,74.7 99.2,74.6 99.3,75 	"/>
	
		<rect x="98" y="77.6" transform="matrix(0.2532 0.9674 -0.9674 0.2532 148.4088 -36.869)" fill="#FFFFFF" width="0.2" height="0.3"/>
	<polygon fill="#FFFFFF" points="82.2,98.6 82.2,98.7 82.5,98.5 82.5,98 82.2,98.2 	"/>
	<polygon fill="#FFFFFF" points="82,91.7 82,91.3 81.7,91.4 81.8,91.8 	"/>
	<polygon fill="#FFFFFF" points="81.9,95.3 81.8,95.7 81.8,95.8 82.1,96 82.6,95.5 82.3,95.2 	"/>
	<polygon fill="#FFFFFF" points="80.6,97.7 80.3,97.9 80.4,98.2 80.9,98 80.9,97.9 80.8,97.7 	"/>
	<polygon fill="#FFFFFF" points="81.3,90.5 81.5,90.8 82.3,90.6 82.4,90 82.6,89.6 82.2,89.5 81.7,89.6 81.6,89.7 81.5,89.8 
		81.9,90.3 81.8,90.5 	"/>
	<polygon fill="#FFFFFF" points="83.2,88 83.1,88 82.9,87.7 82,88.3 82,88.5 82.1,88.4 82.9,88.7 83.8,88.6 84,88.3 83.7,87.4 
		83.5,87 83.1,87 83.4,87.6 83.3,87.9 	"/>
	
		<rect x="82" y="92.5" transform="matrix(-0.968 0.2511 -0.2511 -0.968 184.8042 161.5481)" fill="#FFFFFF" width="0.3" height="0.2"/>
	<polygon fill="#FFFFFF" points="106.1,89.1 106.1,89.3 106.3,89.2 106.8,89.2 106.8,89 107.2,88.8 107.2,88.7 106.8,88.6 
		106.4,88.7 106.1,89 	"/>
	<polygon fill="#FFFFFF" points="106.6,84.2 107,84.4 107,84.6 107.5,84.8 107.5,83.1 107.2,83 106.5,83.2 106.6,84.1 	"/>
	<polygon fill="#FFFFFF" points="108.5,72.5 108.3,73 108.4,73.1 108.8,73 108.9,72.6 108.8,72.4 109,72.3 109.4,71.8 109.7,71.7 
		110,72.2 110.3,72.1 110.5,71.9 110.6,71.4 109.7,71.2 109.5,71.2 109,71.9 108.6,72 108.2,72 108.3,72.4 	"/>
	<polygon fill="#FFFFFF" points="107,88.3 107.1,88.2 107,87.9 106.8,87.9 106.9,88.3 	"/>
	<polygon fill="#FFFFFF" points="110.2,70.3 110.3,70.7 110.6,70.7 110.5,70.3 	"/>
	<polygon fill="#FFFFFF" points="106.8,86.2 106.6,86.7 106.7,86.8 106.9,86.8 107,86.6 	"/>
	<polygon fill="#FFFFFF" points="110.9,74.9 110.9,74.8 110.6,74.6 110.4,74 111.3,73.2 110.9,72.4 110.7,72.4 109.8,73.3 
		109.9,74.1 110.4,74.7 110.5,74.9 110.9,74.9 	"/>
	<path fill="#FFFFFF" d="M106.8,75.8l0.4-0.3l0.2,0.1l0.3,0.4l0.1,0.5l-0.1,0.2l0.2,0.1l0.2-0.3l0.4,0l0.1,0.5l0.5-0.2l0.2,0.4
		l0.2,0.3l-0.1,0.1l-0.9,0.1l-0.1,0.5l-0.1,0l-0.3-0.2l-0.4,0.2l-0.1,0.2l0.1,0.2l0.8-0.2l0,0.3l0.4,0.6l0.1,0.3l1.2,0.3l0.3-0.3
		l0.2-0.6l0.3-0.3l0.1-0.8l0.1-0.2l-0.1-0.2l-0.4,0l-0.6,0.6l-0.5-0.1l-0.1-0.2l0.3-0.4l0.5-0.1l1.1-1.2l-0.1-0.2l-0.4-0.2l0.1-0.6
		l-0.3-0.3l0-0.2l-0.9,0.1l-0.1-0.1l0.3-0.3l-0.1-0.3l-0.7,0.1l-0.1-0.1l-0.5,0l-0.2-0.2l-0.2,0.1l-0.3,0.5l0,0.4l0.2,0l0.3-0.3
		l0.3,0.3l0.1,0.3l0.4,0.1l0.1,0.2l-0.2-0.1l-0.4,0.1l-0.2,0.2l-0.1-0.1l-0.2,0.1l-0.3-0.2l-0.4-0.1l-0.5,0.2l0,0.2L106.8,75.8z
		 M108.9,78.9l-0.1-0.1l0.2-0.2l0.1,0.1l0.1,0.3L108.9,78.9z M109.9,78.5l0.3,0.1l0,0.1l-0.1,0.1l-0.2,0l-0.1-0.1l0-0.2L109.9,78.5z
		 M109.4,75.6l0.4,0L110,76l0,0.5l-0.5,0l-0.3-0.3L109.4,75.6L109.4,75.6z"/>
	<polygon fill="#FFFFFF" points="108.4,73.9 108.6,73.8 108.6,73.6 108.1,73.6 108.2,73.8 	"/>
	<polygon fill="#FFFFFF" points="109.4,70.1 109.5,70.4 109.8,70.4 110.3,69.8 110.5,69.7 110.7,69.8 111,70.2 111.2,70.1 
		111.7,69.4 111.8,68.6 111.7,68.2 111.3,68 111.3,67.8 111.3,67.5 110.8,67.3 110.7,67.7 111.2,68.3 110.9,68.8 110.7,68.9 
		110.6,68.7 110.3,68.4 109.9,68.3 109.5,68 109.4,68.1 109.6,68.5 109.7,68.6 109.8,68.9 109.6,69 109.3,69.5 109.5,69.9 	"/>
	<polygon fill="#FFFFFF" points="110.4,66.6 110.6,66.5 110.7,66.2 111.5,66.1 111.5,65.9 111,66.1 110.5,65.6 110.1,65.7 110,65.8 
		110.4,66.2 	"/>
	<polygon fill="#FFFFFF" points="110.8,66.6 110.9,66.8 111.3,67 111.5,66.9 111.5,66.8 111,66.6 	"/>
</g>
<rect x="0.8" y="0" fill="none" width="212.9" height="212.9"/>
</svg>
