<?xml version="1.0" encoding="utf-8"?>
<!-- Generator: Adobe Illustrator 18.0.0, SVG Export Plug-In . SVG Version: 6.00 Build 0)  -->
<!DOCTYPE svg PUBLIC "-//W3C//DTD SVG 1.1//EN" "http://www.w3.org/Graphics/SVG/1.1/DTD/svg11.dtd">
<svg version="1.1" id="Layer_1" xmlns="http://www.w3.org/2000/svg" xmlns:xlink="http://www.w3.org/1999/xlink" x="0px" y="0px"
	 viewBox="0 0 74.7 74.7" enable-background="new 0 0 74.7 74.7" xml:space="preserve">
<rect x="0" y="0" fill="none" width="74.7" height="74.7"/>
<g>
	
		<rect x="42.4" y="48.2" transform="matrix(0.2502 0.9682 -0.9682 0.2502 78.5169 -4.9886)" fill="#FFFFFF" width="0.1" height="0.1"/>
	<polygon fill="#FFFFFF" points="42.5,48.9 42.5,48.8 42.5,48.8 42.4,48.7 42.4,48.8 	"/>
	<polygon fill="#FFFFFF" points="42.7,47.4 42.7,47.4 42.7,47.5 42.9,47.3 42.9,47.2 42.9,47.2 	"/>
	<polygon fill="#FFFFFF" points="42.7,46.4 42.7,46.3 42.7,46.1 42.6,46.1 42.5,46.1 42.4,46.2 42.5,46.6 42.5,46.6 42.6,46.6 
		42.7,46.5 	"/>
	<polygon fill="#FFFFFF" points="42.4,49.6 42.4,49.6 42.4,49.7 42.5,49.7 42.6,49.7 42.5,49.5 	"/>
	<polygon fill="#FFFFFF" points="42,50.5 41.9,50.5 42,50.7 42,50.7 42.1,50.7 42.1,50.6 	"/>
	<polygon fill="#FFFFFF" points="41.9,49.1 41.9,49.2 42,49.2 42.2,49.1 42.2,49.1 42,49 	"/>
	<polygon fill="#FFFFFF" points="43.1,46.9 43,46.8 42.9,46.9 42.9,46.9 42.9,47 43,47 	"/>
	<polygon fill="#FFFFFF" points="43.1,44.9 42.9,45.1 42.8,45.1 42.7,45.1 42.7,45.2 42.8,45.3 42.9,45.3 42.9,45.4 43.2,45.3 
		43.2,45.3 43.3,45.2 43.5,45 43.5,44.9 43.4,44.8 43.2,44.7 43.2,44.8 43.2,44.8 43.3,44.8 43.2,44.9 	"/>
	<polygon fill="#FFFFFF" points="42.7,48.3 42.8,48.4 42.9,48.4 42.9,48.2 42.8,48.1 42.7,48.1 	"/>
	<polygon fill="#FFFFFF" points="43.2,49.6 43.2,49.8 43.2,49.8 43.3,49.8 43.2,49.7 	"/>
	<polygon fill="#FFFFFF" points="43.5,46.3 43.4,46.3 43.4,46.4 43.4,46.3 43.2,46.3 43.2,46.4 43.1,46.5 42.9,46.5 42.9,46.7 
		43.1,46.8 43.2,47 43.1,47.2 43.2,47.3 43.3,47.3 43.3,47.3 43.3,47.3 43.3,47.4 43.1,47.5 43.2,47.8 43.1,47.9 43.1,47.9 
		43.2,47.9 43.2,47.9 43.5,48 43.6,47.8 43.5,47.5 43.6,47.5 43.4,47.2 43.6,47.2 43.6,47.2 43.5,47.1 43.4,46.8 43.2,46.7 
		43.3,46.5 43.4,46.5 43.6,46.6 43.7,46.6 43.7,46.2 43.4,46.1 	"/>
	<polygon fill="#FFFFFF" points="43.7,48.8 43.6,48.8 43.6,48.9 43.5,49 43.5,49.2 43.6,49.2 43.7,49.1 43.7,49 43.7,48.9 
		43.7,48.9 43.8,48.8 43.7,48.8 	"/>
	<polygon fill="#FFFFFF" points="43.4,45.4 43.4,45.4 43.1,45.4 43.1,45.5 43,45.4 42.9,45.5 42.8,45.6 42.8,45.6 42.7,45.6 
		43,46.1 43.1,46.1 43.2,46.1 43.2,46.1 43.2,45.9 43.2,45.8 43.4,45.6 43.4,45.6 43.5,45.9 43.6,45.9 43.7,45.8 43.7,45.7 
		43.6,45.5 43.4,45.5 	"/>
	<polygon fill="#FFFFFF" points="43.3,49.4 43.2,49.4 43.2,49.5 43.3,49.5 	"/>
	<polygon fill="#FFFFFF" points="42.9,49.8 42.9,49.9 43,50 43,49.9 43,49.9 	"/>
	<polygon fill="#FFFFFF" points="41.9,48.7 42,48.8 42.1,48.7 42.1,48.6 41.9,48.7 	"/>
	<polygon fill="#FFFFFF" points="43,49.5 43,49.2 42.9,49.2 42.9,49.4 42.9,49.4 42.8,49.5 42.6,49.6 42.7,49.7 42.8,49.8 
		42.9,49.7 	"/>
	<polygon fill="#FFFFFF" points="43.4,48.7 43.4,48.7 43.3,48.6 43.4,48.4 43.4,48.2 43.2,48.3 43.2,48.5 43.1,48.6 43,48.5 
		42.9,48.5 42.9,48.8 42.9,48.9 43.1,48.9 43.5,48.9 	"/>
	<polygon fill="#FFFFFF" points="42.3,49 42.2,49.1 42.2,49.1 42.3,49.1 42.3,49.1 42.3,49 	"/>
	<polygon fill="#FFFFFF" points="46.6,48.1 46.6,48.2 46.6,48.2 	"/>
	<polygon fill="#FFFFFF" points="47.2,47.6 47.2,47.7 47.2,47.8 47.3,47.8 47.3,47.6 47.2,47.6 	"/>
	<polygon fill="#FFFFFF" points="46.7,49.3 47,49 46.9,49 46.9,49 46.7,49.1 46.6,49.3 46.7,49.3 	"/>
	
		<rect x="50.2" y="47.5" transform="matrix(0.2493 0.9684 -0.9684 0.2493 83.7794 -12.9224)" fill="#FFFFFF" width="0.1" height="0.1"/>
	<polygon fill="#FFFFFF" points="51.7,47.1 51.6,47.2 51.5,47.2 51.7,47.7 51.8,47.7 51.9,47.6 51.9,47.2 51.8,47.1 	"/>
	<polygon fill="#FFFFFF" points="50.5,47.2 50.6,47 50.7,47 50.7,47 50.8,47.2 50.8,47.2 51,47 51.1,47.1 51.2,47.2 51.6,47 
		51.6,46.9 51.7,46.8 52,46.8 51.9,46.6 51.9,46.6 51.8,46.6 51.8,46.7 51.8,46.8 51.6,46.7 51.4,46.8 51.3,46.7 51.2,46.6 
		51.4,46.5 51.5,46.2 51.3,46.2 51.3,46.1 51.3,46.1 51.3,45.9 51.2,46 51.1,45.9 51,45.7 50.9,45.8 50.8,45.8 50.8,45.8 50.9,45.8 
		50.9,45.9 50.9,46.1 51,46.1 51.1,46.2 51.1,46.4 51,46.5 51.2,46.7 50.9,47 50.8,46.7 50.7,46.8 50.5,46.7 50.5,46.8 50.6,46.9 
		50.4,47 50.4,47.1 50.4,47.2 	"/>
	<polygon fill="#FFFFFF" points="47,48.2 47,48.1 46.7,48.1 46.8,48.2 47,48.2 	"/>
	
		<rect x="50.5" y="47.3" transform="matrix(-0.9675 0.2527 -0.2527 -0.9675 111.3436 80.3609)" fill="#FFFFFF" width="0.1" height="0.1"/>
	<path fill="#FFFFFF" d="M50.3,48l0.2,0.1l0.1,0.2l0.1,0.1l0-0.1l0-0.1l0.2-0.2l0-0.1l0,0l0,0l0.3,0.2L51,48.3l-0.1,0l-0.1,0
		l-0.1,0.1l-0.1,0l0,0.2l0.1,0l0.1-0.1l0.1,0l0.1,0l0.2,0l0,0.1l-0.1,0.1l-0.2,0l0.3,0.2l0.1,0.2l0,0.1l0.1,0l0-0.2l0.3-0.1l0.2,0
		l0.1,0l0.1,0l0-0.4l0.1-0.1l0-0.1l-0.2-0.2l0-0.1l-0.1-0.1l-0.3,0L51.4,48L51.2,48L51.1,48l0.2-0.4l0.2-0.1l-0.1-0.1l-0.1-0.1
		l-0.2,0l-0.1,0l0,0l0,0.2L51,47.7l-0.2-0.1l-0.1-0.1l-0.4,0.1l0,0.1l0.1,0.2l0,0.1L50.3,48L50.3,48z M51.9,47.9L51.9,47.9
		L51.9,47.9L51.9,47.9L51.9,47.9z M51.7,48.2l0.1,0.1l0,0.2l-0.1,0.1L51.7,48.2L51.7,48.2L51.7,48.2z M51.4,48.3L51.4,48.3
		L51.4,48.3L51.4,48.3L51.4,48.3z"/>
	<polygon fill="#FFFFFF" points="47.3,46.7 47.3,46.8 47.4,46.9 47.4,46.8 47.3,46.7 47.3,46.7 	"/>
	<polygon fill="#FFFFFF" points="47.5,44.6 47.6,44.6 47.7,44.6 47.5,44.5 47.4,44.5 47.5,44.6 	"/>
	<polygon fill="#FFFFFF" points="47.3,49.4 47.2,49.3 47.1,49.3 47,49.3 47.1,49.7 47,49.7 46.9,49.9 46.8,50 46.7,49.9 46.5,49.8 
		46.5,49.9 46.7,49.9 46.7,49.9 46.9,50.2 47,50.1 47.1,50 47.3,49.9 47.2,49.7 47.3,49.6 	"/>
	
		<rect x="42.1" y="48.2" transform="matrix(-0.9682 0.2502 -0.2502 -0.9682 94.9559 84.52)" fill="#FFFFFF" width="0.1" height="0.2"/>
	<polygon fill="#FFFFFF" points="41.9,48 42.1,48 42.1,47.9 42,48 	"/>
	<polygon fill="#FFFFFF" points="41.7,49.5 41.7,49.5 41.8,49.5 41.8,49.4 41.7,49.4 	"/>
	
		<rect x="47.4" y="46.9" transform="matrix(-0.2493 -0.9684 0.9684 -0.2493 13.7539 104.622)" fill="#FFFFFF" width="0.1" height="0.1"/>
	<polygon fill="#FFFFFF" points="47.3,48.9 47.2,49 47.2,49 47.3,49.1 47.4,49.1 47.4,48.9 	"/>
	<polygon fill="#FFFFFF" points="47.6,50.2 47.6,50.2 47.8,50.2 47.8,50.1 47.8,50 47.8,50 47.7,50 47.6,50.2 	"/>
	<polygon fill="#FFFFFF" points="47.9,42.5 48.1,42.5 48.1,42.5 48,42.4 48,42.4 47.8,42.5 47.8,42.5 	"/>
	<polygon fill="#FFFFFF" points="53.4,24.6 53.3,24.6 53.3,24.5 52.9,24.7 52.9,24.8 53,24.7 53.3,24.8 53.6,24.8 53.7,24.7 
		53.6,24.4 53.5,24.2 53.3,24.2 53.4,24.4 53.4,24.5 	"/>
	<polygon fill="#FFFFFF" points="53.3,27.3 53.3,27.4 53.3,27.5 53.4,27.6 53.4,27.6 53.5,27.6 53.6,27.5 53.5,27.4 	"/>
	<polygon fill="#FFFFFF" points="53.3,28.8 53.3,28.9 53.3,29 53.3,29.1 53.4,29.1 53.5,29.1 53.5,28.9 53.5,28.8 	"/>
	<path fill="#FFFFFF" d="M52.9,23.1l0.1,0.3l0,0.2l0.1,0.2l-0.1,0.1l0.1,0.2l0,0.1l-0.1,0.1l-0.1,0l0,0l-0.1-0.2L52.6,24l0,0.1
		l0.1,0l0.1,0.3l0.1,0l0.1,0l0-0.2l0.1,0l0.1-0.2l0-0.1l-0.1-0.1l0.1-0.2l0.4-0.1l-0.1-0.2L53,23l0,0l0.1-0.2l0-0.1l0,0l-0.1,0
		l-0.1,0.1l-0.1,0.1L52.7,23l-0.1-0.1l-0.1,0l0,0.4l0.1,0L52.9,23.1z M53.3,23.4L53.3,23.4l-0.1,0.1L53.3,23.4L53.3,23.4z"/>
	<polygon fill="#FFFFFF" points="53.6,23.9 53.6,24 53.8,23.9 53.8,23.9 53.7,23.9 53.6,23.9 	"/>
	<polygon fill="#FFFFFF" points="53.7,25.2 53.7,24.8 53.4,25 53.4,25 53.4,25.1 53.6,25.3 53.6,25.4 53.5,25.4 53.4,25.5 
		53.2,25.4 53.2,25.5 53.1,25.8 53.1,25.9 53.3,26.1 53.4,26.3 53.5,26.4 53.7,26.4 53.6,26.3 53.4,26.2 53.5,26.2 53.5,26.1 
		53.4,25.9 53.5,25.8 53.5,25.7 53.4,25.7 53.4,25.7 53.4,25.6 53.6,25.6 53.7,25.6 53.7,25.5 53.7,25.3 	"/>
	<polygon fill="#FFFFFF" points="53,25.9 53,25.7 52.8,25.8 52.9,25.9 	"/>
	<polygon fill="#FFFFFF" points="53.3,27.1 53.4,27 53.5,26.6 53.4,26.6 53.3,26.6 53.2,26.7 53.3,26.7 53.4,26.8 53.4,26.9 
		53.2,27 	"/>
	
		<rect x="52.9" y="26.1" transform="matrix(-0.9684 0.2493 -0.2493 -0.9684 110.8337 38.3013)" fill="#FFFFFF" width="0.1" height="0.1"/>
	<polygon fill="#FFFFFF" points="52.9,27.1 52.9,27.3 52.9,27.3 53,27.4 53.2,27.2 53.1,27.1 	"/>
	<polygon fill="#FFFFFF" points="53,28.3 53,28.3 53.1,28.2 53.1,28.1 53,28.1 	"/>
	<polygon fill="#FFFFFF" points="46.1,26.4 46.1,26.5 46.1,26.6 46.4,26.6 46.3,26.4 	"/>
	<polygon fill="#FFFFFF" points="52.6,26.4 52.7,26.6 52.8,26.6 52.9,26.5 52.7,26.1 52.6,26.2 52.5,26.3 52.5,26.4 52.5,26.5 
		52.5,26.5 	"/>
	<polygon fill="#FFFFFF" points="46.4,25.5 46.3,25.7 46.4,25.8 46.4,25.8 46.5,25.7 46.4,25.6 	"/>
	<polygon fill="#FFFFFF" points="46.7,24.3 46.4,24.4 46.3,24.4 46.5,24.7 46.8,24.6 46.7,24.4 46.8,24.3 	"/>
	<polygon fill="#FFFFFF" points="42.5,30.9 42.4,31 42.5,31.1 42.6,31.1 42.6,30.9 	"/>
	<polygon fill="#FFFFFF" points="52.6,27.3 52.5,27.1 52.4,27.1 52.4,27.5 	"/>
	
		<rect x="52.5" y="26.8" transform="matrix(0.2489 0.9685 -0.9685 0.2489 65.4508 -30.6821)" fill="#FFFFFF" width="0.1" height="0.1"/>
	<polygon fill="#FFFFFF" points="42.6,28.2 42.6,28.1 42.6,27.9 42.5,27.8 42.4,27.7 42.3,27.7 42.4,27.8 42.4,28 42.4,28 
		42.6,28.1 	"/>
	<polygon fill="#FFFFFF" points="42.6,28.9 42.6,28.9 42.6,28.9 	"/>
	<polygon fill="#FFFFFF" points="42.5,44.2 42.5,44.3 42.7,44.2 42.7,44.1 42.8,44 42.5,44 42.5,44 42.5,44 42.5,44.1 42.6,44.1 
		42.6,44.1 42.6,44.1 	"/>
	<polygon fill="#FFFFFF" points="38.5,47.3 38.5,47.4 38.6,47.4 38.6,47.4 	"/>
	<polygon fill="#FFFFFF" points="39,45.4 39.1,45.3 39,45.3 38.9,45.2 38.9,45.3 38.9,45.3 	"/>
	<polygon fill="#FFFFFF" points="39,48.9 39.1,49.5 39.1,50.1 39.2,50.6 39.3,51.1 39.4,51.2 39.6,51.4 39.9,51.5 40.2,51.6 
		40.6,51.4 41,50.9 41.3,50.4 41.4,50.1 41.3,49.9 41,49.3 40.9,49 40.9,48.7 41,48.5 40.9,48.4 41,48.3 41,48.2 41.1,48.2 
		41.3,47.9 41.8,47.6 41.9,47.3 42,46.8 42,46.2 42,45.6 42,45 41.9,44.9 41.9,44.8 41.8,44.4 41.6,44.2 41.3,44 41,44 40.8,44 
		40.7,44.1 40.6,44.1 40.2,44.6 39.9,45 39.8,45.2 39.8,45.3 39.8,45.4 39.7,45.6 39.6,45.8 39.6,45.8 39.6,45.9 39.5,46.2 
		39.5,46.4 39.4,46.5 39.3,47.1 39.2,47.2 39.2,47.5 39.1,48 39.1,48.3 	"/>
	<polygon fill="#FFFFFF" points="38.7,51.5 38.7,51.5 38.7,51.6 38.8,51.6 38.9,51.5 38.9,51.5 38.8,51.4 	"/>
	<polygon fill="#FFFFFF" points="42.4,43.6 42.6,43.5 42.6,43.4 42.4,43.4 42.4,43.5 42.4,43.6 	"/>
	<polygon fill="#FFFFFF" points="38.7,46.5 38.7,46.5 38.7,46.6 38.7,46.6 38.8,46.5 38.8,46.5 38.7,46.4 	"/>
	<polygon fill="#FFFFFF" points="42.2,44.5 42.2,44.6 42.5,44.6 42.5,44.6 42.5,44.8 42.5,44.8 42.7,44.6 42.8,44.6 42.9,44.4 
		43.1,44.3 43.1,44.3 42.8,44.3 42.6,44.5 42.3,44.4 42.2,44.4 	"/>
	<polygon fill="#FFFFFF" points="39.4,44.5 39.5,44.5 39.5,44.3 39.4,44.2 39.4,44 39.2,44.1 39.2,44.1 39.4,44.4 	"/>
	<polygon fill="#FFFFFF" points="42.2,43.8 42.3,43.8 42.3,43.6 42.2,43.5 42,43.5 42,43.6 42,43.6 42.2,43.7 	"/>
	<polygon fill="#FFFFFF" points="38.6,46 38.7,45.9 38.7,45.8 38.6,45.8 38.4,45.8 38.4,45.9 38.5,46 	"/>
	<polygon fill="#FFFFFF" points="37.6,48.4 37.8,48.4 37.8,48.4 37.8,48.3 37.6,48.1 37.6,48.2 37.6,48.3 	"/>
	<polygon fill="#FFFFFF" points="52.5,28 52.4,28 52.4,28.1 52.6,28.1 52.6,28 52.6,28 	"/>
	<polygon fill="#FFFFFF" points="38.1,48.3 38.1,48.2 38,48.2 38,48.3 	"/>
	<polygon fill="#FFFFFF" points="52.7,25.4 52.8,25.5 53.1,25.5 53.1,25.3 53.2,25.2 53,25.1 52.9,25.1 52.8,25.2 52.8,25.2 
		52.9,25.4 52.9,25.4 	"/>
	<polygon fill="#FFFFFF" points="50.7,46.5 50.7,46.5 50.8,46.6 50.8,46.6 51,46.3 50.5,46.3 50.5,46.4 	"/>
	<polygon fill="#FFFFFF" points="38.3,46.5 38.3,46.3 38.2,46.3 38.2,46.4 38.2,46.4 38.1,46.5 38,46.5 38.2,46.6 	"/>
	
		<rect x="38.4" y="45.5" transform="matrix(0.9777 0.2101 -0.2101 0.9777 10.4197 -7.0642)" fill="#FFFFFF" width="0.1" height="0.1"/>
	<polygon fill="#FFFFFF" points="38.5,47.7 38.4,47.7 38.4,47.8 38.4,47.8 38.5,47.8 	"/>
	<polygon fill="#FFFFFF" points="35.1,44.7 35.1,44.8 35.3,44.9 35.3,44.9 35.3,44.7 	"/>
	<polygon fill="#FFFFFF" points="29.1,50.8 29,50.8 28.9,50.8 29,50.9 29,50.9 29.1,50.9 29.1,51 29.1,51 29.2,51.1 29.3,51.2 
		29.3,51 	"/>
	<polygon fill="#FFFFFF" points="29.6,47.6 29.5,47.9 29.5,47.9 29.7,48 29.7,48 29.7,47.7 	"/>
	<polygon fill="#FFFFFF" points="29.2,49.5 29.1,49.5 29.1,49.6 29.2,49.6 29.4,49.6 29.3,49.5 29.4,49.4 29.5,49.4 29.4,49.3 	"/>
	<polygon fill="#FFFFFF" points="29,50.1 29,49.9 28.9,50 28.7,50.3 28.7,50.3 28.7,50.1 28.6,50.1 28.5,50.1 28.5,50.2 28.5,50.2 
		28.7,50.2 28.8,50.4 28.9,50.4 28.9,50.2 28.9,50.2 	"/>
	<polygon fill="#FFFFFF" points="29.1,51.3 29,51.5 29,51.5 29.2,51.6 29.2,51.4 29.1,51.3 	"/>
	<polygon fill="#FFFFFF" points="28.7,52.1 28.7,52.2 28.8,52.3 28.9,52.3 28.9,52.2 28.8,52.1 	"/>
	<polygon fill="#FFFFFF" points="28.5,51.7 28.7,51.7 28.6,51.6 28.6,51.6 	"/>
	<polygon fill="#FFFFFF" points="28.5,50.5 28.5,50.5 28.6,50.6 28.7,50.6 28.7,50.6 28.7,50.5 	"/>
	<polygon fill="#FFFFFF" points="28.6,53.3 28.7,53.3 28.7,53.2 28.6,53.2 	"/>
	<polygon fill="#FFFFFF" points="34.5,45.9 34.5,46 34.6,46.4 34.6,46.4 34.8,46.4 35,46.4 35.1,46.4 35,46.3 34.9,46.2 34.9,46.1 
		34.7,46 34.5,45.9 	"/>
	<polygon fill="#FFFFFF" points="34.7,45.5 34.8,45.4 34.9,45.3 34.9,45.2 34.8,45.1 34.8,45.2 34.8,45.2 34.8,45.3 34.6,45.3 	"/>
	<polygon fill="#FFFFFF" points="28.7,51.2 28.7,51.2 28.6,51.4 28.6,51.4 28.6,51.4 28.8,51.4 	"/>
	<polygon fill="#FFFFFF" points="34.6,44.7 34.8,45 34.8,45 34.9,45 35,45 35.1,45 35,44.9 34.9,44.9 34.8,44.8 34.8,44.8 
		34.9,44.7 34.8,44.6 34.7,44.5 34.6,44.6 	"/>
	<polygon fill="#FFFFFF" points="34.6,48.1 34.8,48.1 34.7,47.7 34.7,47.7 34.6,47.8 34.6,47.8 34.5,47.8 34.4,47.9 	"/>
	<path fill="#FFFFFF" d="M29.9,45.5l-0.2,0l0,0.2l-0.1,0l0-0.2l-0.1,0l-0.1-0.1l0-0.3l0,0l-0.1,0.1l-0.2,0.1l-0.1,0.1l0.1,0l0.1,0.1
		l0.1,0.3L29.1,46L29,46l0,0.1l0.1,0.2l-0.1,0.1l0,0l-0.1-0.1l-0.1,0l0,0.1l0.1,0l0.3,0l0-0.1l0-0.1l0,0l0-0.1l0.1,0l0.1,0l0.1,0.2
		l0.2,0l0-0.3l0-0.1l0.1-0.1l0.2-0.1L29.9,45.5L29.9,45.5z M29.5,45.8l0-0.1l0.1-0.1l0,0l0,0.2L29.5,45.8z"/>
	<polygon fill="#FFFFFF" points="29.8,46.7 29.7,46.8 29.6,46.9 29.6,47 29.4,47 29.4,47.1 29.5,47.2 29.8,47.2 29.8,47.2 
		29.9,47.2 29.9,47.1 29.9,46.8 29.9,46.7 	"/>
	<polygon fill="#FFFFFF" points="35,44.4 34.9,44.5 34.9,44.5 35.1,44.5 35.3,44.6 35.3,44.4 35.2,44.2 35.1,44.2 	"/>
	<path fill="#FFFFFF" d="M30.6,43.4l-0.1,0l0-0.1l-0.1-0.1l-0.2,0l0,0.1l-0.3,0.2l-0.1-0.1l0-0.3l-0.1,0l-0.1-0.4l-0.1,0l0.1,0.4
		l0,0l-0.1,0.3l0.1,0l0.2,0.2l-0.1,0.3l0.1,0.2l0.1,0l0,0l-0.1,0.1l-0.2,0l-0.1,0l-0.2,0l-0.1,0l0,0.1l0.2,0.1l0.1,0.1l0.3-0.1
		l0.2,0.1l0,0.1L29.6,45l-0.2-0.2l-0.1-0.2l-0.4,0.1l0.1,0.1l0,0.1L29,45l0,0.1l0.1,0l0.1-0.2l0.1,0l0.1,0.1l0.1,0l0.2,0.2l0.1,0.2
		l0.3-0.1l0-0.1l-0.1,0l0-0.1l-0.2,0L29.8,45l0.2-0.1l0.2,0l0.3-0.1l0.1-0.2l0,0l-0.2,0l-0.1-0.3l0-0.1l0,0.1l0.1,0.1l0.3-0.1l0-0.1
		l0-0.1l-0.2-0.3l0.1-0.1l0.1-0.1l0.1-0.1l0-0.1l-0.1,0L30.6,43.4z M30.3,43.6L30.3,43.6L30.3,43.6L30.3,43.6L30.3,43.6z M30.4,44.1
		l-0.1,0L30.4,44.1L30.4,44.1L30.4,44.1L30.4,44.1z"/>
	<polygon fill="#FFFFFF" points="35.1,42.7 35,42.8 34.9,42.9 34.8,42.7 34.7,42.7 34.7,42.7 34.7,42.8 34.7,42.9 34.8,42.9 35,43 
		35,43.1 35.1,43.2 35.1,43.2 35.1,43.1 35.2,43 35.2,42.9 35.2,42.7 35.2,42.6 	"/>
	<polygon fill="#FFFFFF" points="28.5,49.8 28.5,49.6 28.5,49.6 28.4,49.6 28.4,49.7 28.5,49.8 	"/>
	<polygon fill="#FFFFFF" points="29.3,43 29.4,42.9 29.3,42.9 29.2,43 29.2,43.1 	"/>
	<polygon fill="#FFFFFF" points="29.3,43.3 29.3,43.2 29.3,43.2 29.2,43.3 29.2,43.3 	"/>
	<polygon fill="#FFFFFF" points="29,42.9 29,42.8 28.9,42.8 28.9,42.9 28.9,43 	"/>
	<polygon fill="#FFFFFF" points="29.3,44.1 29.3,44 29.2,43.8 29.3,43.6 29.2,43.6 29.2,43.7 29.1,43.8 29.2,44 	"/>
	<polygon fill="#FFFFFF" points="28.5,52.7 28.5,52.7 28.5,52.7 28.6,52.8 28.6,52.8 	"/>
	<polygon fill="#FFFFFF" points="28.5,42.2 28.4,42.3 28.4,42.3 28.5,42.3 28.6,42.2 28.6,42.2 28.6,42.2 	"/>
	<polygon fill="#FFFFFF" points="27.9,42.8 27.8,42.8 28,42.9 28.1,42.9 28,42.8 	"/>
	<polygon fill="#FFFFFF" points="30.6,43.3 30.6,43.3 30.6,43.1 30.4,43.1 30.5,43.3 	"/>
	<polygon fill="#FFFFFF" points="29.9,43 30.1,43 30.3,43 30.3,42.7 30.1,42.8 30,42.8 30,42.8 30,42.8 29.9,43 	"/>
	<polygon fill="#FFFFFF" points="29.6,42.3 29.6,42.2 29.5,42.1 29.4,42.1 29.4,42.1 29.4,42.2 29.4,42.3 	"/>
	<polygon fill="#FFFFFF" points="28.9,47.5 28.9,47.4 29,47.2 28.7,47.3 28.7,47.3 28.7,47.4 	"/>
	<polygon fill="#FFFFFF" points="28.6,48.5 28.7,48.7 28.8,48.7 29,48.7 29,48.6 29,48.6 29.2,48.6 29.1,48.4 29.2,48.3 29,48.4 
		28.9,48.5 28.7,48.5 28.5,48.4 28.4,48.4 28.4,48.4 28.6,48.5 	"/>
	
		<rect x="28.6" y="47.6" transform="matrix(0.2502 0.9682 -0.9682 0.2502 67.6539 8.0106)" fill="#FFFFFF" width="0.1" height="0.1"/>
	<polygon fill="#FFFFFF" points="34.6,49 34.7,49 34.6,48.9 34.6,48.9 	"/>
	<polygon fill="#FFFFFF" points="29.5,46.7 29.7,46.4 29.4,46.3 29.4,46.3 29.4,46.6 29.4,46.7 	"/>
	<polygon fill="#FFFFFF" points="29.5,47.5 29.5,47.4 29.3,47.4 29.2,47.5 29.2,47.5 28.9,47.8 28.9,47.8 29,47.9 29.1,47.9 
		29.2,47.9 29.3,47.6 29.4,47.6 	"/>
	<polygon fill="#FFFFFF" points="29,46.9 29,46.7 28.9,46.7 28.8,46.7 28.8,46.8 28.9,46.9 	"/>
	<polygon fill="#FFFFFF" points="29,48.8 29,48.8 29,48.9 29.1,49 29.3,49 29.2,48.8 29.2,48.7 	"/>
	<polygon fill="#FFFFFF" points="54.9,46.6 54.8,46.6 54.8,46.7 54.8,46.8 55,46.8 55.1,46.7 55,46.6 	"/>
	<polygon fill="#FFFFFF" points="54.9,45.4 55,45.4 54.9,45.3 54.8,45.2 54.7,45.3 54.8,45.4 	"/>
	<polygon fill="#FFFFFF" points="54.9,45.9 55.2,46 55.2,46.1 55.2,46.2 55.3,46.3 55.5,46.2 55.5,46.3 55.6,46.3 55.7,46.3 
		55.7,46 55.6,46 55.4,46.1 55.3,46 55.4,46 55.5,46 55.6,46 55.7,45.8 55.8,45.9 56,45.8 55.9,45.7 55.8,45.6 55.8,45.6 55.7,45.4 
		55.8,45.3 55.8,45.2 55.7,45.2 55.9,45 55.8,44.8 55.9,44.8 56,44.8 56.1,44.8 56,44.7 55.8,44.7 55.3,44.8 55.2,44.9 55.1,44.9 
		55.1,45 55,45 55,45.1 55,45.1 55.1,45.1 55.3,45.3 55.5,45.3 55.5,45.3 55.5,45.4 55.3,45.4 55.3,45.5 55,45.7 54.8,45.7 
		54.8,45.9 54.6,46 54.6,46.1 54.6,46.1 	"/>
	<polygon fill="#FFFFFF" points="55.8,45.4 55.9,45.5 55.9,45.5 56,45.4 55.9,45.2 55.8,45.2 	"/>
	<polygon fill="#FFFFFF" points="51.5,49.1 51.5,49.1 51.6,49.1 51.7,49.1 51.7,48.9 51.6,48.9 	"/>
	<polygon fill="#FFFFFF" points="34.4,49.6 34.3,49.6 34.4,49.7 34.5,49.6 	"/>
	<polygon fill="#FFFFFF" points="52,46.1 52.2,45.8 52.1,45.8 51.9,45.9 51.9,45.9 51.8,46.2 51.8,46.3 51.9,46.4 52,46.4 
		51.9,46.2 52,46.1 	"/>
	<polygon fill="#FFFFFF" points="55.1,46.4 55,46.4 55.1,46.4 55.2,46.4 55.1,46.4 	"/>
	<polygon fill="#FFFFFF" points="55.3,46.8 55.3,46.8 55.4,46.7 55.2,46.7 	"/>
	<polygon fill="#FFFFFF" points="55.3,44.6 55.3,44.6 55.3,44.5 55.3,44.5 55.2,44.6 55.2,44.7 55.2,44.7 	"/>
	<polygon fill="#FFFFFF" points="52.2,48.5 52.2,48.7 52.2,48.7 52.2,48.7 52.3,48.6 52.2,48.5 	"/>
	<polygon fill="#FFFFFF" points="51.6,43.7 51.9,43.6 52.5,43.6 52.5,43.5 52.4,43.5 52.3,43.2 52,43.3 52,43.3 52,43.3 51.6,43.4 
		51.5,43.5 51.6,43.6 	"/>
	<polygon fill="#FFFFFF" points="51.9,44 51.9,43.9 51.9,43.9 51.8,43.9 51.8,44 51.9,44 	"/>
	<polygon fill="#FFFFFF" points="51.2,44.7 51.2,44.7 51.3,44.8 51.4,44.8 51.4,44.6 51.3,44.5 51.2,44.5 	"/>
	<polygon fill="#FFFFFF" points="51,44.3 51.1,44.3 51.2,44.2 51.2,44.1 51.1,44 51.1,44.1 51,44.2 	"/>
	<polygon fill="#FFFFFF" points="52,45.2 52.1,45.1 52.1,45 52.1,45 51.8,45.1 51.8,45.1 51.8,45.2 	"/>
	<path fill="#FFFFFF" d="M51.6,45.2l-0.2,0l-0.2,0.2l0.1,0.2l0.1,0.1l0-0.1l0.1,0l0.1,0.1l0.1-0.1l-0.1-0.2l0-0.1l0.1-0.1l0.2,0
		l-0.1-0.1L51.6,45.2L51.6,45.2z M51.5,45.7L51.5,45.7l-0.1-0.1l0-0.1l0,0l0.1,0l0,0.1L51.5,45.7z"/>
	<polygon fill="#FFFFFF" points="51.9,44.2 51.7,44.3 51.7,44.3 51.9,44.5 52,44.5 52.1,44.5 52.1,44.4 52.1,44.3 52.2,44.3 
		52.3,44.2 52.2,44.2 	"/>
	<polygon fill="#FFFFFF" points="52.4,49.3 52.5,49.2 52.4,49.2 52.4,49.2 52.3,49.3 52.3,49.4 	"/>
	<polygon fill="#FFFFFF" points="34.2,51.1 34.1,51.1 34,51 33.9,51 33.9,51.1 33.9,51.1 34,51.2 	"/>
	<polygon fill="#FFFFFF" points="50.9,45.3 50.9,45.3 50.9,45.2 50.8,45.2 50.8,45.3 	"/>
	<polygon fill="#FFFFFF" points="46.4,25 46.5,25.1 46.6,25.1 46.6,25.1 46.6,25 	"/>
	<polygon fill="#FFFFFF" points="35.3,43.7 35.2,43.7 35.3,43.8 35.4,43.9 35.5,43.9 35.5,43.9 35.5,43.8 	"/>
	<polygon fill="#FFFFFF" points="34.4,48.5 34.5,48.5 34.4,48.4 34.3,48.4 34.3,48.5 	"/>
	<polygon fill="#FFFFFF" points="35,45.4 35,45.5 35.1,45.6 35.1,45.6 35.1,45.5 35.1,45.4 	"/>
	<polygon fill="#FFFFFF" points="35.7,42.7 35.6,42.7 35.5,42.8 35.5,42.8 35.4,43 35.5,43 35.5,42.9 35.7,42.8 	"/>
	<polygon fill="#FFFFFF" points="34.8,49.1 34.8,49.2 34.9,49.2 34.9,49.1 34.8,49 	"/>
	<polygon fill="#FFFFFF" points="34.9,46.9 34.8,46.7 34.8,47 34.7,47 34.5,47 34.5,47.1 34.7,47.1 34.8,47.2 34.8,47.3 34.6,47.3 
		34.7,47.4 34.8,47.4 35,47.3 35.1,47.2 35,47.1 34.9,47.1 34.8,47.1 35.1,47 35.1,46.9 	"/>
	<polygon fill="#FFFFFF" points="34.9,48.3 34.8,48.3 34.9,48.4 35,48.4 35,48.4 35,48.3 	"/>
	
		<rect x="35" y="47.4" transform="matrix(-0.2485 -0.9686 0.9686 -0.2485 -2.2699 93.2327)" fill="#FFFFFF" width="0.1" height="0.1"/>
	<polygon fill="#FFFFFF" points="35.4,43.5 35.4,43.5 35.4,43.4 35.2,43.5 35.3,43.6 	"/>
	<polygon fill="#FFFFFF" points="34.6,41.8 34.7,41.8 34.7,41.4 34.6,41.5 34.3,41.4 34.5,41.7 	"/>
	<polygon fill="#FFFFFF" points="34.8,41.4 34.9,41.3 34.9,41.2 35,41.2 35,41 34.7,41.1 34.7,41.2 34.7,41.2 34.7,41.4 	"/>
	<polygon fill="#FFFFFF" points="34.4,46.2 34.5,46.2 34.5,46.1 34.4,46.2 	"/>
	<polygon fill="#FFFFFF" points="34.4,46.9 34.4,46.8 34.3,46.8 34.4,46.9 	"/>
	<polygon fill="#FFFFFF" points="35.4,41.8 35.6,41.6 35.5,41.3 35.4,41.3 35.3,41.3 35.3,41.4 35.3,41.7 35.4,41.8 	"/>
	<polygon fill="#FFFFFF" points="35.5,42 35.5,42 35.6,42.1 35.8,42.1 35.8,42 35.8,41.9 35.7,41.9 35.5,42 	"/>
	<polygon fill="#FFFFFF" points="35,42 35.1,42.2 35,42.2 34.8,42.2 34.8,42.3 34.8,42.5 34.8,42.5 34.9,42.4 35.1,42.3 35.3,42.4 
		35.3,42.4 35.4,42.3 35.3,42.2 35.1,42 35.1,41.9 35,42 	"/>
	<polygon fill="#FFFFFF" points="35.5,43.3 35.6,43.4 35.7,43.5 35.7,43.5 35.7,43.3 	"/>
	<polygon fill="#FFFFFF" points="14.3,39.2 14.3,39.3 14.4,39.2 14.4,39.1 14.3,39.1 	"/>
	
		<rect x="22.3" y="26" transform="matrix(0.2489 0.9685 -0.9685 0.2489 42.0519 -2.1009)" fill="#FFFFFF" width="0.1" height="0.1"/>
	<polygon fill="#FFFFFF" points="21.9,30.2 22,30.2 22.1,30.1 22.2,30 22,29.9 21.8,30 21.8,30.1 21.8,30.1 	"/>
	<polygon fill="#FFFFFF" points="21.8,32.4 21.8,32.4 22,32 21.8,31.9 21.7,31.9 21.7,32.2 21.7,32.4 	"/>
	<polygon fill="#FFFFFF" points="21.9,31.4 22.2,31 22,31 21.9,31 21.9,31.1 21.8,31.3 21.8,31.4 	"/>
	<polygon fill="#FFFFFF" points="22.3,32.3 22.3,32.3 22.2,32.2 22.2,32.2 22.2,32.3 22.2,32.4 	"/>
	<path fill="#FFFFFF" d="M22.2,32.7l-0.5-0.1l0,0.1l0.2,0.3l0,0l-0.2,0l0,0.1l0.1,0l0.3-0.1l0.1,0l0-0.1l0.2-0.2l0-0.1l-0.1-0.1
		L22.2,32.7z M22,33l0-0.1l0,0l0.1,0l0.1,0.2L22,33z"/>
	<polygon fill="#FFFFFF" points="20.8,34.8 20.9,34.8 20.9,34.8 20.9,34.6 20.8,34.6 	"/>
	<polygon fill="#FFFFFF" points="21.1,34.1 21.1,34 20.9,34 20.9,34 20.8,34.2 20.7,34.3 20.8,34.3 21.1,34.4 21.2,34.5 21.3,34.4 
		21.3,34.2 21.1,34.3 21,34.3 21,34.2 21,34.1 	"/>
	<polygon fill="#FFFFFF" points="22.1,33.4 22,33.4 21.8,33.5 21.8,33.7 21.9,33.7 21.9,33.7 	"/>
	
		<rect x="20.6" y="25.5" transform="matrix(0.2511 0.968 -0.968 0.2511 40.2353 -0.8916)" fill="#FFFFFF" width="0.1" height="0.1"/>
	<polygon fill="#FFFFFF" points="20.6,34.8 20.6,34.7 20.6,34.6 20.6,34.6 20.5,34.7 20.6,34.8 	"/>
	<polygon fill="#FFFFFF" points="21.2,33.7 21.3,33.7 21.4,33.7 21.3,33.8 21.3,33.8 21.4,33.9 21.6,33.9 21.7,33.9 21.6,33.8 
		21.6,33.4 21.5,33.3 21.5,33.4 21.2,33.6 	"/>
	<polygon fill="#FFFFFF" points="20.8,33.5 20.8,33.6 20.8,33.7 20.7,33.7 21,33.7 21,33.6 21.1,33.5 21.2,33.5 21.1,33.4 
		20.9,33.4 	"/>
	<polygon fill="#FFFFFF" points="20.5,25.3 20.5,25.4 20.7,25.3 20.6,25.3 	"/>
	<polygon fill="#FFFFFF" points="20.2,25 20.3,25.1 20.4,25.2 20.4,25.2 20.4,25.1 20.5,24.9 20.5,24.8 20.8,24.9 21,24.7 
		20.9,24.6 20.8,24.7 20.6,24.7 20.5,24.6 20.5,24.6 20.3,24.6 20.3,24.7 20.3,24.8 20.2,24.8 20.2,24.8 20.2,24.9 20.3,24.9 	"/>
	<polygon fill="#FFFFFF" points="21.3,26.3 21.4,26.2 21.4,26.2 21.3,26.1 21.2,26 21.1,26 21.1,26.1 21.2,26.2 	"/>
	<polygon fill="#FFFFFF" points="21.3,32.8 21.2,32.8 21.2,33 21.3,33 21.3,33 	"/>
	<polygon fill="#FFFFFF" points="21.3,25.6 21.4,25.5 21.4,25.4 21.3,25.4 21.2,25.5 21.2,25.5 21.2,25.6 	"/>
	
		<rect x="19.4" y="38" transform="matrix(-0.2527 -0.9675 0.9675 -0.2527 -12.5207 66.4524)" fill="#FFFFFF" width="0.1" height="0.1"/>
	<polygon fill="#FFFFFF" points="20.4,34.9 20.2,34.9 20.3,34.9 20.4,34.9 	"/>
	<polygon fill="#FFFFFF" points="19.7,38.6 19.8,38.7 19.9,38.7 19.9,38.7 	"/>
	<polygon fill="#FFFFFF" points="19.9,24.2 20,24.2 19.9,24 19.8,23.9 19.7,23.9 19.7,24 19.8,24.1 	"/>
	<polygon fill="#FFFFFF" points="28.2,32.7 28.3,32.9 28.4,32.9 28.4,32.8 28.3,32.5 28.1,32.5 28.1,32.6 28,32.7 28,32.8 
		28.1,32.8 	"/>
	<polygon fill="#FFFFFF" points="28.2,33.6 28,33.4 27.9,33.4 28,33.8 	"/>
	<path fill="#FFFFFF" d="M28.4,29.4l0.1,0.3l0,0.2l0.1,0.2l-0.1,0.1l0.1,0.2l0,0.1l-0.1,0.1l-0.1,0l0,0l-0.1-0.2l-0.2,0.1l0,0.1
		l0.1,0l0.1,0.3l0.1,0l0.1,0l0-0.2l0.1,0l0.1-0.2l0-0.1l-0.1-0.1l0.1-0.2l0.4-0.1l-0.1-0.2l-0.5-0.3L28.4,29.4l0.2-0.2l0-0.1l0,0
		l-0.1,0l-0.1,0.1l-0.1,0.1l-0.1,0.1l-0.1-0.1l-0.1,0l0,0.4l0.1,0L28.4,29.4z M28.9,29.7L28.9,29.7l-0.1,0.1L28.9,29.7L28.9,29.7z"
		/>
	<polygon fill="#FFFFFF" points="29.2,31.5 29.3,31.1 29,31.3 28.9,31.3 28.9,31.4 29.2,31.6 29.2,31.7 29,31.7 29,31.8 28.8,31.7 
		28.7,31.8 28.7,32.1 28.7,32.2 28.9,32.4 28.9,32.6 29,32.7 29.2,32.7 29.2,32.6 29,32.5 29.1,32.5 29.1,32.4 29,32.2 29.1,32.1 
		29.1,32 29,32.1 28.9,32 29,31.9 29.1,31.9 29.3,31.9 29.3,31.8 29.3,31.6 	"/>
	<polygon fill="#FFFFFF" points="28.9,33.7 28.9,33.7 28.8,33.8 28.9,33.9 29,34 29,33.9 29.1,33.8 29,33.7 	"/>
	<polygon fill="#FFFFFF" points="29.1,30.3 29.2,30.3 29.3,30.2 29.3,30.2 29.3,30.2 29.1,30.2 	"/>
	<rect x="28" y="33.1" transform="matrix(0.2489 0.9685 -0.9685 0.2489 53.211 -2.2818)" fill="#FFFFFF" width="0.1" height="0.1"/>
	<polygon fill="#FFFFFF" points="20.6,36.9 20.7,36.9 20.6,36.8 20.5,36.8 20.5,36.8 20.4,36.8 20.3,36.9 20.3,36.9 20.2,36.8 
		20.1,36.7 20.1,36.8 20.2,37 20.3,37 20.3,37 20.2,37.3 20.2,37.3 20.5,37.5 20.6,37.6 20.7,37.5 20.6,37.3 20.4,37.2 20.5,37.1 	
		"/>
	<polygon fill="#FFFFFF" points="20.4,37.6 20.4,37.7 20.5,37.8 20.5,37.8 20.6,37.8 20.5,37.7 	"/>
	<polygon fill="#FFFFFF" points="20.6,36.4 20.5,36.2 20.4,36.2 20.3,36.1 20.2,36.1 20.3,36.4 20.2,36.4 20.1,36.4 20.1,36.5 
		20.1,36.6 20.2,36.5 20.3,36.4 20.4,36.4 20.4,36.5 20.5,36.5 20.5,36.6 20.7,36.6 20.8,36.6 21,36.9 21.1,36.8 21.2,36.5 
		20.8,36.6 	"/>
	<path fill="#FFFFFF" d="M21.9,34.7L21.9,34.7l-0.2,0l0-0.1l0.2-0.1l0-0.1l0-0.1l0.2-0.1L22,33.9l-0.1,0l-0.1,0.2l0,0l-0.1,0.1
		l0,0.1l-0.1,0l0,0.2l-0.1,0l0,0.1l0,0.2l-0.1-0.1l-0.1,0l0,0l0,0.1l0.2,0.1l-0.2,0.1l0,0.2l-0.1,0.1L21,35.3l-0.2-0.3L20.7,35
		l-0.1,0l0.1,0.2l-0.1,0.3l-0.1,0l-0.1-0.1l-0.1-0.3l0-0.1L20,35.1l0.2,0.3l0,0.1l0.2,0.1l0.1,0.3l0,0.1l0.1,0l0.1,0.1l0.2-0.2
		l0.1,0l0.1,0.3l0.2-0.1l0.1,0l0.1,0l0-0.1l0-0.1l-0.1,0L21,36.1l0.1-0.2l0.1,0l0.2,0l0,0.1L21.3,36l0.2,0l0.2-0.1l0.1-0.2l-0.1,0
		l-0.1,0l0.1-0.1l0-0.1l0.1,0l0-0.1l-0.2-0.1l0,0.2l-0.1,0l0-0.1l0-0.2l0.1-0.2l0.1,0l0.2-0.1l0-0.3l0-0.1l0.1,0.3l0.1,0.1l0.1-0.1
		L22,34.8L21.9,34.7z M20.7,35.1L20.7,35.1l0.1,0l-0.1,0.1L20.7,35.1L20.7,35.1L20.7,35.1z M21,35.7l-0.2,0l-0.1,0.1l0,0.1l-0.3,0
		l0-0.1l0.1-0.2l0-0.1l0.1,0l0.1,0.1l0.2,0L21,35.7L21,35.7z"/>
	<polygon fill="#FFFFFF" points="20,37.9 19.8,37.9 19.8,38 19.9,38 20,37.9 	"/>
	<polygon fill="#FFFFFF" points="20.3,38.4 20.3,38.4 20.3,38.4 20.3,38.5 20.3,38.5 20.4,38.5 20.4,38.4 	"/>
	<polygon fill="#FFFFFF" points="20.1,37.3 20.1,37.2 19.9,37.2 19.9,37.4 20,37.4 	"/>
	<polygon fill="#FFFFFF" points="20,37.9 20.1,38 20,38.1 20,38.2 20.1,38.2 20.2,38.1 20.2,38 	"/>
	<polygon fill="#FFFFFF" points="16.5,39.6 16.6,39.6 16.6,39.6 17.2,39.5 17.6,39.4 18,39.1 18.1,39.1 18.1,39 18.3,38.9 
		18.4,38.7 18.6,38.5 18.9,38 19.2,37.5 19.4,37 19.5,37 19.5,36.8 19.6,36.7 19.7,36.4 19.8,36.3 19.9,35.9 19.7,35.6 19.2,35.2 
		18.9,35.1 18.8,35 18.8,35 18.6,34.8 18.1,34.4 17.7,34 17.6,33.8 17.4,33.6 17.3,33.5 17.2,33.4 16.9,32.9 16.6,32.3 16.4,31.8 
		16.2,31.2 16,30.6 15.8,30.1 15.8,29.9 15.8,29.8 15.7,29.5 15.5,29.5 15.3,29.6 15.3,29.7 15.3,29.7 15.2,30.3 15,30.8 15,31.1 
		14.9,31.2 14.9,31.8 14.8,31.8 14.8,32.3 14.7,32.3 14.7,32.9 14.7,33.4 14.7,33.9 14.6,35.1 14.6,35.7 14.7,36.3 14.6,36.3 
		14.7,36.5 14.6,36.5 14.7,36.7 14.7,36.7 14.8,37.3 15,37.9 15.1,38.4 15.2,38.5 15.5,39.1 15.8,39.3 16.3,39.5 	"/>
	<polygon fill="#FFFFFF" points="16,29.3 16,29.3 16,29.2 16,29.2 	"/>
	<rect x="13.8" y="30.6" transform="matrix(0.248 0.9688 -0.9688 0.248 40.0712 9.6509)" fill="#FFFFFF" width="0.1" height="0.1"/>
	
		<rect x="13.4" y="36.4" transform="matrix(-0.2502 -0.9682 0.9682 -0.2502 -18.4844 58.5528)" fill="#FFFFFF" width="0.1" height="0.1"/>
	<polygon fill="#FFFFFF" points="14,33.1 13.9,33.1 14,33.3 14.1,33.4 14.1,33.4 	"/>
	<polygon fill="#FFFFFF" points="14,31.2 14,31 14,30.9 14,31 14,31.2 14,31.2 	"/>
	<polygon fill="#FFFFFF" points="14.2,35.4 14.2,35.4 14.1,35.4 14.1,35.4 14.1,35.5 14.1,35.5 	"/>
	<polygon fill="#FFFFFF" points="13.6,34 13.5,34 13.5,34.1 13.6,34.1 13.7,34 13.7,34 	"/>
	<polygon fill="#FFFFFF" points="14.9,28.9 14.9,28.8 14.6,28.8 14.6,28.8 14.7,28.8 14.7,28.7 14.7,28.6 14.6,28.6 14.6,28.6 
		14.5,28.8 14.9,28.9 	"/>
	<polygon fill="#FFFFFF" points="14.2,31.5 14.2,31.3 14,31.4 13.9,31.4 13.9,31.4 14,31.6 	"/>
	<polygon fill="#FFFFFF" points="14.1,34.1 14.1,34.2 14.2,34.2 14.2,34.1 	"/>
	<polygon fill="#FFFFFF" points="28.9,35.1 28.8,35.2 28.8,35.3 28.8,35.4 29,35.4 29,35.4 29.1,35.2 29.1,35.1 	"/>
	
		<rect x="15" y="39.8" transform="matrix(-0.2493 -0.9684 0.9684 -0.2493 -19.7714 64.3619)" fill="#FFFFFF" width="0.1" height="0.1"/>
	<polygon fill="#FFFFFF" points="14.7,29.6 14.7,29.4 14.6,29.4 14.3,29.2 14.3,29.1 14.2,29.1 14.2,29.3 14.2,29.3 14.4,29.4 
		14.5,29.5 14.4,29.6 14.4,29.7 14.5,29.7 14.6,29.7 	"/>
	<path fill="#FFFFFF" d="M73.3,28C68.2,8.2,47.9-3.8,28,1.3C8.2,6.5-3.8,26.8,1.3,46.6c5.1,19.9,25.4,31.8,45.3,26.7
		C66.5,68.2,78.4,47.9,73.3,28z M36,56.4l0,0.2l0,0.6l0,0.6l-0.1,0.3l-0.3,0.2l-0.2,0l-0.3-0.1l-0.1-0.1l-0.1,0l-0.5-0.2l-0.5-0.4
		l-0.2-0.2l-0.1,0l-0.2-0.2l-8.6,2.2l-0.2-0.9l8.4-2.2L32.8,56l-0.1-0.6l0-0.6l0-0.2l0.1-0.5l0-0.3l0-0.1l0.1,0l0-0.1l0,0l0-0.2
		l0.1-0.6l0.1-0.6l0-0.1l0-0.1l0.1,0l0-0.1l0,0l0-0.1l0,0l0-0.1l0,0l0-0.1l0.1-0.1l0-0.2l0-0.1l0-0.6l0,0l0-0.1l0,0l0-0.3l0,0l0-0.2
		l0.1-0.5l0-0.1l0.1,0l0-0.1l0,0l0-0.1l0,0l0-0.1l0.1,0l0-0.1l0,0l0-0.3l0-0.1l0-0.1l0,0l0-0.1l0,0l0-0.1l0,0l0-0.1l0.1,0l0-0.1l0,0
		l0-0.1l0,0l0-0.6l0-0.1l0,0l0-0.1l0.1,0l0-0.6l0-0.3l0-0.1l0-0.3l0.1-0.4l0.1-0.6l0.1-0.6l0-0.5l0,0l0-0.1l0,0l0.1-0.6l0.1-0.6
		l0-0.3l-0.1-0.3L33.8,42l-0.3,0l-0.1,0.1l-0.3,0.1l-0.4,0.3l-0.1,0.1l-0.1,0.1l0,0.1l-0.1,0L32.3,43l-0.1,0.1l-0.1,0.1L32,43.3
		l-0.3,0.5l-0.3,0.5L31,44.7l0,0.1l-0.3,0.5l-0.1,0.1l0,0.1l-0.1,0.1l0,0.1l0,0l0,0.4l-0.1,0.6l-0.1,0.6l0,0.3l-0.1,0.6l-0.1,0.6
		L30,49.4l-0.1,0.5l0,0.3l0,0.5l0,0.1l-0.1,0.5l0,0.2l0,0.1l-0.1,0.6l-0.1,0.6l-0.1,0.6l-0.1,0.5l-0.1,0.6l-0.1,0.6l-0.1,0.5l0,0.1
		l-0.1,0.1l0,0.1l-0.2,0.1l-0.3,0.1l-0.7,0.2l-0.5,0.1l-0.3-0.1L27,56.1l0.1-0.5l0-0.2l0,0l0-0.3l0.1-0.1l0-0.3l0.1-0.2l0-0.1l0,0
		l0-0.5l0.1-0.6l0.1-0.6l0.1-0.6l0.1-0.6l0.1-0.5l0.1-0.5l0.1-0.6l0.1-0.6l0.1-0.6l0.1-0.5l0-0.2l0-0.1l0.1-0.6l0.1-0.6l0.1-0.6
		l0-0.6l0.1-0.4l0-0.3l0.1-0.1l0.1-0.6l0-0.2l-0.1-0.3l-0.2,0l-0.5,0.3l0,0.1L27.6,44l-0.5,0.3l-0.3,0.1l-0.2,0.2L26.1,45l-0.5,0.3
		l-0.4,0.3l-0.1,0.2l-0.1,0L25,46l-0.1,0l-0.1,0.1l-0.1,0l-0.1,0.2l-0.1,0l-0.3,0.5l-0.2,0.3l0,0.1L24,47.3l0,0.2l-0.1,0.2l0,0.5
		l0.1,0.3l0.1,0.3l0.2,0.3l0,0l0,0.1l0.1,0.1l0,0l0.2,0.2l0.3,0.1l0.2,0l0.1,0l0.3,0.1l0.2,0.1l0.1,0.6l0,0.1l0.1,0l0.1,0.3l0,0.4
		L26,51.3l-0.2,0.2l-0.2,0l-0.2-0.1l-0.6,0l-0.5-0.1l-0.5-0.2l-0.4-0.3l0-0.1L23,50.7l-0.1-0.1l-0.1,0l-0.1-0.1l-0.1,0l-0.1-0.2
		l-0.1,0l-0.2-0.5l-0.1-0.2l0,0l0-0.1l0,0l0-0.3l-0.2-0.6l0-0.1l0,0l0-0.1l0-0.1l0.1-0.6l0.1-0.2l0-0.1l0-0.2l0.1-0.1l0-0.1l0.3-0.5
		l0.3-0.5l0.3-0.5l0.3-0.3l0.5-0.3l0.2-0.3l0.2-0.1l0-0.1l0.3-0.1l0.3-0.3l0-0.1l0.1-0.1l0.3-0.3l0.5-0.3l0.5-0.3l0.5-0.4l0.5-0.3
		l0.5-0.3l0.5-0.3l0.5-0.3l0.3-0.1l0.2,0l0.1,0l0.5,0.4l0.4,0.5l0.4,0.4l0,0.1l0.3,0.2l0.1,0l0.3-0.2l0.3-0.5l0-0.1l0.2-0.2l0.1-0.1
		l0.1,0l0.3-0.4l0.1,0l0.4-0.4l0.1,0l0.2-0.2l0.1-0.1l0.1-0.1l0.5-0.3l0.5-0.2l0.3-0.1l0.3,0l0.2,0l0.5,0.3l0.2,0.2l0.3,0.2l0.1,0.1
		l0.2,0.4l0,0.4l0,0.1l0.2,0.6L36.4,42l0,0.6l-0.1,0.4l-0.1,0.6l0,0.3l0,0.1l0,0.3l-0.1,0.6l0,0.3l0,0.1L36,45.8l0,0.5l-0.1,0.4l0,0
		l-0.1,0.3l0,0.3l0.1,0.3l-0.1,0.3l0,0.1l0,0.1l-0.1,0.6l0,0.5l0,0.2l-0.1,0.2l0,0.6l0,0.2l0,0.1l-0.1,0.6l0,0.1L35.2,51l0,0.6
		l0,0.4l0,0l0,0.3l-0.1,0.6l0,0.1L35,53.4l-0.1,0.6l0,0.1l0,0.3l0,0.6l0.1,0.4l0.1,0.3l25.3-6.5l0.2,0.9L36,56.4z M36.9,47.7
		l0.1-0.6l0.1-0.3l0-0.1l0-0.1l0.1-0.1l0-0.2l0.1-0.3l0.1-0.1l0-0.1l0.1-0.1l0.1-0.4l0.1-0.2l0.1-0.3l0.3-0.5l0.1-0.3l0.2-0.2
		l0.1-0.2l0.1,0l0-0.1l0.1,0l0,0l0.1,0l0.1-0.1l0.3-0.1l0.5-0.4l0.5-0.2l0.6-0.2l0.3,0l0.1,0l0.3-0.1l0.6,0l0.5,0.2l0.6,0.3l0,0
		l0.1,0.1l0.3,0.4l0.1,0.3l0,0l0.2,0.5l0.2,0.6l0.1,0.3l0.1,0.5l0,0l0.1,0.5l0,0.2l0,0.3l0,0.6l0,0.1L44.1,48L44,48.3l0,0.3l0.1,0.1
		l0.2,0.1l0.1,0l0.3-0.2l0.4-0.3l0.2-0.2l0.3-0.4l0.1-0.2l0,0l0-0.4l0.1-0.3l0-0.1l0.1,0l0-0.1l0,0l0-0.1l0,0l0-0.1l0,0l0-0.1l0.1,0
		l0-0.1l0,0l0-0.6l0.1-0.6l0-0.6l0.1-0.2l0-0.6l0-0.1l0-0.1l0.1-0.6l0.1-0.6l0.1-0.5l0.1-0.5l0.2-0.2l1.2-0.3l0.4-0.1l0.3,0.1l0,0.1
		l0,0l0,0.3l-0.1,0.6l0,0.4l-0.1,0.1l0,0.1l-0.1,0.6l0,0.1l0,0.5l0,0.1l-0.1,0.5l0,0.2l-0.1,0.2l0,0.2l0,0.1l0,0.6L48.1,46L48,46.6
		l-0.1,0.6l-0.1,0.6l0,0.6l-0.1,0.2l0.1,0.3l0.1,0.3l0.2,0.2l0.1-0.1l0.3,0l0.4-0.4l0.2-0.3l0.2-0.2l0.2-0.5l0-0.1l0.1-0.2l0.2-0.4
		l0-0.1l0.1-0.3l0-0.4l0.2-0.5l0.1-0.2l0.1-0.1l0-0.1l0,0l0-0.6l0-0.6l0-0.1l0-0.5l0.1-0.6l0.1-0.6l0.1-0.6l0.1-0.6l0-0.1l0-0.1
		l0-0.1l0-0.1l0-0.6l0.2-0.3l0.2-0.1l0.6-0.2l0.6-0.1l0.3,0l0.2,0l0.1,0.2l0,0.6L53.1,41l0,0.1l0,0.1l-0.1,0l0,0.2L53,41.5l0,0.3
		l0,0.1l0,0.2l-0.1,0.2l0,0.1l0,0.1L52.8,43l0,0.6l0,0.3l-0.1,0.3l0,0.2l-0.1,0.2l0,0.2L52.5,45l-0.1,0.1l0,0.5l-0.1,0.6l0,0.2
		l0,0.1l0,0.2l-0.1,0l0,0.1l0,0l0,0.1l0.1,0.6l0,0.1l0.1,0.1l0.2,0.2l0.2,0.1l0.4-0.1l0.4-0.4l0.4-0.5l0.1-0.3l0.1-0.3l0-0.2
		l-0.3-0.5l0-0.1l0-0.1l0-0.3l0-0.1l0.1-0.1l0-0.1l0.1-0.3l0.1-0.1l0-0.1l0.5-0.3l0.2-0.2l0.1-0.2l0.1-0.6l0.1-0.6l0-0.1l0-0.6
		l0.1-0.6l0-0.3l0-0.2l0.1-0.6l0-0.7l0.1-0.6l0.1-0.1l0.1,0l0-0.1l0.5-0.2l0.2,0l0.1-0.1l0.4-0.1l0.2,0.1l0,0l0.1,0.3l-0.1,0.6
		l0,0.6l0,0.6l0,0.3l0,0.1l0,0.4l-0.1,0.2l0,0.6l0,0.2L57,42.7l-0.1,0.6l-0.1,0.6l-0.1,0.5l0,0.1l0,0.1L56.6,45l-0.1,0.3l0,0.2
		l0.2,0.1l0.3,0l0.4-0.1l0.2-0.1l0.5-0.4l0.2-0.2l0.1-0.1l0.1,0l0,0l0.2-0.2l0-0.1l0.1-0.1l0.1-0.3l0.1-0.2l0-0.1l0.1-0.3l0.2-0.6
		l0.1-0.1l0.1-0.1l0.3,0.1l0.3,0.1l0.2,0.2l0,0.3l0,0.1l0,0.1l-0.1,0.1l0,0.1l-0.1,0.2l0,0.1l-0.1,0.1l0,0.1L60,44.3l0,0.1l-0.3,0.5
		l-0.3,0.5l-0.4,0.5l-0.2,0.2l-0.2,0.1l-0.2,0.2l-0.2,0.1l-0.2,0.1l-0.3,0.1l-0.3,0l-0.3,0.1l-0.3,0.1l-0.6,0l-0.3,0l-0.2,0.2
		l-0.3,0.5L55,48.2l-0.1,0.2l0,0l-0.4,0.5L54,49.3l-0.2,0.2l-0.2,0.1l-0.2,0.2l-0.6,0.2L52.2,50l-0.2,0L51.6,50l-0.1,0L51,49.7
		l0-0.1l-0.1,0l0-0.1l0,0l0-0.1l0,0l-0.1-0.2l-0.2-0.1l-0.2,0l-0.3,0.5l-0.4,0.5l-0.1,0.1l-0.1,0.2l-0.1,0.1l-0.1,0.1l-0.5,0.2
		l-0.5,0.3l-0.3,0.1l-0.6,0l-0.3,0L46.6,51l-0.3-0.2l-0.1-0.1l-0.1-0.1L45.9,50l-0.2-0.6l0,0l-0.4,0.3L45,49.8l-0.2,0.1l0,0.1
		l-0.6,0.2l-0.6,0.2l-0.1,0.1l-0.3,0.5l-0.2,0.2l-0.1,0.3l-0.1,0l-0.1,0.1l-0.2,0.1l-0.4,0.4l-0.4,0.3l-0.5,0.4l-0.6,0.2l-0.6,0.1
		l-0.6,0.1l0,0l-0.1,0l-0.3,0L38.6,53L38,52.7L38,52.5l0,0l-0.1-0.2l-0.1,0l-0.3-0.5l-0.2-0.6l-0.1-0.2L37,50.5l-0.1-0.6l0-0.3
		l0.1-0.4l0,0l-0.1-0.5l0.1-0.3L36.9,47.7z M14,42.9L13.8,42l2-0.5l-0.2,0l-0.1-0.1l-0.3-0.1L15,41.2l-0.1,0L14.7,41l-0.4-0.3l0-0.1
		l0,0l-0.1-0.1L14,40.4l-0.1-0.1l-0.1-0.1l0-0.1l-0.3-0.5l-0.1-0.1l-0.1,0L13.1,39l-0.2-0.6l-0.2-0.6l-0.1-0.1l-0.1-0.6l-0.1-0.6
		l0-0.3l0-0.5l-0.1-0.2l0-0.3l-0.1-0.6l0-0.3l0.1-0.3l0-0.4l0-0.2l0,0l0-0.3l0-0.1l0-0.1l0-0.3l0.1-0.6l0-0.3l0.1-0.2l0-0.2l0.2-0.5
		l0-0.1l0,0l0-0.5l0.1-0.3l0.1-0.2l0-0.1l0-0.1l0-0.1l0,0l0-0.1l0,0l0-0.1l0.1,0l0-0.1l0,0l0-0.1l0,0l0.1-0.2l0.1-0.1l0-0.1l0.1-0.1
		l0.2-0.5l0.1-0.3l0.2-0.2l0.3-0.5l0.3-0.5l0.2-0.1l0.1-0.3l0.1,0l0,0l0.1,0l0,0l0.1,0l0-0.1l0.1,0l0,0l0.1,0l0,0l0.1,0l0,0l0.1,0
		l0.2-0.2l0.1-0.1l0.1-0.1l0.1,0l0.3-0.5l0.3-0.5l0.5-0.4l0.2-0.2l0.1-0.1l0.6-0.3l0.3-0.1l0.1,0l0-0.1l0.2-0.1l0.6-0.1l0.6,0
		l0.4,0.1l0.3,0.1l0.5,0.3l0.4,0.4l0.4,0.5l0.3,0.6l0.3,0.5l0.1,0.3l0.2,0.6l0.2,1.2l0.1,0.4l0,0.1l0.2,0.6l0,0l0,0.1l0,0.5l0.1,0.6
		v0.6l0,0.3L23,31l0,0.6l-0.1,0.6l-0.1,0.6l0,0.4l0,0.1l-0.1,0.3l-0.1,0.6l0,0.3l0.1,0.1l0.2,0.1l0.2,0l0.3-0.1l0.5-0.3l0.2-0.2l0,0
		l0.1,0l0,0l0.1,0l0.4-0.5l0-0.1l0.1-0.1l0.1-0.2l0.2-0.2l-0.2-0.1l0-0.3l0.1-0.5l0-0.1l0.1-0.1l0-0.1l0-0.1l0.1-0.5l0-0.1l0-0.1
		l0.1,0l0-0.2l0.1-0.1l0-0.1l0.1-0.6l0.1-0.5L25.4,29l-0.2-0.3l-0.1-0.1L25,28.4l-0.1-0.1l-0.1-0.2l-0.1-0.7l0-0.3l0.2-0.6l0.3-0.5
		l0.1-0.1l0.1-0.2l0.4-0.2l0.3-0.1l0.3,0.1l0.4,0.2l0.1,0.1L27,26l0,0.6l0,0.3l-0.1,0.3l0,0.3l0.2,0.2l0.2,0.1l0.3,0.1l0.5,0.3
		l0.1,0.1l0.1,0l0.1,0.1l0.1,0l0.5,0.3l0.5,0.4l0.2,0.3l0.1,0.3l0,0.1L30,30l0,0.5l-0.2,1l-0.1,0.5l0,0.1l0,0l0,0.1l-0.1,0.1
		L29.6,33l0,0.1l0,0l0,0.6l0,0.3l0,0.3l0.1,0.4l0.1,0.2L30,35l0.3,0l0.3-0.4l0.1-0.1l0.3-0.6l0.2-0.5l0-0.1l0,0l0.2-0.5l0.1-0.2
		l0-0.1l0.2-0.4l0-0.1l0.1-0.1l0-0.1l0-0.1l0-0.1v-0.6l0-0.5l0-0.1l0-0.2l0.1,0l0-0.3l0.1-0.6l0-0.3l0.2-0.6l0.2-0.6l0-0.3l0.3-0.5
		l0.3-0.5l0.1-0.1l0-0.2l0.3-0.5l0.1,0l0.2-0.3l0.4-0.3l0.5-0.3l0.2-0.1l0.6-0.1l0.3,0l0.6,0.2l0.5,0.3l0.2,0.2l0.2,0l0.1-0.1
		l0.1-0.1l0.1-0.6l0.1-0.6l0.1-0.6l0.1-0.6l0-0.6l0.1-0.6l0-0.1l0-0.3l0.1-0.4l0.1-0.3l0.2-0.2l0.2-0.1l0.7-0.2l0.5-0.1l0-0.1l0.3,0
		l0.1,0.1l0.1,0.3l0,0.5l-0.1,0.6l0,0.4l-0.1,0.4l0,0.3L39.7,23l0,0.2l0,0.1l-0.1,1.1L39.4,25l0,0.1l-0.1,0.2l0,0.6l0,0.3l-0.1,0.3
		L39.1,27L39,27.7l0,0.6l-0.1,0.6l-0.1,0.3l-0.1,0.6l-0.1,0.5l-0.1,0.5l0,0.3l-0.1,0.1l0,0.5l0.1,0.7l0.2,0.2l0.2,0.1l0,0l0.3-0.1
		l0.3-0.2l0.2-0.2l0.3-0.5l0.1-0.3l0-0.2l0.1-0.1l0.1-0.3l0.2-0.3l0-0.1l0.1-0.1l0.2-0.5l0.2-0.5l0.1-0.2l0-0.1l0-0.2l0-0.3l0-0.1
		l0-0.4l0-0.1l-0.1-0.2l0.1-0.5l0.1-0.6l0.1-0.2l0-0.1l0.1-0.4l0.1-0.1l0-0.1l0.2-0.5l0.1-0.2l0-0.1l0.3-0.5l0.2-0.2l0.3-0.5
		l0.1-0.2l0.2-0.1l0.3-0.3l0.1-0.1l0.1-0.1l0.5-0.3l0.2-0.2l0.6-0.2l0.1,0l0.2-0.1l0.5-0.1l0.3,0.1l0.3,0l0.2,0.1l0.3,0l0.2,0.2
		l0.3,0.2l0.1,0l0.1,0.1l0.1,0l0,0.1l0.1,0l0.2,0.5l0.2,0.6l0,0.3l0,0.3l0,0.3L48,25.3l-0.1,0.1l0,0.4l-0.1,0l0,0.2l0,0.1l-0.1,0.2
		l0,0.1l-0.3,0.5l-0.3,0.4L47,27.4l-0.3,0.4l-0.2,0.2l-0.1,0l0,0l-0.3,0.1L46,28.2l-0.4,0.2l-0.3,0.2l-0.6,0.1l-0.6,0.2L43.8,29
		l-0.1,0.1l-0.2,0.3l0.1,0.6l0.1,0.3l0.1,0.3l0.1,0l0.2,0.2l0.1,0.1l0.6,0.3l0.3,0l0.4,0l0.6-0.2l0.5-0.2l0.5-0.4l0.3-0.2l0.4-0.4
		l0-0.1l0.1,0l0-0.1l0.1,0l0.2-0.3l0.1,0l0.1-0.3l0.2-0.2l0.1-0.3l0.2-0.2l0.1-0.3l0.3-0.5l0.2-0.5l0.1-0.3l0-0.1l0-0.1l-0.2-0.1
		l0-0.3l0.1-0.5l0-0.1l0.1-0.1l0-0.1l0-0.1l0.1-0.5l0-0.1l0-0.1l0.1,0l0-0.2l0.1-0.1l0-0.1l0.1-0.6l0.1-0.5l-0.1-0.3l-0.2-0.3
		l-0.1-0.1l-0.2-0.2L49.3,22l-0.1-0.2l-0.1-0.7l0-0.3l0.2-0.6l0.3-0.5l0.1-0.1l0.1-0.2l0.4-0.2l0.3-0.1l0.3,0.1l0.4,0.2l0.1,0.1
		l0.2,0.2l0,0.6l0,0.3l-0.1,0.3l0,0.3l0.2,0.2l0.2,0.1l0.3,0.1l0.5,0.3l0.1,0.1l0.1,0l0.1,0.1l0.1,0l0.5,0.3l0.5,0.4l0.2,0.3
		l0.1,0.3l0,0.1l0.1,0.3l0,0.5l-0.2,1l-0.1,0.5l0,0.1l0,0l0,0.1l-0.1,0.1L54,26.7l0,0.1l0,0l0,0.6l0,0.3l0,0.3l0.1,0.4l0.1,0.2
		l0.2,0.1l0.3,0l0.3-0.4l0.1-0.1l0.3-0.6l0.2-0.5l0-0.1l0,0l0.2-0.5l0.1-0.2l0-0.1l0.2-0.4l0-0.1l0.1-0.1l0-0.1l0.1-0.3l0.1-0.6
		l0.1-0.5l0.2-0.2L57,24l0.3,0.1l0.1,0.1l0.1,0.1l0.1,0.3l0,0.2L57.6,25l0,0.1l-0.1,0.3l0,0.1l-0.1,0l0,0.1l0,0l0,0.1l-0.1,0l0,0.2
		l-0.3,0.6l0,0.1l-0.2,0.6l-0.1,0.3l-0.1,0.3l-0.2,0.3l0,0.2l-0.1,0.2l-0.1,0.4L56,28.9l-0.3,0.5l-0.4,0.4L55,30l-0.2,0.1l-0.3,0.1
		L54,30.4l-0.5,0l-0.3-0.1L53,30.3l-0.1-0.1l-0.3-0.1l0-0.1l-0.2-0.2l0-0.1l-0.1-0.1l-0.3-0.5l-0.1-0.6l0-0.6l0-0.6l0-0.6l0-0.3
		l0.1-0.3l0.1-0.4l0.1-0.6l0.1-0.6l0-0.6l-0.1-0.3L52,23.6l-0.5-0.3l-0.3-0.1l-0.1,0.1L51,23.3l-0.1,0.3l0,0.3l0,0.1l0,0.1l0,0
		l-0.1,0.5l-0.1,0.1l0,0.1L50.6,25l-0.1,0.6l0,0.1l0,0.1l0,0l0,0.1l0.1,0.1l0.1,0.2l0,0.2L50.4,27l-0.1,0.3l-0.1,0.2l-0.1,0.1l0,0.3
		L50,28.2l0,0.1l-0.3,0.5l-0.3,0.5l-0.3,0.5l-0.3,0.5l-0.2,0.2l-0.1,0L48.2,31L48,31.2l-0.1,0.1l-0.1,0l0,0.1l-0.2,0.1l-0.1,0.1
		l-0.3,0.1l0,0l-0.5,0.3l-0.5,0.2l-0.1,0l0,0.1l-0.5,0.2L45,32.7l-0.4,0.1l-0.1,0l-0.6,0l-0.6-0.1l-0.5-0.2l-0.1-0.1l0-0.1l-0.1,0
		l0-0.1l-0.1,0L42.2,32l-0.1,0l-0.3-0.5l-0.1-0.3l-0.1,0.1l0,0.1l-0.1,0.1l0,0.1l-0.1,0.1l0,0.1l-0.2,0.2l-0.1,0.2l-0.1,0l-0.1,0.2
		l-0.4,0.5l-0.1,0.1l0,0.1l-0.1,0.1l-0.1,0.1l-0.2,0.1l-0.1,0.1l-0.1,0.1l0,0.1L39.6,34l-0.3,0.1l-0.1,0.1l-0.2,0L39,34.3l-0.1,0.1
		l-0.6,0.1l-0.4,0l0,0l-0.1-0.1l-0.1,0l-0.1-0.1l-0.3-0.1L37.1,34L37,33.9l-0.1,0l0-0.1l-0.2-0.1l-0.1,0.1l-0.4,0.5l0,0.1L36,34.3
		l-0.4,0.4l-0.4,0.4l-0.6,0.2l-0.5,0.2l-0.3,0l0,0l-0.1,0l0,0l-0.1,0l0,0l-0.2,0l0-0.1l-0.1,0l-0.5-0.3l-0.4-0.5l0,0l-0.1-0.2
		l-0.2-0.2l0-0.1l0,0.1L32,34.6L31.8,35l-0.2,0.2l-0.3,0.5l-0.4,0.4l-0.2,0.2l-0.2,0.1l-0.3,0.1l-0.6,0.2l-0.5,0l-0.3-0.1l-0.1-0.1
		l-0.1-0.1l-0.3-0.1l0-0.1L28,36.2l0-0.1l-0.1-0.1l-0.3-0.5L27.5,35l0-0.6l0-0.6l0-0.6l0-0.3l0.1-0.3l0.1-0.4l0.1-0.6l0.1-0.6l0-0.6
		l-0.1-0.3l-0.2-0.2l-0.5-0.3l-0.3-0.1l-0.1,0.1l-0.1,0.1l-0.1,0.3l0,0.3l0,0.1l0,0.1l0,0l-0.1,0.5L26.2,31l0,0.1l-0.1,0.3L26,32
		l0,0.1l0,0.1l0,0l0,0.1l0,0l0,0.1l0.1,0l0.1,0.1l0,0.3L26.1,33l0,0.2l-0.3,0.5l-0.2,0.3l-0.1,0l-0.2,0.2l0,0l-0.1,0l-0.1,0.2
		L25,34.7l-0.1,0.1L24.7,35l-0.4,0.3l0,0.1l-0.5,0.3l-0.1,0l0,0.1l-0.1,0l0,0.1L22.7,36l-0.6,0.2L22,36.2l-0.1,0.3l-0.1,0.3L21.7,37
		l0,0.1l-0.2,0.6L21.2,38l0,0.1l-0.4,0.6l-0.1,0l0,0l-0.1,0.1l0,0.1L20.6,39l-0.1,0.2l-0.1,0.1l-0.1,0.2l-0.1,0.1l-0.2,0.4l-0.2,0.2
		l0,0.1l-0.2,0.2l-0.1,0.1l-0.1,0l-0.2,0.1l42.8-11l0.2,0.9L14,42.9z"/>
	<polygon fill="#FFFFFF" points="14.4,29.7 14.2,29.7 14.3,29.8 14.4,29.8 	"/>
	<polygon fill="#FFFFFF" points="13.9,32.4 13.8,32.4 13.7,32.4 13.7,32.4 13.7,32.5 13.8,32.5 13.9,32.5 	"/>
	<polygon fill="#FFFFFF" points="14,37 13.9,37.3 13.9,37.4 14.3,37.1 14.2,37.1 	"/>
	<polygon fill="#FFFFFF" points="46.7,26.4 46.6,26.5 46.7,26.5 46.8,26.5 46.8,26.4 46.8,26.3 	"/>
	<polygon fill="#FFFFFF" points="17.7,25.1 17.8,25 17.8,25 17.8,25 17.8,25.1 17.8,25.1 17.9,25 18.1,25 18.3,25 18.4,24.9 
		18.4,24.9 18.2,24.9 18,24.8 18,24.6 17.6,24.7 17.6,25 	"/>
	<polygon fill="#FFFFFF" points="18.4,24.7 18.6,24.8 18.6,24.5 18.7,24.5 18.8,24.3 18.8,24.2 18.7,24.2 18.4,24.6 18.4,24.7 	"/>
	<polygon fill="#FFFFFF" points="18.6,24 18.6,24.1 18.6,24 18.6,23.9 18.6,23.8 18.5,23.7 18.5,23.8 18.6,23.9 	"/>
	
		<rect x="18.1" y="24.2" transform="matrix(0.2493 0.9684 -0.9684 0.2493 37.0928 0.6578)" fill="#FFFFFF" width="0.1" height="0.1"/>
	<polygon fill="#FFFFFF" points="19.3,23.8 19.4,23.8 19.5,23.9 19.5,23.8 19.5,23.7 19.5,23.7 19.2,23.7 19.3,23.8 	"/>
	
		<rect x="18.9" y="24.7" transform="matrix(0.2502 0.9682 -0.9682 0.2502 38.1013 0.2305)" fill="#FFFFFF" width="0.1" height="0.1"/>
	<polygon fill="#FFFFFF" points="18.3,25.6 17.9,26.1 17.7,26.4 17.7,26.6 17.6,26.6 17.7,26.7 17.6,26.7 17.6,26.8 17.4,27.4 
		17.4,27.9 17.4,28.4 17.5,29 17.5,29.1 17.5,29.2 17.6,29.7 17.6,29.9 17.8,30.5 17.8,30.7 17.9,30.7 18,31.3 18.1,31.6 18.2,31.6 
		18.4,32.1 18.7,32.6 18.9,32.9 19,33 19,33.1 19.1,33.1 19.1,33.2 19.2,33.2 19.2,33.2 19.4,33.4 19.6,33.6 20,33.9 20.3,34 
		20.5,33.6 20.5,33.6 20.7,32.7 20.7,32.6 20.7,32 20.8,31.6 20.8,31.1 20.8,30.9 20.9,30.5 20.8,30.3 20.9,29.7 20.8,29.5 
		20.9,29.4 20.8,29.1 20.8,28.5 20.7,27.9 20.7,27.3 20.5,26.8 20.4,26.4 20.3,26.3 20.2,26 20.2,25.9 19.9,25.7 19.8,25.5 
		19.4,25.4 19.2,25.4 19.1,25.3 18.5,25.5 	"/>
	<polygon fill="#FFFFFF" points="17.4,24.7 17.5,24.7 17.5,24.6 17.4,24.6 17.4,24.7 17.4,24.7 	"/>
	<polygon fill="#FFFFFF" points="19.2,34.6 19.2,34.6 19.3,34.6 19.3,34.5 19.2,34.5 19.2,34.5 	"/>
	<polygon fill="#FFFFFF" points="17.2,25 17.1,25 17,25.1 17.2,25.1 	"/>
	<polygon fill="#FFFFFF" points="17.1,25.4 17.2,25.5 17.2,25.5 17.3,25.6 17.4,25.5 17.5,25.3 17.7,25.3 17.7,25.3 17.5,25.2 
		17.3,25 17.3,25 17.3,25.2 17.3,25.3 17.3,25.3 17.2,25.3 17.1,25.4 	"/>
	<polygon fill="#FFFFFF" points="17,28.7 16.9,28.6 16.9,28.8 17,28.8 17.1,28.8 	"/>
	<polygon fill="#FFFFFF" points="16.9,29.4 17,29.4 17.1,29.3 17,29.3 16.9,29.3 	"/>
	<polygon fill="#FFFFFF" points="16.6,29.6 16.4,29.6 16.3,29.7 16.3,29.8 16.4,29.7 16.6,29.8 16.7,29.7 	"/>
	<polygon fill="#FFFFFF" points="16.7,30.2 16.8,30.2 16.8,30.2 16.8,30.1 16.8,29.9 16.6,29.9 16.6,30 	"/>
	<polygon fill="#FFFFFF" points="16.2,28.8 16.1,28.8 16,28.9 16,29 16,29.1 16.1,29.1 16.3,29.1 16.2,29 16.3,28.8 	"/>
	<path fill="#FFFFFF" d="M15.1,28.7L15.1,28.7l0.3,0l0.2-0.1l0.2,0l0.1-0.1l0.3-0.1l0,0l0.3,0.1l0,0.1l0.1,0.1l0.1,0.1l0.1-0.1
		l0-0.2l0.1-0.1l0-0.1l-0.1,0l0-0.1l0,0l0.1,0l0.1,0.2l0.1,0l0-0.1l-0.1-0.2l-0.1,0l0,0.1l0,0l-0.1-0.1l0.1-0.1l0-0.2l0.1,0l0-0.1
		l-0.1-0.1l0.1-0.1l0-0.1l-0.1,0l0,0l0-0.1l0-0.1l-0.1,0l-0.1-0.1l0.3,0l0.1,0l0,0l-0.2-0.2l0.2-0.1l0-0.2l0,0l0.2-0.1l0.1-0.2
		l0.1,0l-0.1-0.2l-0.1-0.1l-0.3-0.1l-0.1,0L16.7,26l0.1-0.1l0.2,0l0.2,0.1l0.1,0l0-0.1l0.1-0.1l-0.1-0.1l0,0l0.1-0.1l0-0.1l-0.5,0
		l-0.2,0.1l0,0.1l0.1,0.1l0,0.3l-0.2,0.1l-0.1,0l0,0l-0.1,0l-0.1,0.1l0,0l-0.2-0.2l-0.2,0.2l-0.1,0l0,0.1l0,0.1l0,0.1l0.1-0.1
		l0.1,0.1l-0.1,0.1l0,0.1l0.2,0.2l-0.3,0.2l0,0l0,0.1l0,0.1l-0.1,0l-0.1-0.1l0.1-0.1l0-0.1l-0.1,0l-0.1,0.1l0,0.1l0,0.1l0.1,0.1
		l0.1-0.1l0.1,0l0.1,0.1l-0.1,0.3l0,0l0,0.1l0.2-0.1l0.1,0.1l0,0.2l0.1,0.1l-0.1,0.1l0.2,0l0.1,0l0-0.1L15.7,28l0.1-0.1l0.1,0.1
		l0,0.1l-0.1,0.2l-0.1,0.1l-0.2,0.1l-0.1,0l0,0.1l-0.2,0.2l-0.1-0.1l0.2-0.3L15.2,28L15,28l0,0.2l0.1,0.2L15,28.4l-0.2,0l0,0.1
		L15.1,28.7z M16.5,26.8l0.2-0.1l0-0.2l0,0l0.1,0l0.1,0.1l0,0.1l-0.1,0L16.7,27l-0.1,0L16.5,26.8L16.5,26.8z M16.5,27.5L16.5,27.5
		l0.1,0.1l-0.4,0.1l0-0.1l0-0.1l0.1,0L16.5,27.5z M16,26.9l0.2-0.1l0,0l0,0l-0.2,0.2l-0.2,0L16,26.9z M15.9,27.6L15.9,27.6
		L15.9,27.6l0-0.1L15.9,27.6L15.9,27.6z"/>
	<polygon fill="#FFFFFF" points="16.3,26.2 16.2,26.1 16.1,26.1 16.2,26.2 	"/>
	<polygon fill="#FFFFFF" points="13.6,33.7 13.6,33.8 13.7,33.8 13.8,33.7 13.8,33.6 13.7,33.6 	"/>
	<polygon fill="#FFFFFF" points="37.8,32.9 37.8,33 37.8,33.1 37.9,33 37.9,33 37.8,32.9 	"/>
	<polygon fill="#FFFFFF" points="37.6,32.6 37.5,32.7 37.5,32.7 37.7,32.7 37.7,32.7 37.6,32.6 	"/>
	
		<rect x="37.6" y="32.2" transform="matrix(0.9673 -0.2536 0.2536 0.9673 -6.9372 10.5906)" fill="#FFFFFF" width="0.1" height="0.1"/>
	<polygon fill="#FFFFFF" points="38,31.5 38.1,31.6 38.2,31.6 38.1,31.5 	"/>
	<polygon fill="#FFFFFF" points="37.9,30.2 38,30.2 38.1,30 38.1,29.9 37.9,29.7 38,30.1 37.9,30.2 37.9,30.2 37.8,30.1 37.6,30.1 
		37.5,29.9 37.4,30 37.3,30.1 37.5,30.1 37.6,30.2 37.7,30.2 37.7,30.2 37.6,30.4 37.6,30.5 37.5,30.8 37.5,30.9 37.7,30.9 
		37.6,30.6 37.9,30.6 38,30.6 38.2,30.7 38.1,30.6 38.2,30.4 38,30.3 	"/>
	<polygon fill="#FFFFFF" points="37.2,32.8 37.2,32.8 37.3,32.9 37.4,32.9 37.4,32.8 37.2,32.8 	"/>
	<polygon fill="#FFFFFF" points="37.4,31.6 37.3,31.6 37.3,31.6 37.3,31.7 37.4,31.7 	"/>
	<polygon fill="#FFFFFF" points="38.2,28.4 38.1,28.3 37.9,28.3 37.8,28.4 37.8,28.5 37.8,28.6 37.9,28.6 38,28.5 38.2,28.5 	"/>
	<polygon fill="#FFFFFF" points="37.2,31.4 37.1,31.4 37.1,31.5 37.2,31.5 37.2,31.5 	"/>
	<polygon fill="#FFFFFF" points="37.4,32.1 37.3,32.2 37.2,32.3 37.3,32.3 37.4,32.4 37.5,32.2 	"/>
	<polygon fill="#FFFFFF" points="37.8,29.5 37.9,29.5 37.9,29.6 38,29.6 38.1,29.6 38.2,29.6 38.2,29.6 38,29.5 37.9,29.4 	"/>
	<polygon fill="#FFFFFF" points="39,22 39,22 39.2,22 39.2,22 39.2,21.9 39,21.9 38.9,21.9 38.9,22 	"/>
	<polygon fill="#FFFFFF" points="38.9,23.8 38.9,23.9 39,23.9 39,23.7 39,23.7 	"/>
	<polygon fill="#FFFFFF" points="38.7,22.7 38.8,22.8 38.9,22.8 38.8,22.6 38.7,22.7 	"/>
	<polygon fill="#FFFFFF" points="38.4,28.3 38.3,28.3 38.4,28.5 38.5,28.5 38.5,28.4 38.5,28.4 	"/>
	<polygon fill="#FFFFFF" points="37.2,28.9 37.4,28.9 37.4,29 37.5,29 37.7,28.7 37.7,28.6 37.7,28.6 37.6,28.7 37.5,28.7 
		37.3,28.6 37.1,28.8 	"/>
	<polygon fill="#FFFFFF" points="42.4,27.6 42.5,27.7 42.4,27.4 42.3,27.4 42.3,27.5 42.3,27.5 	"/>
	<polygon fill="#FFFFFF" points="37.6,27.9 37.5,27.9 37.4,28 37.3,28.1 37.3,28.2 37.3,28.3 37.4,28.2 37.5,28.1 37.6,28.1 
		37.7,28.3 37.8,28.3 37.8,28.3 37.9,28.2 37.9,28.2 37.7,28 	"/>
	<polygon fill="#FFFFFF" points="38.5,21.9 38.6,22.1 38.7,22.1 38.7,22.1 38.6,21.9 	"/>
	
		<rect x="38.3" y="29.2" transform="matrix(-0.2511 -0.968 0.968 -0.2511 19.6406 73.7543)" fill="#FFFFFF" width="0.1" height="0.1"/>
	<polygon fill="#FFFFFF" points="38.3,28.9 38.2,28.8 38,28.8 38,28.9 38.1,29.1 38.1,29.1 38.2,29.1 38.2,29 38.4,29 	"/>
	<polygon fill="#FFFFFF" points="47.1,24 47.1,24 47.3,23.9 47.2,23.3 47,23.3 47,23.4 47.1,23.6 47.1,23.7 47,23.7 46.8,23.6 
		46.8,23.8 46.9,23.9 	"/>
	<polygon fill="#FFFFFF" points="46,23.6 46.3,23.5 46.4,23.4 46.5,23.7 46.7,23.7 46.7,23.6 46.7,23.5 46.7,23.4 46.6,23.3 
		46.5,23.2 46.4,23 46.2,23 46.3,23.2 46.3,23.3 46.2,23.3 46.2,23.4 46.1,23.4 46.1,23.3 46.1,23.3 45.9,23.4 45.9,23.5 46,23.7 	
		"/>
	<polygon fill="#FFFFFF" points="47.2,24.3 47.3,24.3 47.3,24.3 47.5,24.3 47.5,24.2 47.4,24.1 47.2,24.2 	"/>
	<polygon fill="#FFFFFF" points="45.7,22.9 45.6,22.8 45.5,22.8 45.4,22.9 45.4,22.9 45.5,23 	"/>
	<polygon fill="#FFFFFF" points="47.1,25.1 47,24.9 47,24.7 47,24.6 46.9,24.6 46.8,24.7 46.7,25 46.7,25 46.9,25.2 47.1,25.1 	"/>
	<polygon fill="#FFFFFF" points="42.8,26.6 42.8,26.6 42.7,26.4 42.7,26.3 42.6,26.3 42.6,26.6 	"/>
	<polygon fill="#FFFFFF" points="47.4,24.4 47.4,24.5 47.3,24.6 47.3,24.7 47.3,24.7 47.5,24.5 47.5,24.3 47.4,24.4 	"/>
	
		<rect x="47" y="26.1" transform="matrix(-0.2489 -0.9685 0.9685 -0.2489 33.3692 78.3591)" fill="#FFFFFF" width="0.1" height="0.2"/>
	<polygon fill="#FFFFFF" points="47.4,25.1 47.3,25.1 47.4,25.2 47.5,25.2 47.5,25.2 47.5,25.1 	"/>
	
		<rect x="45.5" y="23.4" transform="matrix(-0.9682 0.2502 -0.2502 -0.9682 95.5867 34.6772)" fill="#FFFFFF" width="0.1" height="0.1"/>
	<polygon fill="#FFFFFF" points="43,28.5 43.1,28.5 43.1,28.5 43.2,28.4 43,28.4 	"/>
	<polygon fill="#FFFFFF" points="43.1,25.6 43,25.6 43,25.7 43,25.7 43.1,25.7 	"/>
	<polygon fill="#FFFFFF" points="42.9,30 42.9,29.9 42.7,29.8 42.6,29.8 42.7,30 42.8,30.2 43,30.3 43.1,30.2 43,30.1 42.9,30.1 	
		"/>
	<polygon fill="#FFFFFF" points="43,27 42.9,27 42.9,27.1 42.8,27.1 42.9,27.1 	"/>
	<polygon fill="#FFFFFF" points="44.8,23.8 44.9,23.7 44.7,23.7 44.7,23.8 44.7,23.8 	"/>
	<polygon fill="#FFFFFF" points="43.9,24.1 44,24 44.1,24.1 44.1,24.3 44.2,24.2 44.2,24.1 44.2,24.1 44.1,23.8 43.9,23.9 43.8,24 
		43.8,24.1 43.8,24.1 	"/>
	<polygon fill="#FFFFFF" points="43.3,25.5 43.3,25.3 43.2,25.4 43.2,25.4 43.2,25.5 	"/>
	<polygon fill="#FFFFFF" points="44.1,27.6 44.7,27.4 44.8,27.4 44.9,27.2 45,27.2 45.4,26.8 45.4,26.8 45.7,26.2 45.8,25.8 
		45.9,25.2 46,24.6 45.9,24.1 45.6,24 45.5,24 45.5,24 45.1,24.1 44.7,24.3 44.4,24.8 44.2,24.9 44.1,25.2 44.1,25.3 43.9,25.9 
		43.7,26.4 43.7,26.6 43.7,26.6 43.7,26.7 43.7,26.7 43.7,26.8 43.6,27.1 43.6,27.5 43.8,27.6 	"/>
	<polygon fill="#FFFFFF" points="28.9,33.4 29,33.3 29.1,32.9 29,32.9 28.8,32.9 28.8,33 28.8,33 29,33.1 29,33.2 28.8,33.3 	"/>
	<polygon fill="#FFFFFF" points="43.3,25.1 43.3,25 43.4,24.9 43.6,24.8 43.5,24.8 43.4,24.8 43.4,24.8 43.2,25 43.2,25.1 	"/>
	<polygon fill="#FFFFFF" points="33.7,26.8 33.7,26.8 33.7,26.8 33.6,26.9 33.8,26.9 	"/>
	<polygon fill="#FFFFFF" points="33.6,34.1 33.6,34.2 33.7,34.2 33.7,34.2 33.8,34.2 33.7,34.1 	"/>
	<polygon fill="#FFFFFF" points="34,32.5 34.1,32.8 34.2,33.3 34.5,33.4 34.8,33.4 35.1,33.3 35.3,33.2 35.3,33.2 35.7,32.7 
		36,32.3 36.3,31.7 36.3,31.7 36.3,31.6 36.4,31.5 36.4,31.4 36.4,31.4 36.5,31.2 36.5,30.8 36.6,30.6 36.5,30.3 36.6,30 36.6,29.7 
		36.7,29.4 36.7,29.2 36.7,29.1 36.7,28.9 36.7,28.8 36.8,28.7 36.8,28.4 36.9,27.8 36.9,27.5 36.8,27.2 36.7,26.9 36.5,26.7 
		36,26.5 35.7,26.4 35.4,26.6 35.3,26.7 35.3,26.7 35.3,26.8 35.1,26.9 35,27.1 34.9,27.2 34.7,27.4 34.8,27.5 34.6,27.7 34.4,28.3 
		34.3,28.5 34.3,28.7 34.3,28.8 34.2,29.1 34.1,29.7 34,30.2 33.9,30.8 33.9,31.4 33.9,32 	"/>
	<polygon fill="#FFFFFF" points="33.4,33.8 33.4,33.9 33.6,33.9 33.6,33.7 33.6,33.7 33.5,33.7 33.4,33.8 	"/>
	<polygon fill="#FFFFFF" points="35.5,26.1 35.4,26 35.3,26 35.3,26.1 35.4,26.1 	"/>
	<polygon fill="#FFFFFF" points="38.7,21.4 38.7,21.4 38.7,21.3 38.6,21.3 38.6,21.2 38.5,21.2 38.5,21.3 	"/>
	<polygon fill="#FFFFFF" points="33.4,28.1 33.4,28.1 33.4,27.9 33.3,27.9 33.3,28 33.3,28 33.2,28.1 33.3,28.2 	"/>
	<polygon fill="#FFFFFF" points="34.6,26.3 34.7,26.2 34.5,26.2 34.6,26.3 	"/>
	
		<rect x="34.1" y="27.2" transform="matrix(0.2532 0.9674 -0.9674 0.2532 51.8944 -12.653)" fill="#FFFFFF" width="0.1" height="0.1"/>
	<polygon fill="#FFFFFF" points="28.6,34.6 28.6,34.6 28.7,34.5 28.7,34.4 28.6,34.5 	"/>
	<polygon fill="#FFFFFF" points="28.5,32.2 28.5,32 28.4,32.1 28.4,32.2 	"/>
	<polygon fill="#FFFFFF" points="28.5,33.4 28.4,33.6 28.4,33.6 28.6,33.7 28.7,33.5 28.6,33.4 	"/>
	<polygon fill="#FFFFFF" points="28,34.3 27.9,34.3 28,34.4 28.1,34.4 28.2,34.3 28.1,34.3 	"/>
	<polygon fill="#FFFFFF" points="28.3,31.8 28.4,31.8 28.6,31.8 28.6,31.6 28.7,31.5 28.6,31.4 28.4,31.4 28.4,31.5 28.4,31.5 
		28.5,31.7 28.4,31.8 	"/>
	<polygon fill="#FFFFFF" points="28.9,30.9 28.9,30.9 28.8,30.8 28.5,31 28.5,31.1 28.6,31 28.8,31.1 29.2,31.1 29.2,31 29.1,30.7 
		29,30.5 28.9,30.5 29,30.8 29,30.9 	"/>
	
		<rect x="28.5" y="32.4" transform="matrix(-0.968 0.2511 -0.2511 -0.968 64.3605 56.7458)" fill="#FFFFFF" width="0.1" height="0.1"/>
	<polygon fill="#FFFFFF" points="37,31.3 36.9,31.3 37,31.3 37.2,31.3 37.2,31.2 37.3,31.2 37.3,31.1 37.2,31.1 37,31.1 36.9,31.2 	
		"/>
	<polygon fill="#FFFFFF" points="37.1,29.6 37.2,29.6 37.3,29.7 37.4,29.8 37.4,29.2 37.3,29.1 37.1,29.2 37.1,29.5 	"/>
	<polygon fill="#FFFFFF" points="37.8,25.5 37.7,25.7 37.7,25.7 37.9,25.6 37.9,25.5 37.9,25.4 38,25.4 38.1,25.2 38.2,25.2 
		38.3,25.4 38.4,25.3 38.5,25.2 38.5,25.1 38.2,25 38.1,25 38,25.2 37.8,25.3 37.7,25.3 37.7,25.4 	"/>
	<polygon fill="#FFFFFF" points="37.2,31 37.3,30.9 37.2,30.8 37.2,30.9 37.2,31 	"/>
	<polygon fill="#FFFFFF" points="38.4,24.7 38.4,24.9 38.5,24.8 38.5,24.7 	"/>
	<polygon fill="#FFFFFF" points="37.2,30.2 37.1,30.4 37.2,30.5 37.2,30.5 37.3,30.4 	"/>
	<polygon fill="#FFFFFF" points="38.6,26.3 38.6,26.3 38.5,26.2 38.4,26 38.7,25.7 38.6,25.4 38.5,25.4 38.2,25.7 38.3,26 
		38.5,26.2 38.5,26.3 38.6,26.3 	"/>
	<path fill="#FFFFFF" d="M37.2,26.6l0.1-0.1l0.1,0l0.1,0.1l0,0.2l0,0.1l0.1,0l0.1-0.1l0.1,0l0,0.2l0.2-0.1l0.1,0.1l0.1,0.1l0,0.1
		l-0.3,0l0,0.2l0,0l-0.1-0.1l-0.1,0.1l0,0.1l0,0.1l0.3-0.1l0,0.1l0.2,0.2l0,0.1l0.4,0.1l0.1-0.1l0.1-0.2l0.1-0.1l0-0.3l0-0.1l0-0.1
		l-0.1,0l-0.2,0.2l-0.2,0l0-0.1l0.1-0.1l0.2,0l0.4-0.4l0-0.1l-0.1-0.1l0-0.2l-0.1-0.1l0-0.1l-0.3,0l0,0l0.1-0.1l0-0.1l-0.2,0l0,0
		l-0.2,0L37.7,26l-0.1,0l-0.1,0.2l0,0.1l0.1,0l0.1-0.1l0.1,0.1l0,0.1l0.1,0l0,0.1l-0.1,0l-0.1,0l-0.1,0.1l-0.1,0l-0.1,0l-0.1-0.1
		l-0.1,0l-0.2,0.1L37.2,26.6L37.2,26.6z M37.9,27.7L37.9,27.7l0-0.1L37.9,27.7L37.9,27.7L37.9,27.7z M38.3,27.6l0.1,0l0,0l0,0.1
		l-0.1,0L38.3,27.6L38.3,27.6L38.3,27.6z M38.1,26.5l0.1,0l0.1,0.1l0,0.2l-0.2,0l-0.1-0.1L38.1,26.5L38.1,26.5z"/>
	<polygon fill="#FFFFFF" points="37.7,26 37.8,25.9 37.8,25.8 37.7,25.9 37.7,25.9 	"/>
	<polygon fill="#FFFFFF" points="38.1,24.6 38.1,24.8 38.2,24.7 38.4,24.5 38.5,24.5 38.6,24.5 38.6,24.7 38.7,24.6 38.9,24.4 
		38.9,24.1 38.9,24 38.8,23.9 38.7,23.8 38.8,23.7 38.6,23.7 38.5,23.8 38.7,24 38.6,24.2 38.5,24.2 38.5,24.1 38.4,24 38.3,24 
		38.1,23.9 38.1,23.9 38.2,24.1 38.2,24.1 38.2,24.2 38.2,24.2 38.1,24.4 38.1,24.6 	"/>
	<polygon fill="#FFFFFF" points="38.5,23.4 38.5,23.4 38.6,23.3 38.8,23.3 38.8,23.2 38.6,23.2 38.5,23.1 38.3,23.1 38.3,23.1 
		38.4,23.3 	"/>
	<polygon fill="#FFFFFF" points="38.6,23.4 38.6,23.5 38.8,23.6 38.8,23.5 38.8,23.5 38.7,23.4 	"/>
</g>
</svg>
